<?xml version="1.0" encoding="utf-8"?>
<!-- Generator: Adobe Illustrator 24.1.1, SVG Export Plug-In . SVG Version: 6.00 Build 0)  -->
<svg version="1.1" id="_x30_" xmlns="http://www.w3.org/2000/svg" xmlns:xlink="http://www.w3.org/1999/xlink" x="0px" y="0px"
	 viewBox="0 0 369.21 227.48" style="enable-background:new 0 0 369.21 227.48;" xml:space="preserve">
<style type="text/css">
	.st0{fill:none;stroke:#000000;stroke-width:0.7087;stroke-linecap:round;stroke-linejoin:round;stroke-miterlimit:10;}
</style>
<g id="CIRCLE">
	<path class="st0" d="M350.74,212.95c0-2.18,1.76-3.94,3.94-3.94s3.94,1.76,3.94,3.94s-1.76,3.94-3.94,3.94
		S350.74,215.13,350.74,212.95L350.74,212.95z"/>
</g>
<g id="CIRCLE_1_">
	<path class="st0" d="M350.86,212.95c0-2.11,1.71-3.83,3.83-3.83s3.83,1.71,3.83,3.83s-1.71,3.83-3.83,3.83
		S350.86,215.07,350.86,212.95L350.86,212.95z"/>
</g>
<g id="CIRCLE_2_">
	<path class="st0" d="M350.86,14.53c0-2.11,1.71-3.83,3.83-3.83s3.83,1.71,3.83,3.83s-1.71,3.83-3.83,3.83
		S350.86,16.64,350.86,14.53L350.86,14.53z"/>
</g>
<g id="CIRCLE_3_">
	<path class="st0" d="M10.7,212.95c0-2.11,1.71-3.83,3.83-3.83s3.83,1.71,3.83,3.83s-1.71,3.83-3.83,3.83S10.7,215.07,10.7,212.95
		L10.7,212.95z"/>
</g>
<g id="CIRCLE_4_">
	<path class="st0" d="M10.7,14.53c0-2.11,1.71-3.83,3.83-3.83s3.83,1.71,3.83,3.83s-1.71,3.83-3.83,3.83S10.7,16.64,10.7,14.53
		L10.7,14.53z"/>
</g>
<g id="LWPOLYLINE">
	<path class="st0" d="M354.69,227.13H14.53c-7.83,0-14.17-6.35-14.17-14.17V14.53C0.35,6.7,6.7,0.35,14.53,0.35h340.16
		c7.83,0,14.17,6.35,14.17,14.17v198.43C368.86,220.78,362.51,227.13,354.69,227.13z"/>
</g>
<g id="CIRCLE_5_">
	<path class="st0" d="M248.81,152.01c0-2.11,1.71-3.83,3.83-3.83c2.11,0,3.83,1.71,3.83,3.83s-1.71,3.83-3.83,3.83
		C250.52,155.83,248.81,154.12,248.81,152.01L248.81,152.01z"/>
</g>
<g id="CIRCLE_6_">
	<path class="st0" d="M112.73,152.01c0-2.12,1.72-3.84,3.84-3.84c2.12,0,3.84,1.72,3.84,3.84s-1.72,3.84-3.84,3.84
		C114.45,155.85,112.73,154.13,112.73,152.01L112.73,152.01z"/>
</g>
<g id="CIRCLE_7_">
	<path class="st0" d="M112.75,75.47c0-2.11,1.71-3.83,3.83-3.83c2.11,0,3.83,1.71,3.83,3.83c0,2.11-1.71,3.83-3.83,3.83
		C114.46,79.3,112.75,77.59,112.75,75.47L112.75,75.47z"/>
</g>
<g id="CIRCLE_8_">
	<path class="st0" d="M248.81,75.47c0-2.11,1.71-3.83,3.83-3.83c2.11,0,3.83,1.71,3.83,3.83c0,2.11-1.71,3.83-3.83,3.83
		C250.52,79.3,248.81,77.59,248.81,75.47L248.81,75.47z"/>
</g>
<g id="LINE">
	<line class="st0" x1="295.16" y1="113.74" x2="295.16" y2="99.57"/>
</g>
<g id="LWPOLYLINE_1_">
	<path class="st0" d="M292.32,99.57h-8.5c-1.57,0-2.83,1.27-2.83,2.83v22.68c0,1.57,1.27,2.83,2.83,2.83h8.5
		c1.57,0,2.83-1.27,2.83-2.83V102.4C295.16,100.84,293.89,99.57,292.32,99.57z"/>
</g>
</svg>
