<?xml version="1.0" encoding="utf-8"?>
<!-- Generator: Adobe Illustrator 24.1.1, SVG Export Plug-In . SVG Version: 6.00 Build 0)  -->
<svg version="1.1" id="_x30_" xmlns="http://www.w3.org/2000/svg" xmlns:xlink="http://www.w3.org/1999/xlink" x="0px" y="0px"
	 viewBox="0 0 369.21 227.48" style="enable-background:new 0 0 369.21 227.48;" xml:space="preserve">
<style type="text/css">
	.st0{fill:none;stroke:#000000;stroke-width:0.7087;stroke-linecap:round;stroke-linejoin:round;stroke-miterlimit:10;}
</style>
<g id="LWPOLYLINE">
	<path class="st0" d="M14.53,0.35h340.16c7.83,0,14.17,6.35,14.17,14.17c0,0,0,198.43,0,198.43c0,7.83-6.35,14.17-14.17,14.17H14.53
		c-7.83,0-14.17-6.35-14.17-14.17V14.53C0.35,6.7,6.7,0.35,14.53,0.35z"/>
</g>
<g id="CIRCLE">
	<path class="st0" d="M350.86,14.53c0-2.11,1.71-3.83,3.83-3.83s3.83,1.71,3.83,3.83s-1.71,3.83-3.83,3.83
		S350.86,16.64,350.86,14.53L350.86,14.53z"/>
</g>
<g id="CIRCLE_1_">
	<path class="st0" d="M10.7,14.53c0-2.11,1.71-3.83,3.83-3.83s3.83,1.71,3.83,3.83s-1.71,3.83-3.83,3.83S10.7,16.64,10.7,14.53
		L10.7,14.53z"/>
</g>
<g id="CIRCLE_2_">
	<path class="st0" d="M10.7,212.95c0-2.11,1.71-3.83,3.83-3.83s3.83,1.71,3.83,3.83s-1.71,3.83-3.83,3.83S10.7,215.07,10.7,212.95
		L10.7,212.95z"/>
</g>
<g id="CIRCLE_3_">
	<path class="st0" d="M350.86,212.95c0-2.11,1.71-3.83,3.83-3.83s3.83,1.71,3.83,3.83s-1.71,3.83-3.83,3.83
		S350.86,215.07,350.86,212.95L350.86,212.95z"/>
</g>
<g id="CIRCLE_4_">
	<path class="st0" d="M42.87,113.74c0-31.31,25.38-56.69,56.69-56.69s56.69,25.38,56.69,56.69s-25.38,56.69-56.69,56.69
		S42.87,145.05,42.87,113.74L42.87,113.74z"/>
</g>
<g id="CIRCLE_5_">
	<path class="st0" d="M212.95,113.74c0-31.31,25.38-56.69,56.69-56.69s56.69,25.38,56.69,56.69s-25.38,56.69-56.69,56.69
		S212.95,145.05,212.95,113.74L212.95,113.74z"/>
</g>
</svg>
