G04*
G04 #@! TF.GenerationSoftware,Altium Limited,Altium Designer,19.0.15 (446)*
G04*
G04 Layer_Color=65535*
%FSLAX44Y44*%
%MOMM*%
G71*
G01*
G75*
%ADD10C,0.2540*%
%ADD11C,0.2032*%
%ADD12C,0.2000*%
G36*
X3773831Y382708D02*
X3773987Y382694D01*
X3774170Y382665D01*
X3774367Y382623D01*
X3774579Y382567D01*
X3774776Y382482D01*
X3774804Y382468D01*
X3774861Y382440D01*
X3774959Y382397D01*
X3775072Y382327D01*
X3775213Y382243D01*
X3775340Y382130D01*
X3775467Y382017D01*
X3775579Y381876D01*
X3775593Y381862D01*
X3775622Y381805D01*
X3775664Y381735D01*
X3775734Y381636D01*
X3775791Y381495D01*
X3775847Y381354D01*
X3775918Y381185D01*
X3775960Y381002D01*
Y380988D01*
X3775974Y380931D01*
X3775988Y380847D01*
X3776002Y380734D01*
Y380565D01*
X3776016Y380368D01*
X3776030Y380128D01*
Y379832D01*
Y375490D01*
X3774832D01*
Y379776D01*
Y379790D01*
Y379804D01*
Y379902D01*
Y380029D01*
X3774818Y380184D01*
X3774804Y380368D01*
X3774776Y380551D01*
X3774734Y380720D01*
X3774691Y380875D01*
Y380889D01*
X3774663Y380931D01*
X3774621Y381002D01*
X3774579Y381087D01*
X3774508Y381171D01*
X3774424Y381270D01*
X3774311Y381368D01*
X3774184Y381453D01*
X3774170Y381467D01*
X3774127Y381495D01*
X3774043Y381524D01*
X3773944Y381566D01*
X3773831Y381608D01*
X3773690Y381650D01*
X3773521Y381665D01*
X3773352Y381679D01*
X3773282D01*
X3773225Y381665D01*
X3773084Y381650D01*
X3772901Y381622D01*
X3772704Y381552D01*
X3772478Y381467D01*
X3772253Y381354D01*
X3772041Y381185D01*
X3772013Y381157D01*
X3771956Y381087D01*
X3771914Y381030D01*
X3771872Y380960D01*
X3771815Y380875D01*
X3771773Y380776D01*
X3771717Y380664D01*
X3771660Y380523D01*
X3771618Y380368D01*
X3771576Y380198D01*
X3771548Y380015D01*
X3771519Y379818D01*
X3771491Y379578D01*
Y379338D01*
Y375490D01*
X3770293Y375490D01*
Y382567D01*
X3771364Y382567D01*
Y381552D01*
X3771378Y381566D01*
X3771407Y381608D01*
X3771449Y381665D01*
X3771505Y381735D01*
X3771590Y381820D01*
X3771689Y381918D01*
X3771801Y382031D01*
X3771942Y382144D01*
X3772083Y382243D01*
X3772253Y382355D01*
X3772436Y382454D01*
X3772633Y382538D01*
X3772859Y382609D01*
X3773084Y382665D01*
X3773338Y382708D01*
X3773606Y382722D01*
X3773719D01*
X3773831Y382708D01*
D02*
G37*
G36*
X3802477D02*
X3802688Y382694D01*
X3802914Y382665D01*
X3803153Y382609D01*
X3803407Y382553D01*
X3803647Y382468D01*
X3803661D01*
X3803675Y382454D01*
X3803745Y382426D01*
X3803858Y382369D01*
X3803999Y382299D01*
X3804154Y382200D01*
X3804309Y382087D01*
X3804450Y381960D01*
X3804577Y381820D01*
X3804591Y381805D01*
X3804619Y381749D01*
X3804676Y381650D01*
X3804746Y381538D01*
X3804817Y381368D01*
X3804887Y381185D01*
X3804944Y380974D01*
X3805000Y380734D01*
X3803830Y380579D01*
Y380607D01*
X3803816Y380664D01*
X3803788Y380762D01*
X3803745Y380889D01*
X3803675Y381016D01*
X3803590Y381157D01*
X3803492Y381298D01*
X3803351Y381425D01*
X3803336Y381439D01*
X3803280Y381467D01*
X3803195Y381524D01*
X3803069Y381580D01*
X3802928Y381636D01*
X3802744Y381693D01*
X3802519Y381721D01*
X3802279Y381735D01*
X3802138D01*
X3801997Y381721D01*
X3801814Y381707D01*
X3801631Y381665D01*
X3801433Y381622D01*
X3801250Y381552D01*
X3801095Y381453D01*
X3801081Y381439D01*
X3801039Y381411D01*
X3800982Y381354D01*
X3800926Y381270D01*
X3800855Y381185D01*
X3800799Y381072D01*
X3800757Y380946D01*
X3800742Y380819D01*
Y380805D01*
Y380776D01*
X3800757Y380734D01*
Y380678D01*
X3800799Y380537D01*
X3800883Y380396D01*
X3800898Y380382D01*
X3800912Y380368D01*
X3800940Y380325D01*
X3800996Y380283D01*
X3801053Y380241D01*
X3801137Y380184D01*
X3801236Y380142D01*
X3801349Y380086D01*
X3801363D01*
X3801391Y380071D01*
X3801447Y380057D01*
X3801546Y380015D01*
X3801687Y379973D01*
X3801870Y379931D01*
X3801983Y379888D01*
X3802110Y379860D01*
X3802251Y379818D01*
X3802406Y379776D01*
X3802420D01*
X3802462Y379761D01*
X3802533Y379747D01*
X3802617Y379719D01*
X3802716Y379691D01*
X3802843Y379663D01*
X3803111Y379578D01*
X3803407Y379494D01*
X3803703Y379395D01*
X3803971Y379296D01*
X3804084Y379254D01*
X3804182Y379212D01*
X3804210Y379198D01*
X3804267Y379169D01*
X3804351Y379127D01*
X3804478Y379057D01*
X3804605Y378972D01*
X3804732Y378859D01*
X3804859Y378732D01*
X3804972Y378591D01*
X3804986Y378577D01*
X3805014Y378521D01*
X3805070Y378436D01*
X3805127Y378309D01*
X3805169Y378154D01*
X3805225Y377985D01*
X3805254Y377788D01*
X3805268Y377562D01*
Y377534D01*
Y377464D01*
X3805254Y377351D01*
X3805225Y377196D01*
X3805183Y377027D01*
X3805113Y376843D01*
X3805028Y376632D01*
X3804915Y376435D01*
X3804901Y376406D01*
X3804845Y376350D01*
X3804774Y376251D01*
X3804661Y376138D01*
X3804507Y376012D01*
X3804337Y375871D01*
X3804140Y375744D01*
X3803900Y375617D01*
X3803886D01*
X3803872Y375603D01*
X3803788Y375575D01*
X3803647Y375532D01*
X3803463Y375476D01*
X3803238Y375420D01*
X3802984Y375377D01*
X3802716Y375349D01*
X3802406Y375335D01*
X3802279D01*
X3802180Y375349D01*
X3802068D01*
X3801927Y375363D01*
X3801786Y375377D01*
X3801631Y375405D01*
X3801292Y375476D01*
X3800940Y375575D01*
X3800602Y375716D01*
X3800446Y375800D01*
X3800305Y375899D01*
X3800291Y375913D01*
X3800277Y375927D01*
X3800193Y376012D01*
X3800066Y376138D01*
X3799925Y376336D01*
X3799770Y376576D01*
X3799615Y376857D01*
X3799488Y377210D01*
X3799389Y377605D01*
X3800573Y377788D01*
Y377774D01*
Y377760D01*
X3800602Y377675D01*
X3800630Y377534D01*
X3800686Y377379D01*
X3800757Y377210D01*
X3800841Y377027D01*
X3800968Y376843D01*
X3801123Y376688D01*
X3801151Y376674D01*
X3801208Y376632D01*
X3801320Y376576D01*
X3801461Y376505D01*
X3801645Y376435D01*
X3801856Y376378D01*
X3802110Y376336D01*
X3802406Y376322D01*
X3802547D01*
X3802688Y376336D01*
X3802871Y376364D01*
X3803069Y376406D01*
X3803280Y376463D01*
X3803463Y376533D01*
X3803632Y376646D01*
X3803647Y376660D01*
X3803703Y376702D01*
X3803759Y376773D01*
X3803844Y376871D01*
X3803914Y376984D01*
X3803985Y377125D01*
X3804027Y377266D01*
X3804041Y377435D01*
Y377449D01*
Y377506D01*
X3804027Y377576D01*
X3803999Y377675D01*
X3803957Y377774D01*
X3803886Y377872D01*
X3803802Y377985D01*
X3803675Y378070D01*
X3803661Y378084D01*
X3803618Y378098D01*
X3803548Y378140D01*
X3803435Y378182D01*
X3803266Y378239D01*
X3803167Y378281D01*
X3803055Y378309D01*
X3802928Y378352D01*
X3802787Y378394D01*
X3802632Y378436D01*
X3802448Y378479D01*
X3802434D01*
X3802392Y378493D01*
X3802321Y378507D01*
X3802237Y378535D01*
X3802124Y378563D01*
X3801997Y378605D01*
X3801729Y378676D01*
X3801419Y378775D01*
X3801123Y378859D01*
X3800841Y378958D01*
X3800714Y379014D01*
X3800616Y379057D01*
X3800587Y379071D01*
X3800531Y379099D01*
X3800446Y379155D01*
X3800334Y379226D01*
X3800207Y379324D01*
X3800080Y379437D01*
X3799953Y379564D01*
X3799840Y379719D01*
X3799826Y379733D01*
X3799798Y379790D01*
X3799756Y379888D01*
X3799713Y380001D01*
X3799671Y380142D01*
X3799629Y380311D01*
X3799601Y380480D01*
X3799586Y380678D01*
Y380706D01*
Y380762D01*
X3799601Y380847D01*
X3799615Y380974D01*
X3799643Y381101D01*
X3799671Y381256D01*
X3799727Y381397D01*
X3799798Y381552D01*
X3799812Y381566D01*
X3799840Y381622D01*
X3799883Y381693D01*
X3799953Y381791D01*
X3800038Y381890D01*
X3800136Y382017D01*
X3800249Y382130D01*
X3800390Y382228D01*
X3800404Y382243D01*
X3800446Y382257D01*
X3800503Y382299D01*
X3800587Y382341D01*
X3800700Y382397D01*
X3800827Y382454D01*
X3800982Y382510D01*
X3801151Y382567D01*
X3801180Y382581D01*
X3801236Y382595D01*
X3801335Y382623D01*
X3801461Y382651D01*
X3801617Y382679D01*
X3801786Y382694D01*
X3801983Y382722D01*
X3802321D01*
X3802477Y382708D01*
D02*
G37*
G36*
X3780936D02*
X3781021D01*
X3781133Y382694D01*
X3781401Y382651D01*
X3781697Y382581D01*
X3782007Y382468D01*
X3782318Y382327D01*
X3782614Y382130D01*
X3782628D01*
X3782642Y382102D01*
X3782726Y382017D01*
X3782853Y381890D01*
X3783008Y381707D01*
X3783163Y381481D01*
X3783318Y381199D01*
X3783459Y380875D01*
X3783558Y380494D01*
X3782388Y380311D01*
Y380325D01*
X3782374Y380339D01*
X3782360Y380424D01*
X3782318Y380551D01*
X3782247Y380706D01*
X3782177Y380875D01*
X3782064Y381058D01*
X3781937Y381227D01*
X3781796Y381368D01*
X3781782Y381382D01*
X3781725Y381425D01*
X3781627Y381481D01*
X3781514Y381552D01*
X3781359Y381622D01*
X3781190Y381679D01*
X3780993Y381721D01*
X3780781Y381735D01*
X3780696D01*
X3780626Y381721D01*
X3780471Y381707D01*
X3780259Y381650D01*
X3780034Y381580D01*
X3779780Y381467D01*
X3779541Y381298D01*
X3779428Y381199D01*
X3779315Y381087D01*
Y381072D01*
X3779287Y381058D01*
X3779259Y381016D01*
X3779230Y380960D01*
X3779188Y380889D01*
X3779132Y380805D01*
X3779089Y380706D01*
X3779033Y380593D01*
X3778977Y380452D01*
X3778934Y380297D01*
X3778878Y380128D01*
X3778836Y379945D01*
X3778807Y379747D01*
X3778779Y379522D01*
X3778751Y379282D01*
Y379028D01*
Y379014D01*
Y378972D01*
Y378887D01*
X3778765Y378803D01*
Y378676D01*
X3778779Y378549D01*
X3778822Y378239D01*
X3778878Y377901D01*
X3778977Y377548D01*
X3779104Y377238D01*
X3779188Y377083D01*
X3779287Y376956D01*
X3779315Y376928D01*
X3779385Y376857D01*
X3779512Y376759D01*
X3779667Y376646D01*
X3779879Y376519D01*
X3780119Y376420D01*
X3780400Y376350D01*
X3780556Y376336D01*
X3780710Y376322D01*
X3780739D01*
X3780823Y376336D01*
X3780964Y376350D01*
X3781119Y376378D01*
X3781303Y376420D01*
X3781500Y376505D01*
X3781697Y376604D01*
X3781881Y376745D01*
X3781909Y376759D01*
X3781951Y376829D01*
X3782036Y376928D01*
X3782134Y377083D01*
X3782233Y377266D01*
X3782346Y377492D01*
X3782430Y377774D01*
X3782487Y378084D01*
X3783671Y377929D01*
Y377915D01*
X3783657Y377872D01*
X3783643Y377816D01*
X3783629Y377731D01*
X3783600Y377619D01*
X3783572Y377506D01*
X3783474Y377224D01*
X3783347Y376928D01*
X3783163Y376604D01*
X3782938Y376293D01*
X3782811Y376153D01*
X3782670Y376012D01*
X3782656Y375998D01*
X3782628Y375983D01*
X3782585Y375955D01*
X3782529Y375913D01*
X3782459Y375857D01*
X3782360Y375800D01*
X3782247Y375744D01*
X3782134Y375673D01*
X3781852Y375546D01*
X3781514Y375448D01*
X3781147Y375363D01*
X3780936Y375349D01*
X3780725Y375335D01*
X3780584D01*
X3780485Y375349D01*
X3780358Y375363D01*
X3780217Y375391D01*
X3780062Y375420D01*
X3779893Y375448D01*
X3779512Y375560D01*
X3779329Y375645D01*
X3779132Y375730D01*
X3778934Y375842D01*
X3778751Y375969D01*
X3778568Y376110D01*
X3778399Y376279D01*
X3778385Y376293D01*
X3778356Y376322D01*
X3778314Y376378D01*
X3778258Y376449D01*
X3778201Y376547D01*
X3778117Y376674D01*
X3778046Y376815D01*
X3777962Y376970D01*
X3777877Y377153D01*
X3777807Y377365D01*
X3777722Y377576D01*
X3777666Y377830D01*
X3777609Y378084D01*
X3777567Y378380D01*
X3777539Y378676D01*
X3777525Y379000D01*
Y379014D01*
Y379057D01*
Y379113D01*
Y379198D01*
X3777539Y379296D01*
Y379409D01*
X3777553Y379536D01*
X3777567Y379677D01*
X3777609Y379987D01*
X3777680Y380325D01*
X3777764Y380664D01*
X3777891Y381002D01*
Y381016D01*
X3777905Y381044D01*
X3777933Y381087D01*
X3777962Y381143D01*
X3778046Y381298D01*
X3778173Y381481D01*
X3778342Y381693D01*
X3778540Y381904D01*
X3778779Y382116D01*
X3779047Y382285D01*
X3779061D01*
X3779089Y382299D01*
X3779132Y382327D01*
X3779188Y382355D01*
X3779259Y382383D01*
X3779343Y382426D01*
X3779555Y382510D01*
X3779794Y382581D01*
X3780090Y382651D01*
X3780400Y382708D01*
X3780739Y382722D01*
X3780852D01*
X3780936Y382708D01*
D02*
G37*
G36*
X3834293Y384089D02*
X3831079D01*
Y375490D01*
X3829782D01*
Y384089D01*
X3826568D01*
Y385245D01*
X3834293D01*
Y384089D01*
D02*
G37*
G36*
X3825624D02*
X3820323D01*
Y381072D01*
X3824905D01*
Y379916D01*
X3820323D01*
Y375490D01*
X3819026D01*
Y385245D01*
X3825624D01*
Y384089D01*
D02*
G37*
G36*
X3817631D02*
X3814417D01*
Y375490D01*
X3813120D01*
Y384089D01*
X3809905D01*
Y385245D01*
X3817631D01*
Y384089D01*
D02*
G37*
G36*
X3785898Y381749D02*
X3785912Y381763D01*
X3785941Y381791D01*
X3785983Y381834D01*
X3786053Y381904D01*
X3786124Y381975D01*
X3786223Y382059D01*
X3786349Y382144D01*
X3786476Y382243D01*
X3786617Y382327D01*
X3786772Y382412D01*
X3787139Y382567D01*
X3787336Y382637D01*
X3787548Y382679D01*
X3787773Y382708D01*
X3787999Y382722D01*
X3788126D01*
X3788281Y382708D01*
X3788464Y382679D01*
X3788676Y382651D01*
X3788901Y382595D01*
X3789127Y382510D01*
X3789352Y382412D01*
X3789380Y382397D01*
X3789451Y382355D01*
X3789549Y382285D01*
X3789676Y382186D01*
X3789803Y382059D01*
X3789944Y381918D01*
X3790071Y381749D01*
X3790184Y381552D01*
X3790198Y381524D01*
X3790226Y381453D01*
X3790268Y381326D01*
X3790311Y381143D01*
X3790353Y380917D01*
X3790395Y380649D01*
X3790424Y380325D01*
X3790438Y379959D01*
Y375490D01*
X3789239D01*
Y379973D01*
Y379987D01*
Y380015D01*
Y380057D01*
Y380114D01*
X3789225Y380269D01*
X3789197Y380466D01*
X3789141Y380678D01*
X3789070Y380889D01*
X3788972Y381101D01*
X3788845Y381270D01*
X3788831Y381284D01*
X3788774Y381340D01*
X3788690Y381411D01*
X3788563Y381481D01*
X3788408Y381566D01*
X3788224Y381622D01*
X3787999Y381679D01*
X3787745Y381693D01*
X3787661D01*
X3787562Y381679D01*
X3787421Y381665D01*
X3787280Y381622D01*
X3787111Y381580D01*
X3786942Y381509D01*
X3786758Y381411D01*
X3786744Y381397D01*
X3786688Y381354D01*
X3786603Y381298D01*
X3786505Y381213D01*
X3786392Y381101D01*
X3786279Y380974D01*
X3786180Y380819D01*
X3786096Y380649D01*
X3786082Y380621D01*
X3786068Y380565D01*
X3786039Y380452D01*
X3785997Y380311D01*
X3785955Y380128D01*
X3785927Y379902D01*
X3785912Y379649D01*
X3785898Y379353D01*
Y375490D01*
X3784700D01*
Y385245D01*
X3785898D01*
Y381749D01*
D02*
G37*
G36*
X3768164Y375490D02*
X3766867D01*
Y385245D01*
X3768164D01*
Y375490D01*
D02*
G37*
G36*
X3753038D02*
X3751671D01*
Y376857D01*
X3753038D01*
Y375490D01*
D02*
G37*
G36*
X3746878Y385273D02*
X3746991Y385259D01*
X3747132Y385245D01*
X3747287Y385217D01*
X3747442Y385189D01*
X3747808Y385090D01*
X3748175Y384949D01*
X3748358Y384865D01*
X3748541Y384766D01*
X3748710Y384639D01*
X3748865Y384498D01*
X3748880Y384484D01*
X3748908Y384470D01*
X3748936Y384413D01*
X3748992Y384357D01*
X3749063Y384286D01*
X3749133Y384188D01*
X3749204Y384089D01*
X3749288Y383962D01*
X3749429Y383694D01*
X3749570Y383356D01*
X3749627Y383187D01*
X3749655Y382990D01*
X3749683Y382792D01*
X3749697Y382581D01*
Y382553D01*
Y382482D01*
X3749683Y382369D01*
X3749669Y382214D01*
X3749641Y382045D01*
X3749584Y381848D01*
X3749528Y381636D01*
X3749443Y381425D01*
X3749429Y381397D01*
X3749401Y381326D01*
X3749345Y381213D01*
X3749260Y381058D01*
X3749147Y380889D01*
X3749006Y380678D01*
X3748837Y380466D01*
X3748640Y380227D01*
X3748612Y380198D01*
X3748541Y380114D01*
X3748471Y380043D01*
X3748400Y379973D01*
X3748316Y379888D01*
X3748203Y379776D01*
X3748090Y379663D01*
X3747949Y379536D01*
X3747808Y379395D01*
X3747639Y379240D01*
X3747456Y379085D01*
X3747258Y378901D01*
X3747033Y378718D01*
X3746807Y378521D01*
X3746793Y378507D01*
X3746765Y378479D01*
X3746709Y378436D01*
X3746638Y378380D01*
X3746554Y378295D01*
X3746455Y378211D01*
X3746229Y378027D01*
X3745990Y377816D01*
X3745764Y377604D01*
X3745567Y377421D01*
X3745482Y377351D01*
X3745412Y377280D01*
X3745398Y377266D01*
X3745355Y377224D01*
X3745299Y377168D01*
X3745229Y377083D01*
X3745158Y376984D01*
X3745074Y376886D01*
X3744904Y376646D01*
X3749711D01*
Y375490D01*
X3743241D01*
Y375504D01*
Y375560D01*
Y375645D01*
X3743255Y375758D01*
X3743269Y375885D01*
X3743297Y376026D01*
X3743326Y376167D01*
X3743382Y376322D01*
Y376336D01*
X3743396Y376350D01*
X3743424Y376435D01*
X3743481Y376561D01*
X3743565Y376730D01*
X3743678Y376928D01*
X3743819Y377153D01*
X3743974Y377379D01*
X3744171Y377619D01*
Y377633D01*
X3744200Y377647D01*
X3744270Y377731D01*
X3744397Y377858D01*
X3744580Y378041D01*
X3744792Y378253D01*
X3745059Y378507D01*
X3745384Y378789D01*
X3745736Y379085D01*
X3745750Y379099D01*
X3745807Y379141D01*
X3745891Y379212D01*
X3745990Y379296D01*
X3746117Y379409D01*
X3746272Y379536D01*
X3746427Y379677D01*
X3746610Y379832D01*
X3746962Y380170D01*
X3747315Y380508D01*
X3747484Y380678D01*
X3747639Y380847D01*
X3747780Y381002D01*
X3747893Y381157D01*
Y381171D01*
X3747921Y381185D01*
X3747949Y381227D01*
X3747977Y381284D01*
X3748076Y381439D01*
X3748189Y381622D01*
X3748287Y381848D01*
X3748386Y382087D01*
X3748443Y382355D01*
X3748471Y382609D01*
Y382623D01*
Y382637D01*
X3748457Y382722D01*
X3748443Y382863D01*
X3748400Y383018D01*
X3748344Y383215D01*
X3748245Y383413D01*
X3748118Y383610D01*
X3747949Y383807D01*
X3747921Y383835D01*
X3747851Y383892D01*
X3747752Y383962D01*
X3747597Y384061D01*
X3747399Y384146D01*
X3747174Y384230D01*
X3746906Y384286D01*
X3746610Y384301D01*
X3746525D01*
X3746469Y384286D01*
X3746300Y384272D01*
X3746103Y384230D01*
X3745891Y384174D01*
X3745652Y384075D01*
X3745426Y383948D01*
X3745215Y383779D01*
X3745186Y383751D01*
X3745130Y383680D01*
X3745045Y383568D01*
X3744961Y383398D01*
X3744862Y383201D01*
X3744778Y382947D01*
X3744721Y382665D01*
X3744693Y382341D01*
X3743466Y382468D01*
Y382482D01*
X3743481Y382524D01*
Y382595D01*
X3743495Y382693D01*
X3743523Y382806D01*
X3743551Y382933D01*
X3743593Y383088D01*
X3743636Y383243D01*
X3743748Y383582D01*
X3743918Y383920D01*
X3744016Y384089D01*
X3744143Y384258D01*
X3744270Y384413D01*
X3744411Y384554D01*
X3744425Y384568D01*
X3744453Y384582D01*
X3744496Y384625D01*
X3744566Y384667D01*
X3744651Y384724D01*
X3744749Y384780D01*
X3744862Y384850D01*
X3745003Y384921D01*
X3745158Y384991D01*
X3745327Y385062D01*
X3745510Y385118D01*
X3745708Y385175D01*
X3745919Y385217D01*
X3746145Y385259D01*
X3746384Y385273D01*
X3746638Y385287D01*
X3746779D01*
X3746878Y385273D01*
D02*
G37*
G36*
X3707759Y375490D02*
X3706560D01*
Y385245D01*
X3707759D01*
Y375490D01*
D02*
G37*
G36*
X3704728Y384089D02*
X3698962D01*
Y381115D01*
X3704361D01*
Y379959D01*
X3698962D01*
Y376646D01*
X3704953D01*
Y375490D01*
X3697665D01*
Y385245D01*
X3704728D01*
Y384089D01*
D02*
G37*
G36*
X3795414Y382708D02*
X3795527Y382694D01*
X3795667Y382665D01*
X3795822Y382637D01*
X3796006Y382595D01*
X3796175Y382553D01*
X3796372Y382482D01*
X3796556Y382412D01*
X3796753Y382313D01*
X3796950Y382200D01*
X3797148Y382073D01*
X3797331Y381918D01*
X3797500Y381749D01*
X3797514Y381735D01*
X3797542Y381707D01*
X3797585Y381650D01*
X3797641Y381566D01*
X3797711Y381467D01*
X3797782Y381354D01*
X3797867Y381213D01*
X3797951Y381044D01*
X3798036Y380861D01*
X3798120Y380664D01*
X3798191Y380438D01*
X3798261Y380198D01*
X3798318Y379931D01*
X3798360Y379649D01*
X3798388Y379353D01*
X3798402Y379028D01*
Y379014D01*
Y378958D01*
Y378859D01*
X3798388Y378718D01*
X3793102D01*
Y378704D01*
Y378662D01*
X3793116Y378605D01*
Y378521D01*
X3793130Y378422D01*
X3793158Y378309D01*
X3793201Y378056D01*
X3793285Y377774D01*
X3793398Y377464D01*
X3793553Y377182D01*
X3793750Y376928D01*
X3793764D01*
X3793778Y376900D01*
X3793863Y376829D01*
X3793990Y376730D01*
X3794159Y376632D01*
X3794385Y376519D01*
X3794638Y376420D01*
X3794920Y376350D01*
X3795075Y376336D01*
X3795245Y376322D01*
X3795357D01*
X3795484Y376336D01*
X3795639Y376364D01*
X3795808Y376406D01*
X3796006Y376463D01*
X3796189Y376547D01*
X3796372Y376660D01*
X3796386Y376674D01*
X3796457Y376730D01*
X3796542Y376815D01*
X3796640Y376928D01*
X3796753Y377083D01*
X3796880Y377280D01*
X3797007Y377506D01*
X3797119Y377774D01*
X3798360Y377619D01*
Y377605D01*
X3798346Y377576D01*
X3798332Y377520D01*
X3798304Y377435D01*
X3798261Y377351D01*
X3798219Y377238D01*
X3798106Y376998D01*
X3797965Y376730D01*
X3797768Y376449D01*
X3797542Y376181D01*
X3797260Y375927D01*
X3797246D01*
X3797218Y375899D01*
X3797176Y375871D01*
X3797119Y375828D01*
X3797035Y375786D01*
X3796950Y375744D01*
X3796837Y375687D01*
X3796711Y375631D01*
X3796570Y375575D01*
X3796429Y375518D01*
X3796076Y375434D01*
X3795681Y375363D01*
X3795245Y375335D01*
X3795090D01*
X3794991Y375349D01*
X3794864Y375363D01*
X3794709Y375391D01*
X3794540Y375420D01*
X3794356Y375448D01*
X3793962Y375560D01*
X3793750Y375645D01*
X3793553Y375730D01*
X3793341Y375842D01*
X3793144Y375969D01*
X3792961Y376110D01*
X3792778Y376279D01*
X3792764Y376293D01*
X3792735Y376322D01*
X3792693Y376378D01*
X3792637Y376463D01*
X3792566Y376561D01*
X3792496Y376674D01*
X3792411Y376815D01*
X3792327Y376970D01*
X3792242Y377153D01*
X3792157Y377351D01*
X3792087Y377576D01*
X3792016Y377816D01*
X3791960Y378070D01*
X3791918Y378352D01*
X3791890Y378648D01*
X3791875Y378958D01*
Y378972D01*
Y379042D01*
Y379127D01*
X3791890Y379254D01*
X3791904Y379409D01*
X3791918Y379578D01*
X3791946Y379776D01*
X3791988Y379973D01*
X3792101Y380424D01*
X3792172Y380649D01*
X3792256Y380889D01*
X3792369Y381115D01*
X3792496Y381326D01*
X3792637Y381538D01*
X3792792Y381735D01*
X3792806Y381749D01*
X3792834Y381777D01*
X3792890Y381820D01*
X3792961Y381890D01*
X3793045Y381960D01*
X3793158Y382045D01*
X3793285Y382144D01*
X3793440Y382228D01*
X3793595Y382327D01*
X3793778Y382412D01*
X3793976Y382496D01*
X3794187Y382567D01*
X3794413Y382637D01*
X3794653Y382679D01*
X3794906Y382708D01*
X3795174Y382722D01*
X3795315D01*
X3795414Y382708D01*
D02*
G37*
G36*
X3735473Y382708D02*
X3735600Y382693D01*
X3735741Y382665D01*
X3735896Y382637D01*
X3736079Y382609D01*
X3736460Y382482D01*
X3736657Y382412D01*
X3736855Y382313D01*
X3737052Y382214D01*
X3737249Y382073D01*
X3737433Y381932D01*
X3737616Y381763D01*
X3737630Y381749D01*
X3737658Y381721D01*
X3737701Y381665D01*
X3737757Y381594D01*
X3737827Y381495D01*
X3737912Y381368D01*
X3737997Y381227D01*
X3738081Y381072D01*
X3738166Y380903D01*
X3738250Y380692D01*
X3738335Y380480D01*
X3738405Y380241D01*
X3738462Y379987D01*
X3738504Y379719D01*
X3738532Y379437D01*
X3738546Y379127D01*
Y379113D01*
Y379071D01*
Y379000D01*
Y378901D01*
X3738532Y378789D01*
X3738518Y378648D01*
Y378507D01*
X3738490Y378352D01*
X3738448Y377999D01*
X3738363Y377647D01*
X3738264Y377294D01*
X3738123Y376970D01*
Y376956D01*
X3738109Y376942D01*
X3738081Y376900D01*
X3738053Y376843D01*
X3737954Y376702D01*
X3737827Y376533D01*
X3737658Y376336D01*
X3737447Y376138D01*
X3737207Y375941D01*
X3736925Y375758D01*
X3736911D01*
X3736897Y375744D01*
X3736855Y375715D01*
X3736784Y375687D01*
X3736714Y375659D01*
X3736629Y375631D01*
X3736418Y375546D01*
X3736178Y375476D01*
X3735882Y375405D01*
X3735572Y375349D01*
X3735234Y375335D01*
X3735093D01*
X3734980Y375349D01*
X3734853Y375363D01*
X3734712Y375391D01*
X3734543Y375420D01*
X3734374Y375448D01*
X3733993Y375560D01*
X3733782Y375645D01*
X3733584Y375730D01*
X3733387Y375842D01*
X3733190Y375969D01*
X3733006Y376110D01*
X3732823Y376279D01*
X3732809Y376293D01*
X3732781Y376322D01*
X3732739Y376378D01*
X3732682Y376463D01*
X3732612Y376561D01*
X3732541Y376674D01*
X3732457Y376815D01*
X3732372Y376984D01*
X3732287Y377168D01*
X3732203Y377379D01*
X3732132Y377604D01*
X3732062Y377844D01*
X3732006Y378112D01*
X3731963Y378394D01*
X3731935Y378704D01*
X3731921Y379028D01*
Y379057D01*
Y379113D01*
X3731935Y379212D01*
Y379353D01*
X3731949Y379508D01*
X3731977Y379705D01*
X3732006Y379902D01*
X3732062Y380128D01*
X3732118Y380353D01*
X3732189Y380593D01*
X3732273Y380847D01*
X3732386Y381087D01*
X3732499Y381312D01*
X3732654Y381538D01*
X3732809Y381749D01*
X3733006Y381932D01*
X3733021Y381946D01*
X3733049Y381960D01*
X3733105Y382003D01*
X3733175Y382059D01*
X3733260Y382116D01*
X3733373Y382186D01*
X3733486Y382257D01*
X3733627Y382327D01*
X3733782Y382397D01*
X3733951Y382468D01*
X3734331Y382595D01*
X3734768Y382693D01*
X3734994Y382708D01*
X3735234Y382722D01*
X3735375D01*
X3735473Y382708D01*
D02*
G37*
G36*
X3727889D02*
X3728016Y382693D01*
X3728157Y382665D01*
X3728312Y382637D01*
X3728495Y382609D01*
X3728876Y382482D01*
X3729073Y382412D01*
X3729271Y382313D01*
X3729468Y382214D01*
X3729666Y382073D01*
X3729849Y381932D01*
X3730032Y381763D01*
X3730046Y381749D01*
X3730074Y381721D01*
X3730117Y381665D01*
X3730173Y381594D01*
X3730244Y381495D01*
X3730328Y381368D01*
X3730413Y381227D01*
X3730497Y381072D01*
X3730582Y380903D01*
X3730666Y380692D01*
X3730751Y380480D01*
X3730821Y380241D01*
X3730878Y379987D01*
X3730920Y379719D01*
X3730948Y379437D01*
X3730962Y379127D01*
Y379113D01*
Y379071D01*
Y379000D01*
Y378901D01*
X3730948Y378789D01*
X3730934Y378648D01*
Y378507D01*
X3730906Y378352D01*
X3730864Y377999D01*
X3730779Y377647D01*
X3730681Y377294D01*
X3730540Y376970D01*
Y376956D01*
X3730525Y376942D01*
X3730497Y376900D01*
X3730469Y376843D01*
X3730370Y376702D01*
X3730244Y376533D01*
X3730074Y376336D01*
X3729863Y376138D01*
X3729623Y375941D01*
X3729341Y375758D01*
X3729327D01*
X3729313Y375744D01*
X3729271Y375715D01*
X3729200Y375687D01*
X3729130Y375659D01*
X3729045Y375631D01*
X3728834Y375546D01*
X3728594Y375476D01*
X3728298Y375405D01*
X3727988Y375349D01*
X3727650Y375335D01*
X3727509D01*
X3727396Y375349D01*
X3727269Y375363D01*
X3727128Y375391D01*
X3726959Y375420D01*
X3726790Y375448D01*
X3726409Y375560D01*
X3726198Y375645D01*
X3726000Y375730D01*
X3725803Y375842D01*
X3725605Y375969D01*
X3725422Y376110D01*
X3725239Y376279D01*
X3725225Y376293D01*
X3725197Y376322D01*
X3725154Y376378D01*
X3725098Y376463D01*
X3725027Y376561D01*
X3724957Y376674D01*
X3724872Y376815D01*
X3724788Y376984D01*
X3724703Y377168D01*
X3724619Y377379D01*
X3724548Y377604D01*
X3724478Y377844D01*
X3724421Y378112D01*
X3724379Y378394D01*
X3724351Y378704D01*
X3724337Y379028D01*
Y379057D01*
Y379113D01*
X3724351Y379212D01*
Y379353D01*
X3724365Y379508D01*
X3724393Y379705D01*
X3724421Y379902D01*
X3724478Y380128D01*
X3724534Y380353D01*
X3724604Y380593D01*
X3724689Y380847D01*
X3724802Y381087D01*
X3724915Y381312D01*
X3725070Y381538D01*
X3725225Y381749D01*
X3725422Y381932D01*
X3725436Y381946D01*
X3725464Y381960D01*
X3725521Y382003D01*
X3725591Y382059D01*
X3725676Y382116D01*
X3725789Y382186D01*
X3725901Y382257D01*
X3726042Y382327D01*
X3726198Y382397D01*
X3726367Y382468D01*
X3726747Y382595D01*
X3727184Y382693D01*
X3727410Y382708D01*
X3727650Y382722D01*
X3727791D01*
X3727889Y382708D01*
D02*
G37*
G36*
X3712749D02*
X3712862Y382693D01*
X3713003Y382665D01*
X3713158Y382637D01*
X3713341Y382595D01*
X3713510Y382553D01*
X3713708Y382482D01*
X3713891Y382412D01*
X3714088Y382313D01*
X3714286Y382200D01*
X3714483Y382073D01*
X3714666Y381918D01*
X3714835Y381749D01*
X3714850Y381735D01*
X3714878Y381707D01*
X3714920Y381650D01*
X3714976Y381566D01*
X3715047Y381467D01*
X3715117Y381354D01*
X3715202Y381213D01*
X3715286Y381044D01*
X3715371Y380861D01*
X3715456Y380664D01*
X3715526Y380438D01*
X3715597Y380198D01*
X3715653Y379930D01*
X3715695Y379649D01*
X3715724Y379353D01*
X3715738Y379028D01*
Y379014D01*
Y378958D01*
Y378859D01*
X3715724Y378718D01*
X3710437D01*
Y378704D01*
Y378662D01*
X3710451Y378605D01*
Y378521D01*
X3710465Y378422D01*
X3710493Y378309D01*
X3710536Y378056D01*
X3710620Y377774D01*
X3710733Y377464D01*
X3710888Y377182D01*
X3711086Y376928D01*
X3711100D01*
X3711114Y376900D01*
X3711198Y376829D01*
X3711325Y376730D01*
X3711494Y376632D01*
X3711720Y376519D01*
X3711974Y376420D01*
X3712256Y376350D01*
X3712411Y376336D01*
X3712580Y376322D01*
X3712693D01*
X3712820Y376336D01*
X3712975Y376364D01*
X3713144Y376406D01*
X3713341Y376463D01*
X3713524Y376547D01*
X3713708Y376660D01*
X3713722Y376674D01*
X3713792Y376730D01*
X3713877Y376815D01*
X3713976Y376928D01*
X3714088Y377083D01*
X3714215Y377280D01*
X3714342Y377506D01*
X3714455Y377774D01*
X3715695Y377619D01*
Y377604D01*
X3715681Y377576D01*
X3715667Y377520D01*
X3715639Y377435D01*
X3715597Y377351D01*
X3715554Y377238D01*
X3715442Y376998D01*
X3715301Y376730D01*
X3715103Y376449D01*
X3714878Y376181D01*
X3714596Y375927D01*
X3714582D01*
X3714554Y375899D01*
X3714511Y375871D01*
X3714455Y375828D01*
X3714370Y375786D01*
X3714286Y375744D01*
X3714173Y375687D01*
X3714046Y375631D01*
X3713905Y375575D01*
X3713764Y375518D01*
X3713412Y375434D01*
X3713017Y375363D01*
X3712580Y375335D01*
X3712425D01*
X3712326Y375349D01*
X3712199Y375363D01*
X3712044Y375391D01*
X3711875Y375420D01*
X3711692Y375448D01*
X3711297Y375560D01*
X3711086Y375645D01*
X3710888Y375730D01*
X3710677Y375842D01*
X3710479Y375969D01*
X3710296Y376110D01*
X3710113Y376279D01*
X3710099Y376293D01*
X3710070Y376322D01*
X3710028Y376378D01*
X3709972Y376463D01*
X3709901Y376561D01*
X3709831Y376674D01*
X3709746Y376815D01*
X3709662Y376970D01*
X3709577Y377153D01*
X3709492Y377351D01*
X3709422Y377576D01*
X3709352Y377816D01*
X3709295Y378070D01*
X3709253Y378352D01*
X3709225Y378648D01*
X3709211Y378958D01*
Y378972D01*
Y379042D01*
Y379127D01*
X3709225Y379254D01*
X3709239Y379409D01*
X3709253Y379578D01*
X3709281Y379776D01*
X3709323Y379973D01*
X3709436Y380424D01*
X3709507Y380649D01*
X3709591Y380889D01*
X3709704Y381115D01*
X3709831Y381326D01*
X3709972Y381538D01*
X3710127Y381735D01*
X3710141Y381749D01*
X3710169Y381777D01*
X3710226Y381819D01*
X3710296Y381890D01*
X3710381Y381960D01*
X3710493Y382045D01*
X3710620Y382144D01*
X3710775Y382228D01*
X3710930Y382327D01*
X3711114Y382412D01*
X3711311Y382496D01*
X3711523Y382567D01*
X3711748Y382637D01*
X3711988Y382679D01*
X3712242Y382708D01*
X3712509Y382722D01*
X3712650D01*
X3712749Y382708D01*
D02*
G37*
G36*
X3758170Y385273D02*
X3758282Y385259D01*
X3758409Y385245D01*
X3758550Y385231D01*
X3758691Y385189D01*
X3759030Y385104D01*
X3759368Y384977D01*
X3759537Y384893D01*
X3759706Y384794D01*
X3759861Y384667D01*
X3760016Y384540D01*
X3760030Y384526D01*
X3760044Y384512D01*
X3760087Y384470D01*
X3760143Y384413D01*
X3760200Y384329D01*
X3760270Y384244D01*
X3760411Y384033D01*
X3760552Y383765D01*
X3760679Y383455D01*
X3760778Y383102D01*
X3760792Y382919D01*
X3760806Y382722D01*
Y382708D01*
Y382693D01*
Y382609D01*
X3760792Y382482D01*
X3760764Y382327D01*
X3760721Y382130D01*
X3760651Y381932D01*
X3760566Y381735D01*
X3760439Y381538D01*
X3760425Y381509D01*
X3760369Y381453D01*
X3760284Y381368D01*
X3760171Y381256D01*
X3760016Y381129D01*
X3759833Y381002D01*
X3759622Y380875D01*
X3759368Y380762D01*
X3759382D01*
X3759410Y380748D01*
X3759452Y380734D01*
X3759509Y380706D01*
X3759678Y380635D01*
X3759875Y380537D01*
X3760087Y380396D01*
X3760312Y380241D01*
X3760524Y380043D01*
X3760721Y379818D01*
Y379804D01*
X3760735Y379790D01*
X3760792Y379705D01*
X3760876Y379564D01*
X3760961Y379381D01*
X3761045Y379155D01*
X3761130Y378887D01*
X3761186Y378591D01*
X3761200Y378267D01*
Y378253D01*
Y378211D01*
Y378140D01*
X3761186Y378056D01*
X3761172Y377957D01*
X3761158Y377830D01*
X3761130Y377689D01*
X3761088Y377534D01*
X3760989Y377210D01*
X3760918Y377027D01*
X3760820Y376857D01*
X3760721Y376674D01*
X3760608Y376505D01*
X3760467Y376336D01*
X3760312Y376167D01*
X3760298Y376152D01*
X3760270Y376124D01*
X3760228Y376082D01*
X3760157Y376040D01*
X3760059Y375969D01*
X3759960Y375899D01*
X3759833Y375828D01*
X3759692Y375744D01*
X3759537Y375659D01*
X3759354Y375589D01*
X3759156Y375518D01*
X3758959Y375448D01*
X3758734Y375405D01*
X3758494Y375363D01*
X3758254Y375335D01*
X3757986Y375321D01*
X3757845D01*
X3757747Y375335D01*
X3757620Y375349D01*
X3757479Y375363D01*
X3757324Y375391D01*
X3757155Y375434D01*
X3756774Y375532D01*
X3756577Y375603D01*
X3756393Y375673D01*
X3756196Y375772D01*
X3755999Y375885D01*
X3755815Y376012D01*
X3755646Y376167D01*
X3755632Y376181D01*
X3755604Y376209D01*
X3755562Y376251D01*
X3755505Y376322D01*
X3755449Y376406D01*
X3755364Y376505D01*
X3755294Y376618D01*
X3755209Y376759D01*
X3755125Y376900D01*
X3755054Y377069D01*
X3754913Y377421D01*
X3754857Y377633D01*
X3754814Y377844D01*
X3754786Y378070D01*
X3754772Y378295D01*
Y378309D01*
Y378338D01*
Y378394D01*
X3754786Y378450D01*
Y378535D01*
X3754800Y378634D01*
X3754828Y378859D01*
X3754885Y379113D01*
X3754969Y379367D01*
X3755096Y379635D01*
X3755251Y379888D01*
Y379902D01*
X3755280Y379916D01*
X3755336Y379987D01*
X3755449Y380100D01*
X3755604Y380241D01*
X3755801Y380382D01*
X3756041Y380537D01*
X3756309Y380664D01*
X3756633Y380762D01*
X3756619D01*
X3756605Y380776D01*
X3756562Y380790D01*
X3756506Y380819D01*
X3756379Y380875D01*
X3756210Y380960D01*
X3756027Y381072D01*
X3755844Y381213D01*
X3755674Y381368D01*
X3755519Y381538D01*
X3755505Y381566D01*
X3755463Y381622D01*
X3755406Y381735D01*
X3755350Y381876D01*
X3755280Y382059D01*
X3755223Y382271D01*
X3755181Y382510D01*
X3755167Y382764D01*
Y382778D01*
Y382806D01*
Y382863D01*
X3755181Y382947D01*
X3755195Y383032D01*
X3755209Y383145D01*
X3755266Y383384D01*
X3755350Y383666D01*
X3755491Y383962D01*
X3755576Y384117D01*
X3755674Y384272D01*
X3755801Y384413D01*
X3755928Y384554D01*
X3755942Y384568D01*
X3755970Y384582D01*
X3756013Y384625D01*
X3756069Y384667D01*
X3756140Y384724D01*
X3756238Y384780D01*
X3756351Y384850D01*
X3756464Y384921D01*
X3756605Y384991D01*
X3756760Y385062D01*
X3756929Y385118D01*
X3757112Y385175D01*
X3757507Y385259D01*
X3757733Y385273D01*
X3757958Y385287D01*
X3758085D01*
X3758170Y385273D01*
D02*
G37*
G36*
X3720009Y382708D02*
X3720108Y382693D01*
X3720234Y382665D01*
X3720375Y382637D01*
X3720530Y382595D01*
X3720686Y382538D01*
X3720855Y382468D01*
X3721024Y382383D01*
X3721207Y382285D01*
X3721376Y382172D01*
X3721545Y382031D01*
X3721715Y381876D01*
X3721870Y381693D01*
Y382567D01*
X3722969D01*
Y376449D01*
Y376435D01*
Y376378D01*
Y376293D01*
Y376181D01*
X3722955Y376054D01*
Y375899D01*
X3722941Y375730D01*
X3722927Y375546D01*
X3722885Y375166D01*
X3722828Y374771D01*
X3722786Y374588D01*
X3722744Y374419D01*
X3722687Y374263D01*
X3722631Y374123D01*
Y374109D01*
X3722617Y374094D01*
X3722560Y374010D01*
X3722490Y373883D01*
X3722377Y373728D01*
X3722222Y373559D01*
X3722039Y373375D01*
X3721813Y373192D01*
X3721559Y373037D01*
X3721545D01*
X3721531Y373023D01*
X3721489Y372995D01*
X3721433Y372981D01*
X3721362Y372938D01*
X3721278Y372910D01*
X3721066Y372840D01*
X3720812Y372755D01*
X3720502Y372699D01*
X3720150Y372642D01*
X3719769Y372628D01*
X3719642D01*
X3719558Y372642D01*
X3719445D01*
X3719332Y372657D01*
X3719191Y372671D01*
X3719036Y372699D01*
X3718712Y372769D01*
X3718374Y372868D01*
X3718035Y373009D01*
X3717725Y373206D01*
X3717711Y373220D01*
X3717697Y373234D01*
X3717598Y373319D01*
X3717486Y373446D01*
X3717345Y373629D01*
X3717204Y373869D01*
X3717077Y374165D01*
X3717035Y374334D01*
X3717006Y374517D01*
X3716978Y374701D01*
Y374912D01*
X3718148Y374757D01*
Y374729D01*
X3718162Y374672D01*
X3718190Y374574D01*
X3718219Y374447D01*
X3718275Y374320D01*
X3718346Y374193D01*
X3718430Y374066D01*
X3718543Y373968D01*
X3718571Y373953D01*
X3718627Y373911D01*
X3718726Y373855D01*
X3718867Y373798D01*
X3719036Y373728D01*
X3719248Y373671D01*
X3719502Y373629D01*
X3719769Y373615D01*
X3719910D01*
X3720051Y373629D01*
X3720249Y373657D01*
X3720446Y373700D01*
X3720657Y373756D01*
X3720869Y373841D01*
X3721052Y373953D01*
X3721066Y373968D01*
X3721123Y374010D01*
X3721207Y374094D01*
X3721306Y374193D01*
X3721404Y374334D01*
X3721503Y374489D01*
X3721602Y374672D01*
X3721672Y374884D01*
Y374898D01*
X3721686Y374954D01*
X3721701Y375067D01*
X3721715Y375208D01*
X3721729Y375307D01*
Y375420D01*
X3721743Y375546D01*
Y375687D01*
Y375842D01*
X3721757Y376026D01*
Y376209D01*
Y376420D01*
X3721743Y376406D01*
X3721715Y376378D01*
X3721672Y376336D01*
X3721616Y376279D01*
X3721545Y376209D01*
X3721447Y376124D01*
X3721334Y376040D01*
X3721221Y375955D01*
X3720925Y375786D01*
X3720601Y375631D01*
X3720418Y375575D01*
X3720220Y375532D01*
X3720009Y375504D01*
X3719797Y375490D01*
X3719727D01*
X3719656Y375504D01*
X3719558D01*
X3719431Y375518D01*
X3719290Y375546D01*
X3719135Y375575D01*
X3718966Y375617D01*
X3718782Y375673D01*
X3718599Y375744D01*
X3718416Y375828D01*
X3718219Y375927D01*
X3718035Y376054D01*
X3717852Y376195D01*
X3717683Y376350D01*
X3717528Y376533D01*
X3717514Y376547D01*
X3717500Y376575D01*
X3717457Y376646D01*
X3717401Y376716D01*
X3717345Y376829D01*
X3717274Y376942D01*
X3717204Y377083D01*
X3717133Y377252D01*
X3717063Y377421D01*
X3716992Y377619D01*
X3716922Y377816D01*
X3716865Y378041D01*
X3716767Y378521D01*
X3716753Y378789D01*
X3716738Y379057D01*
Y379071D01*
Y379099D01*
Y379155D01*
Y379226D01*
X3716753Y379324D01*
Y379423D01*
X3716781Y379677D01*
X3716823Y379959D01*
X3716894Y380269D01*
X3716978Y380593D01*
X3717105Y380917D01*
Y380931D01*
X3717119Y380960D01*
X3717147Y381002D01*
X3717175Y381058D01*
X3717260Y381213D01*
X3717373Y381411D01*
X3717528Y381622D01*
X3717711Y381834D01*
X3717923Y382059D01*
X3718162Y382242D01*
X3718176D01*
X3718190Y382257D01*
X3718233Y382285D01*
X3718289Y382313D01*
X3718430Y382397D01*
X3718627Y382482D01*
X3718867Y382567D01*
X3719149Y382651D01*
X3719459Y382708D01*
X3719797Y382722D01*
X3719924D01*
X3720009Y382708D01*
D02*
G37*
%LPC*%
G36*
X3795188Y381735D02*
X3795104D01*
X3795047Y381721D01*
X3794892Y381707D01*
X3794709Y381665D01*
X3794483Y381594D01*
X3794244Y381495D01*
X3794018Y381354D01*
X3793793Y381171D01*
X3793764Y381143D01*
X3793708Y381072D01*
X3793609Y380946D01*
X3793511Y380776D01*
X3793398Y380579D01*
X3793299Y380325D01*
X3793215Y380029D01*
X3793172Y379705D01*
X3797133D01*
Y379719D01*
Y379747D01*
X3797119Y379790D01*
Y379846D01*
X3797091Y380015D01*
X3797049Y380198D01*
X3796978Y380424D01*
X3796908Y380635D01*
X3796795Y380847D01*
X3796668Y381030D01*
Y381044D01*
X3796640Y381058D01*
X3796570Y381143D01*
X3796443Y381256D01*
X3796274Y381382D01*
X3796062Y381509D01*
X3795808Y381622D01*
X3795512Y381707D01*
X3795357Y381721D01*
X3795188Y381735D01*
D02*
G37*
G36*
X3735234Y381735D02*
X3735149D01*
X3735079Y381721D01*
X3734924Y381707D01*
X3734712Y381650D01*
X3734472Y381566D01*
X3734219Y381453D01*
X3733979Y381284D01*
X3733852Y381171D01*
X3733739Y381058D01*
Y381044D01*
X3733711Y381030D01*
X3733683Y380988D01*
X3733641Y380931D01*
X3733599Y380861D01*
X3733556Y380776D01*
X3733500Y380664D01*
X3733443Y380551D01*
X3733387Y380410D01*
X3733331Y380269D01*
X3733288Y380100D01*
X3733246Y379916D01*
X3733204Y379719D01*
X3733175Y379508D01*
X3733161Y379268D01*
X3733147Y379028D01*
Y379014D01*
Y378972D01*
Y378901D01*
X3733161Y378803D01*
Y378690D01*
X3733175Y378563D01*
X3733218Y378267D01*
X3733288Y377929D01*
X3733401Y377590D01*
X3733542Y377266D01*
X3733641Y377125D01*
X3733739Y376984D01*
X3733753D01*
X3733768Y376956D01*
X3733852Y376886D01*
X3733979Y376773D01*
X3734148Y376660D01*
X3734360Y376533D01*
X3734613Y376420D01*
X3734909Y376350D01*
X3735064Y376336D01*
X3735234Y376322D01*
X3735318D01*
X3735389Y376336D01*
X3735544Y376364D01*
X3735755Y376406D01*
X3735981Y376491D01*
X3736235Y376604D01*
X3736474Y376773D01*
X3736601Y376886D01*
X3736714Y376998D01*
X3736728Y377012D01*
X3736742Y377027D01*
X3736770Y377069D01*
X3736813Y377125D01*
X3736855Y377196D01*
X3736911Y377280D01*
X3736967Y377393D01*
X3737024Y377506D01*
X3737080Y377647D01*
X3737123Y377802D01*
X3737179Y377971D01*
X3737221Y378154D01*
X3737264Y378366D01*
X3737292Y378577D01*
X3737320Y378817D01*
Y379071D01*
Y379085D01*
Y379127D01*
Y379198D01*
X3737306Y379282D01*
Y379395D01*
X3737292Y379522D01*
X3737249Y379818D01*
X3737179Y380128D01*
X3737066Y380466D01*
X3736911Y380776D01*
X3736827Y380931D01*
X3736714Y381058D01*
Y381072D01*
X3736686Y381087D01*
X3736601Y381171D01*
X3736474Y381270D01*
X3736305Y381397D01*
X3736094Y381524D01*
X3735840Y381636D01*
X3735558Y381707D01*
X3735403Y381721D01*
X3735234Y381735D01*
D02*
G37*
G36*
X3727650D02*
X3727565D01*
X3727495Y381721D01*
X3727339Y381707D01*
X3727128Y381650D01*
X3726888Y381566D01*
X3726635Y381453D01*
X3726395Y381284D01*
X3726268Y381171D01*
X3726155Y381058D01*
Y381044D01*
X3726127Y381030D01*
X3726099Y380988D01*
X3726057Y380931D01*
X3726014Y380861D01*
X3725972Y380776D01*
X3725916Y380664D01*
X3725859Y380551D01*
X3725803Y380410D01*
X3725746Y380269D01*
X3725704Y380100D01*
X3725662Y379916D01*
X3725620Y379719D01*
X3725591Y379508D01*
X3725577Y379268D01*
X3725563Y379028D01*
Y379014D01*
Y378972D01*
Y378901D01*
X3725577Y378803D01*
Y378690D01*
X3725591Y378563D01*
X3725634Y378267D01*
X3725704Y377929D01*
X3725817Y377590D01*
X3725958Y377266D01*
X3726057Y377125D01*
X3726155Y376984D01*
X3726169D01*
X3726183Y376956D01*
X3726268Y376886D01*
X3726395Y376773D01*
X3726564Y376660D01*
X3726776Y376533D01*
X3727029Y376420D01*
X3727325Y376350D01*
X3727480Y376336D01*
X3727650Y376322D01*
X3727734D01*
X3727805Y376336D01*
X3727960Y376364D01*
X3728171Y376406D01*
X3728397Y376491D01*
X3728651Y376604D01*
X3728890Y376773D01*
X3729017Y376886D01*
X3729130Y376998D01*
X3729144Y377012D01*
X3729158Y377027D01*
X3729186Y377069D01*
X3729229Y377125D01*
X3729271Y377196D01*
X3729327Y377280D01*
X3729384Y377393D01*
X3729440Y377506D01*
X3729496Y377647D01*
X3729539Y377802D01*
X3729595Y377971D01*
X3729637Y378154D01*
X3729680Y378366D01*
X3729708Y378577D01*
X3729736Y378817D01*
Y379071D01*
Y379085D01*
Y379127D01*
Y379198D01*
X3729722Y379282D01*
Y379395D01*
X3729708Y379522D01*
X3729666Y379818D01*
X3729595Y380128D01*
X3729482Y380466D01*
X3729327Y380776D01*
X3729243Y380931D01*
X3729130Y381058D01*
Y381072D01*
X3729102Y381087D01*
X3729017Y381171D01*
X3728890Y381270D01*
X3728721Y381397D01*
X3728510Y381524D01*
X3728256Y381636D01*
X3727974Y381707D01*
X3727819Y381721D01*
X3727650Y381735D01*
D02*
G37*
G36*
X3712523D02*
X3712439D01*
X3712383Y381721D01*
X3712227Y381707D01*
X3712044Y381665D01*
X3711819Y381594D01*
X3711579Y381495D01*
X3711353Y381354D01*
X3711128Y381171D01*
X3711100Y381143D01*
X3711043Y381072D01*
X3710945Y380946D01*
X3710846Y380776D01*
X3710733Y380579D01*
X3710634Y380325D01*
X3710550Y380029D01*
X3710508Y379705D01*
X3714469D01*
Y379719D01*
Y379747D01*
X3714455Y379790D01*
Y379846D01*
X3714427Y380015D01*
X3714384Y380198D01*
X3714314Y380424D01*
X3714243Y380635D01*
X3714131Y380847D01*
X3714004Y381030D01*
Y381044D01*
X3713976Y381058D01*
X3713905Y381143D01*
X3713778Y381256D01*
X3713609Y381382D01*
X3713398Y381509D01*
X3713144Y381622D01*
X3712848Y381707D01*
X3712693Y381721D01*
X3712523Y381735D01*
D02*
G37*
G36*
X3757986Y384301D02*
X3757874D01*
X3757747Y384272D01*
X3757578Y384244D01*
X3757394Y384188D01*
X3757197Y384117D01*
X3757014Y384005D01*
X3756830Y383849D01*
X3756816Y383835D01*
X3756760Y383779D01*
X3756689Y383680D01*
X3756619Y383554D01*
X3756534Y383398D01*
X3756464Y383215D01*
X3756407Y383018D01*
X3756393Y382792D01*
Y382778D01*
Y382764D01*
X3756407Y382679D01*
X3756422Y382553D01*
X3756450Y382397D01*
X3756506Y382214D01*
X3756577Y382031D01*
X3756689Y381834D01*
X3756830Y381665D01*
X3756844Y381650D01*
X3756915Y381594D01*
X3757014Y381524D01*
X3757141Y381453D01*
X3757310Y381368D01*
X3757507Y381298D01*
X3757733Y381242D01*
X3757986Y381227D01*
X3758015D01*
X3758099Y381242D01*
X3758226Y381256D01*
X3758395Y381284D01*
X3758578Y381340D01*
X3758762Y381411D01*
X3758959Y381524D01*
X3759128Y381665D01*
X3759142Y381679D01*
X3759199Y381749D01*
X3759269Y381834D01*
X3759354Y381960D01*
X3759438Y382116D01*
X3759509Y382299D01*
X3759565Y382510D01*
X3759579Y382736D01*
Y382750D01*
Y382764D01*
Y382849D01*
X3759551Y382976D01*
X3759523Y383131D01*
X3759466Y383300D01*
X3759382Y383483D01*
X3759269Y383666D01*
X3759114Y383849D01*
X3759100Y383864D01*
X3759030Y383920D01*
X3758931Y383991D01*
X3758804Y384075D01*
X3758635Y384160D01*
X3758452Y384230D01*
X3758226Y384286D01*
X3757986Y384301D01*
D02*
G37*
G36*
X3757944Y380255D02*
X3757859D01*
X3757803Y380241D01*
X3757648Y380227D01*
X3757451Y380184D01*
X3757225Y380114D01*
X3757000Y380015D01*
X3756760Y379874D01*
X3756548Y379691D01*
X3756520Y379663D01*
X3756464Y379592D01*
X3756379Y379465D01*
X3756281Y379310D01*
X3756168Y379099D01*
X3756083Y378859D01*
X3756027Y378591D01*
X3755999Y378295D01*
Y378267D01*
Y378211D01*
X3756013Y378112D01*
X3756027Y377985D01*
X3756055Y377830D01*
X3756097Y377661D01*
X3756154Y377492D01*
X3756224Y377309D01*
X3756238Y377294D01*
X3756266Y377224D01*
X3756323Y377139D01*
X3756407Y377041D01*
X3756506Y376914D01*
X3756633Y376787D01*
X3756774Y376674D01*
X3756943Y376561D01*
X3756971Y376547D01*
X3757028Y376519D01*
X3757126Y376477D01*
X3757253Y376435D01*
X3757408Y376392D01*
X3757592Y376350D01*
X3757789Y376322D01*
X3757986Y376308D01*
X3758071D01*
X3758127Y376322D01*
X3758297Y376336D01*
X3758494Y376378D01*
X3758719Y376449D01*
X3758959Y376533D01*
X3759185Y376674D01*
X3759410Y376857D01*
X3759438Y376886D01*
X3759495Y376956D01*
X3759593Y377083D01*
X3759692Y377238D01*
X3759791Y377435D01*
X3759890Y377675D01*
X3759946Y377957D01*
X3759974Y378253D01*
Y378267D01*
Y378295D01*
Y378338D01*
X3759960Y378394D01*
X3759946Y378549D01*
X3759904Y378760D01*
X3759833Y378972D01*
X3759734Y379212D01*
X3759593Y379451D01*
X3759396Y379677D01*
X3759368Y379705D01*
X3759297Y379761D01*
X3759171Y379860D01*
X3759001Y379973D01*
X3758790Y380071D01*
X3758536Y380170D01*
X3758254Y380227D01*
X3757944Y380255D01*
D02*
G37*
G36*
X3720037Y381735D02*
X3719812D01*
X3719755Y381721D01*
X3719600Y381707D01*
X3719417Y381650D01*
X3719191Y381580D01*
X3718966Y381453D01*
X3718740Y381298D01*
X3718627Y381185D01*
X3718515Y381072D01*
Y381058D01*
X3718487Y381044D01*
X3718458Y381002D01*
X3718430Y380946D01*
X3718388Y380889D01*
X3718346Y380804D01*
X3718289Y380706D01*
X3718247Y380593D01*
X3718190Y380466D01*
X3718134Y380311D01*
X3718092Y380156D01*
X3718050Y379987D01*
X3718021Y379790D01*
X3717993Y379592D01*
X3717965Y379381D01*
Y379141D01*
Y379127D01*
Y379085D01*
Y379014D01*
X3717979Y378915D01*
Y378803D01*
X3717993Y378662D01*
X3718035Y378366D01*
X3718106Y378027D01*
X3718190Y377703D01*
X3718331Y377379D01*
X3718416Y377238D01*
X3718515Y377111D01*
X3718543Y377083D01*
X3718613Y377012D01*
X3718726Y376914D01*
X3718895Y376801D01*
X3719093Y376674D01*
X3719332Y376575D01*
X3719600Y376505D01*
X3719741Y376491D01*
X3719896Y376477D01*
X3719981D01*
X3720037Y376491D01*
X3720192Y376505D01*
X3720390Y376561D01*
X3720601Y376632D01*
X3720841Y376745D01*
X3721066Y376900D01*
X3721179Y376998D01*
X3721292Y377111D01*
Y377125D01*
X3721320Y377139D01*
X3721348Y377182D01*
X3721376Y377238D01*
X3721418Y377294D01*
X3721475Y377379D01*
X3721517Y377478D01*
X3721574Y377604D01*
X3721630Y377731D01*
X3721672Y377872D01*
X3721729Y378041D01*
X3721771Y378225D01*
X3721799Y378408D01*
X3721827Y378619D01*
X3721855Y378859D01*
Y379099D01*
Y379113D01*
Y379155D01*
Y379226D01*
X3721842Y379310D01*
Y379423D01*
X3721827Y379550D01*
X3721785Y379832D01*
X3721715Y380156D01*
X3721616Y380480D01*
X3721475Y380804D01*
X3721376Y380946D01*
X3721278Y381072D01*
Y381087D01*
X3721249Y381101D01*
X3721179Y381171D01*
X3721052Y381284D01*
X3720883Y381411D01*
X3720686Y381524D01*
X3720446Y381636D01*
X3720178Y381707D01*
X3720037Y381735D01*
D02*
G37*
%LPD*%
D10*
X3678380Y1820580D02*
G03*
X3661380Y1837580I-17000J0D01*
G01*
X3658380Y1347580D02*
G03*
X3678380Y1367580I0J20000D01*
G01*
X3418380Y1368580D02*
G03*
X3439380Y1347580I21000J0D01*
G01*
X3438380Y1837580D02*
G03*
X3418380Y1817580I0J-20000D01*
G01*
X2839746Y1489921D02*
G03*
X2859746Y1469921I20000J0D01*
G01*
X3074746D02*
G03*
X3094746Y1489921I0J20000D01*
G01*
X2859746Y1788920D02*
G03*
X2839746Y1767921I500J-20500D01*
G01*
X3094746Y1768920D02*
G03*
X3074746Y1788920I-20000J0D01*
G01*
X2574735Y342800D02*
G03*
X2574735Y342800I-1000J0D01*
G01*
X2202530Y750860D02*
G03*
X2202530Y750860I-1000J0D01*
G01*
Y649260D02*
G03*
X2202530Y649260I-1000J0D01*
G01*
Y548930D02*
G03*
X2202530Y548930I-1000J0D01*
G01*
Y446060D02*
G03*
X2202530Y446060I-1000J0D01*
G01*
Y347000D02*
G03*
X2202530Y347000I-1000J0D01*
G01*
X2394540Y750470D02*
G03*
X2394540Y750470I-1000J0D01*
G01*
Y648870D02*
G03*
X2394540Y648870I-1000J0D01*
G01*
Y548540D02*
G03*
X2394540Y548540I-1000J0D01*
G01*
Y445670D02*
G03*
X2394540Y445670I-1000J0D01*
G01*
Y341530D02*
G03*
X2394540Y341530I-1000J0D01*
G01*
X2574735Y750470D02*
G03*
X2574735Y750470I-1000J0D01*
G01*
Y648870D02*
G03*
X2574735Y648870I-1000J0D01*
G01*
Y548540D02*
G03*
X2574735Y548540I-1000J0D01*
G01*
Y445670D02*
G03*
X2574735Y445670I-1000J0D01*
G01*
X2747610Y548540D02*
G03*
X2747610Y548540I-1000J0D01*
G01*
Y445670D02*
G03*
X2747610Y445670I-1000J0D01*
G01*
Y345340D02*
G03*
X2747610Y345340I-1000J0D01*
G01*
Y750470D02*
G03*
X2747610Y750470I-1000J0D01*
G01*
Y648870D02*
G03*
X2747610Y648870I-1000J0D01*
G01*
X3976735Y1297940D02*
Y1333500D01*
X4021735Y1297540D02*
Y1332860D01*
X4000500Y1348740D02*
X4005580D01*
X3992880D02*
X4000500D01*
X3992880Y1282700D02*
X4000500D01*
X4005580D01*
X4000500Y1168400D02*
X4005580D01*
X3992880D02*
X4000500D01*
X3992880Y1234440D02*
X4000500D01*
X4005580D01*
X4021735Y1183640D02*
Y1218960D01*
X3976735Y1183640D02*
Y1219200D01*
X3678380Y1367580D02*
Y1819580D01*
X3438380Y1837580D02*
X3660380D01*
X3439380Y1347580D02*
X3658380D01*
X3418380Y1368580D02*
Y1817580D01*
X2862822Y1499881D02*
X3071160D01*
X2862730Y1471171D02*
Y1499789D01*
X3071160Y1470175D02*
Y1499881D01*
X2839746Y1489921D02*
Y1767921D01*
X2859746Y1469921D02*
X3074746D01*
X3094746Y1489921D02*
Y1768920D01*
X2860746Y1788920D02*
X3074746D01*
X3773800Y1180640D02*
Y1257640D01*
Y1335640D01*
Y1180640D02*
X3861800D01*
X3773800Y1335640D02*
X3860800D01*
X3861800Y1180640D02*
X3916800D01*
Y1335640D01*
X3860800D02*
X3916800D01*
X2410864Y1735016D02*
Y1838394D01*
Y1735016D02*
X2520084D01*
X2410864Y1838394D02*
X2520084D01*
Y1735016D02*
Y1838394D01*
X2273704Y1735016D02*
Y1838394D01*
Y1735016D02*
X2382924D01*
X2273704Y1838394D02*
X2382924D01*
Y1735016D02*
Y1838394D01*
X2135401Y1735016D02*
Y1838394D01*
Y1735016D02*
X2244621D01*
X2135401Y1838394D02*
X2244621D01*
Y1735016D02*
Y1838394D01*
X1868006Y870966D02*
X1971384D01*
Y1386332D01*
X1868006Y870966D02*
Y1386332D01*
X1971384D01*
X1868006Y329946D02*
X1971384D01*
Y845312D01*
X1868006Y329946D02*
Y845312D01*
X1971384D01*
X2471235Y347300D02*
Y402300D01*
X2576235D01*
X2471235Y347300D02*
X2576235D01*
Y402300D01*
X2022310Y1062780D02*
Y1287780D01*
Y1312780D01*
X2122310Y1287780D02*
Y1312780D01*
X2022310D02*
X2122310D01*
Y1062780D02*
Y1287780D01*
X2022310Y1037780D02*
Y1062780D01*
X2122310Y1037780D02*
Y1062780D01*
X2022310Y1037780D02*
X2122310D01*
X2601405Y1480820D02*
Y1638300D01*
X2791405D01*
Y1480820D02*
Y1638300D01*
X2601405Y1480820D02*
X2791405D01*
X2601405Y1132600D02*
Y1290080D01*
X2791405D01*
Y1132600D02*
Y1290080D01*
X2601405Y1132600D02*
X2791405D01*
X2099030Y755360D02*
Y810360D01*
X2204030D01*
X2099030Y755360D02*
X2204030D01*
Y810360D01*
X2099030Y653760D02*
Y708760D01*
X2204030D01*
X2099030Y653760D02*
X2204030D01*
Y708760D01*
X2099030Y553430D02*
Y608430D01*
X2204030D01*
X2099030Y553430D02*
X2204030D01*
Y608430D01*
X2099030Y450560D02*
Y505560D01*
X2204030D01*
X2099030Y450560D02*
X2204030D01*
Y505560D01*
X2099030Y351500D02*
Y406500D01*
X2204030D01*
X2099030Y351500D02*
X2204030D01*
Y406500D01*
X2291040Y754970D02*
Y809970D01*
X2396040D01*
X2291040Y754970D02*
X2396040D01*
Y809970D01*
X2291040Y653370D02*
Y708370D01*
X2396040D01*
X2291040Y653370D02*
X2396040D01*
Y708370D01*
X2291040Y553040D02*
Y608040D01*
X2396040D01*
X2291040Y553040D02*
X2396040D01*
Y608040D01*
X2291040Y450170D02*
Y505170D01*
X2396040D01*
X2291040Y450170D02*
X2396040D01*
Y505170D01*
X2291040Y346030D02*
Y401030D01*
X2396040D01*
X2291040Y346030D02*
X2396040D01*
Y401030D01*
X2471235Y754970D02*
Y809970D01*
X2576235D01*
X2471235Y754970D02*
X2576235D01*
Y809970D01*
X2471235Y653370D02*
Y708370D01*
X2576235D01*
X2471235Y653370D02*
X2576235D01*
Y708370D01*
X2471235Y553040D02*
Y608040D01*
X2576235D01*
X2471235Y553040D02*
X2576235D01*
Y608040D01*
X2471235Y450170D02*
Y505170D01*
X2576235D01*
X2471235Y450170D02*
X2576235D01*
Y505170D01*
X2644110Y553040D02*
Y608040D01*
X2749110D01*
X2644110Y553040D02*
X2749110D01*
Y608040D01*
X2644110Y450170D02*
Y505170D01*
X2749110D01*
X2644110Y450170D02*
X2749110D01*
Y505170D01*
X2644110Y349840D02*
Y404840D01*
X2749110D01*
X2644110Y349840D02*
X2749110D01*
Y404840D01*
X2644110Y754970D02*
Y809970D01*
X2749110D01*
X2644110Y754970D02*
X2749110D01*
Y809970D01*
X2644110Y653370D02*
Y708370D01*
X2749110D01*
X2644110Y653370D02*
X2749110D01*
Y708370D01*
D11*
X2443620Y1183640D02*
G03*
X2443620Y1183640I-150000J0D01*
G01*
X2579608Y1097807D02*
Y1204223D01*
X2549128Y1097807D02*
X2579608D01*
X2549128D02*
Y1204223D01*
X2579608D01*
X2044920Y888060D02*
Y988060D01*
X2533490D01*
X2044920Y888060D02*
X2533490D01*
Y988060D01*
X2557620D01*
Y888238D02*
Y988060D01*
X2532220Y887984D02*
X2557620D01*
X3143440Y1838648D02*
X3363440D01*
Y1454129D02*
Y1838648D01*
X3143440Y1454129D02*
X3363440D01*
X3143440D02*
Y1838648D01*
X3515360Y993900D02*
X3540760D01*
Y790700D02*
Y993900D01*
X3515360Y790700D02*
X3540760D01*
X3515360D02*
Y993900D01*
Y774700D02*
X3540760D01*
Y571500D02*
Y774700D01*
X3515360Y571500D02*
X3540760D01*
X3515360D02*
Y774700D01*
X3503960Y1117900D02*
X4030960D01*
X3503960Y335700D02*
Y1117900D01*
X4030960Y335700D02*
Y1117900D01*
X3503960Y335700D02*
X4030960D01*
X3998560Y661300D02*
Y813700D01*
Y661300D02*
X4023960D01*
Y813700D01*
X3998560D02*
X4023960D01*
X3998560Y839500D02*
Y991900D01*
Y839500D02*
X4023960D01*
Y991900D01*
X3998560D02*
X4023960D01*
X3712016Y1560520D02*
Y1700680D01*
X3920296Y1560520D02*
Y1700680D01*
X3712016Y1700680D02*
X3920296Y1700680D01*
X3712016Y1560520D02*
X3920296Y1560520D01*
X3712016Y1403040D02*
Y1543200D01*
X3920296Y1403040D02*
Y1543200D01*
X3712016Y1543200D02*
X3920296Y1543200D01*
X3712016Y1403040D02*
X3920296Y1403040D01*
X2561459Y1838960D02*
X2774460D01*
Y1699580D02*
Y1838960D01*
X2561459Y1699580D02*
Y1838960D01*
Y1699580D02*
X2774460D01*
X2204720Y1173640D02*
Y1193640D01*
X2194720Y1183640D02*
X2214720D01*
X1970095Y1677162D02*
Y1738376D01*
X1869295Y1677162D02*
X1970095D01*
X1869295D02*
Y1738376D01*
X1970095D01*
Y1499362D02*
Y1560576D01*
X1869295Y1499362D02*
X1970095D01*
X1869295D02*
Y1560576D01*
X1970095D01*
Y1413002D02*
Y1474216D01*
X1869295Y1413002D02*
X1970095D01*
X1869295D02*
Y1474216D01*
X1970095D01*
Y1588262D02*
Y1649476D01*
X1869295Y1588262D02*
X1970095D01*
X1869295D02*
Y1649476D01*
X1970095D01*
X2687320Y1350673D02*
X2717800D01*
Y1457090D01*
X2687320D02*
X2717800D01*
X2687320Y1350673D02*
Y1457090D01*
X3348835Y1003300D02*
X3374235D01*
X3348835D02*
Y1206500D01*
X3374235D01*
Y1003300D02*
Y1206500D01*
Y774700D02*
Y977900D01*
X3348835D02*
X3374235D01*
X3348835Y774700D02*
Y977900D01*
Y774700D02*
X3374235D01*
Y507760D02*
Y762000D01*
X3348835D02*
X3374235D01*
X3348835Y507760D02*
Y762000D01*
Y507760D02*
X3374235D01*
X2917035Y1257300D02*
Y1308100D01*
X3374235Y1257300D02*
Y1308100D01*
X2917035Y1257300D02*
X3374235D01*
X2917035Y1308100D02*
X3374235D01*
X2853535Y339090D02*
Y1360170D01*
X3386935Y1360170D01*
X2866545Y799860D02*
X2891945D01*
Y597930D02*
Y799860D01*
X2866545Y597930D02*
Y799860D01*
X2891945Y1053860D02*
Y1257060D01*
X2917345D02*
X2942745D01*
X2866545Y1053860D02*
Y1257060D01*
Y1053860D02*
X2891945D01*
Y825260D02*
Y1028460D01*
X2866545D02*
X2891945D01*
X2866545Y825260D02*
Y1028460D01*
Y825260D02*
X2891945D01*
X2866545Y1257060D02*
X2891945D01*
X3386935Y339090D02*
Y1360170D01*
X2853535Y339090D02*
X3386935Y339090D01*
X2866545Y597930D02*
X2891945D01*
X2022056Y1392940D02*
Y1663700D01*
X2546345D01*
X2022056Y1392940D02*
X2546345D01*
Y1663700D01*
X2622380Y1083480D02*
X2818380D01*
Y887730D02*
Y1083230D01*
X2645580Y887480D02*
X2818380D01*
X2622380Y910680D02*
X2645580Y887480D01*
X2622380Y910680D02*
Y1083480D01*
X2677531Y1353820D02*
Y1372820D01*
X2600531Y1340820D02*
X2677531D01*
Y1353820D01*
X2600531Y1340820D02*
Y1353820D01*
Y1372820D01*
X2677531D01*
X2476650Y1246500D02*
X2495650D01*
X2463650D02*
Y1323500D01*
Y1246500D02*
X2476650D01*
X2463650Y1323500D02*
X2476650D01*
X2495650D01*
Y1246500D02*
Y1323500D01*
X2774188Y1673762D02*
Y1664621D01*
X2769618D01*
X2768094Y1666144D01*
Y1669191D01*
X2769618Y1670715D01*
X2774188D01*
X2760476Y1664621D02*
X2763523D01*
X2765047Y1666144D01*
Y1672238D01*
X2763523Y1673762D01*
X2760476D01*
X2758953Y1672238D01*
Y1666144D01*
X2760476Y1664621D01*
X2755906D02*
Y1673762D01*
X2752859Y1670715D01*
X2749812Y1673762D01*
Y1664621D01*
X2740671D02*
X2746765D01*
Y1673762D01*
X2740671D01*
X2746765Y1669191D02*
X2743718D01*
X2737624Y1673762D02*
Y1664621D01*
X2733053D01*
X2731530Y1666144D01*
Y1669191D01*
X2733053Y1670715D01*
X2737624D01*
X2734577D02*
X2731530Y1673762D01*
X2769618Y1680467D02*
X2772664D01*
X2774188Y1681991D01*
Y1688085D01*
X2772664Y1689608D01*
X2769618D01*
X2768094Y1688085D01*
Y1681991D01*
X2769618Y1680467D01*
X2765047Y1689608D02*
Y1680467D01*
X2758953Y1689608D01*
Y1680467D01*
X2755906Y1689608D02*
X2749812Y1683514D01*
X2742194Y1680467D02*
X2745241D01*
X2746765Y1681991D01*
Y1688085D01*
X2745241Y1689608D01*
X2742194D01*
X2740671Y1688085D01*
Y1681991D01*
X2742194Y1680467D01*
X2731530D02*
X2737624D01*
Y1685038D01*
X2734577D01*
X2737624D01*
Y1689608D01*
X2722389Y1680467D02*
X2728483D01*
Y1685038D01*
X2725436D01*
X2728483D01*
Y1689608D01*
X3593220Y1371502D02*
Y1362361D01*
X3587126Y1371502D01*
Y1362361D01*
X3582555Y1371502D02*
X3579508D01*
X3577985Y1369978D01*
Y1366931D01*
X3579508Y1365408D01*
X3582555D01*
X3584078Y1366931D01*
Y1369978D01*
X3582555Y1371502D01*
X3568843Y1362361D02*
Y1371502D01*
X3573414D01*
X3574937Y1369978D01*
Y1366931D01*
X3573414Y1365408D01*
X3568843D01*
X3561226Y1371502D02*
X3564273D01*
X3565797Y1369978D01*
Y1366931D01*
X3564273Y1365408D01*
X3561226D01*
X3559702Y1366931D01*
Y1368455D01*
X3565797D01*
X3556655Y1371502D02*
Y1362361D01*
X3553608Y1365408D01*
X3550561Y1362361D01*
Y1371502D01*
X3541420Y1365408D02*
X3545991D01*
X3547514Y1366931D01*
Y1369978D01*
X3545991Y1371502D01*
X3541420D01*
X3538373Y1365408D02*
Y1369978D01*
X3536850Y1371502D01*
X3532279D01*
Y1365408D01*
X3520091D02*
X3517044Y1371502D01*
X3513997Y1365408D01*
X3504856Y1371502D02*
X3510950D01*
X3504856Y1365408D01*
Y1363884D01*
X3506380Y1362361D01*
X3509427D01*
X3510950Y1363884D01*
X3573414Y1378207D02*
X3579508D01*
Y1387348D01*
X3573414D01*
X3579508Y1382778D02*
X3576461D01*
X3564273Y1379731D02*
X3565797Y1378207D01*
X3568843D01*
X3570367Y1379731D01*
Y1381254D01*
X3568843Y1382778D01*
X3565797D01*
X3564273Y1384301D01*
Y1385824D01*
X3565797Y1387348D01*
X3568843D01*
X3570367Y1385824D01*
X3561226Y1387348D02*
Y1378207D01*
X3556655D01*
X3555132Y1379731D01*
Y1382778D01*
X3556655Y1384301D01*
X3561226D01*
X3552085Y1379731D02*
X3550561Y1378207D01*
X3547514D01*
X3545991Y1379731D01*
Y1381254D01*
X3547514Y1382778D01*
X3545991Y1384301D01*
Y1385824D01*
X3547514Y1387348D01*
X3550561D01*
X3552085Y1385824D01*
Y1384301D01*
X3550561Y1382778D01*
X3552085Y1381254D01*
Y1379731D01*
X3550561Y1382778D02*
X3547514D01*
X3536850Y1387348D02*
X3542944D01*
X3536850Y1381254D01*
Y1379731D01*
X3538373Y1378207D01*
X3541420D01*
X3542944Y1379731D01*
X3527709Y1378207D02*
X3530756Y1379731D01*
X3533803Y1382778D01*
Y1385824D01*
X3532279Y1387348D01*
X3529232D01*
X3527709Y1385824D01*
Y1384301D01*
X3529232Y1382778D01*
X3533803D01*
X3518568Y1378207D02*
X3521615Y1379731D01*
X3524662Y1382778D01*
Y1385824D01*
X3523138Y1387348D01*
X3520091D01*
X3518568Y1385824D01*
Y1384301D01*
X3520091Y1382778D01*
X3524662D01*
X2136511Y312170D02*
Y302013D01*
X2143282D01*
X2148361Y308784D02*
X2151746D01*
X2153439Y307091D01*
Y302013D01*
X2148361D01*
X2146668Y303706D01*
X2148361Y305398D01*
X2153439D01*
X2156825Y312170D02*
Y302013D01*
X2161903D01*
X2163596Y303706D01*
Y305398D01*
Y307091D01*
X2161903Y308784D01*
X2156825D01*
X2168674Y302013D02*
X2172060D01*
X2173753Y303706D01*
Y307091D01*
X2172060Y308784D01*
X2168674D01*
X2166982Y307091D01*
Y303706D01*
X2168674Y302013D01*
X2177138Y308784D02*
Y302013D01*
Y305398D01*
X2178831Y307091D01*
X2180524Y308784D01*
X2182216D01*
X2188988D02*
X2192373D01*
X2194066Y307091D01*
Y302013D01*
X2188988D01*
X2187295Y303706D01*
X2188988Y305398D01*
X2194066D01*
X2199144Y310477D02*
Y308784D01*
X2197452D01*
X2200837D01*
X2199144D01*
Y303706D01*
X2200837Y302013D01*
X2207608D02*
X2210994D01*
X2212687Y303706D01*
Y307091D01*
X2210994Y308784D01*
X2207608D01*
X2205916Y307091D01*
Y303706D01*
X2207608Y302013D01*
X2216072Y308784D02*
Y302013D01*
Y305398D01*
X2217765Y307091D01*
X2219458Y308784D01*
X2221151D01*
X2226229Y302013D02*
X2229615D01*
X2227922D01*
Y308784D01*
X2226229D01*
X2236386Y302013D02*
X2239771D01*
X2241464Y303706D01*
Y307091D01*
X2239771Y308784D01*
X2236386D01*
X2234693Y307091D01*
Y303706D01*
X2236386Y302013D01*
X2261777Y312170D02*
Y302013D01*
X2256699D01*
X2255006Y303706D01*
Y307091D01*
X2256699Y308784D01*
X2261777D01*
X2270242Y302013D02*
X2266856D01*
X2265163Y303706D01*
Y307091D01*
X2266856Y308784D01*
X2270242D01*
X2271934Y307091D01*
Y305398D01*
X2265163D01*
X2285477Y302013D02*
Y312170D01*
X2292248Y302013D01*
Y312170D01*
X2300712Y302013D02*
X2297326D01*
X2295633Y303706D01*
Y307091D01*
X2297326Y308784D01*
X2300712D01*
X2302404Y307091D01*
Y305398D01*
X2295633D01*
X2305790Y308784D02*
Y303706D01*
X2307483Y302013D01*
X2312561D01*
Y308784D01*
X2315947D02*
Y302013D01*
Y305398D01*
X2317639Y307091D01*
X2319332Y308784D01*
X2321025D01*
X2327796Y302013D02*
X2331182D01*
X2332875Y303706D01*
Y307091D01*
X2331182Y308784D01*
X2327796D01*
X2326104Y307091D01*
Y303706D01*
X2327796Y302013D01*
X2336260Y312170D02*
Y302013D01*
X2341339D01*
X2343031Y303706D01*
Y305398D01*
Y307091D01*
X2341339Y308784D01*
X2336260D01*
X2346417Y302013D02*
X2349803D01*
X2348110D01*
Y308784D01*
X2346417D01*
X2356574Y302013D02*
X2359959D01*
X2361652Y303706D01*
Y307091D01*
X2359959Y308784D01*
X2356574D01*
X2354881Y307091D01*
Y303706D01*
X2356574Y302013D01*
X2365038D02*
X2368423D01*
X2366730D01*
Y312170D01*
X2365038D01*
X2375194Y302013D02*
X2378580D01*
X2380273Y303706D01*
Y307091D01*
X2378580Y308784D01*
X2375194D01*
X2373501Y307091D01*
Y303706D01*
X2375194Y302013D01*
X2387044Y298627D02*
X2388737D01*
X2390429Y300320D01*
Y308784D01*
X2385351D01*
X2383658Y307091D01*
Y303706D01*
X2385351Y302013D01*
X2390429D01*
X2393815D02*
X2397200D01*
X2395508D01*
Y308784D01*
X2393815D01*
X2403972D02*
X2407357D01*
X2409050Y307091D01*
Y302013D01*
X2403972D01*
X2402279Y303706D01*
X2403972Y305398D01*
X2409050D01*
X2429364Y312170D02*
Y302013D01*
X2424285D01*
X2422592Y303706D01*
Y307091D01*
X2424285Y308784D01*
X2429364D01*
X2437827Y302013D02*
X2434442D01*
X2432749Y303706D01*
Y307091D01*
X2434442Y308784D01*
X2437827D01*
X2439520Y307091D01*
Y305398D01*
X2432749D01*
X2453062Y302013D02*
X2456448D01*
X2454755D01*
Y312170D01*
X2453062D01*
X2463219Y308784D02*
X2466605D01*
X2468298Y307091D01*
Y302013D01*
X2463219D01*
X2461526Y303706D01*
X2463219Y305398D01*
X2468298D01*
X2481840Y302013D02*
Y308784D01*
X2485226Y312170D01*
X2488611Y308784D01*
Y302013D01*
Y307091D01*
X2481840D01*
X2498768Y312170D02*
Y302013D01*
X2493689D01*
X2491997Y303706D01*
Y307091D01*
X2493689Y308784D01*
X2498768D01*
X2502153Y302013D02*
X2505539D01*
X2503846D01*
Y308784D01*
X2502153D01*
X2517388D02*
X2512310D01*
X2510617Y307091D01*
Y303706D01*
X2512310Y302013D01*
X2517388D01*
X2527545Y308784D02*
X2522467D01*
X2520774Y307091D01*
Y303706D01*
X2522467Y302013D01*
X2527545D01*
X2530931D02*
X2534316D01*
X2532623D01*
Y308784D01*
X2530931D01*
X2541087Y302013D02*
X2544473D01*
X2546166Y303706D01*
Y307091D01*
X2544473Y308784D01*
X2541087D01*
X2539395Y307091D01*
Y303706D01*
X2541087Y302013D01*
X2549551D02*
Y308784D01*
X2554630D01*
X2556322Y307091D01*
Y302013D01*
X2569865Y308784D02*
Y303706D01*
X2571558Y302013D01*
X2576636D01*
Y300320D01*
X2574943Y298627D01*
X2573250D01*
X2576636Y302013D02*
Y308784D01*
X2590178Y302013D02*
Y312170D01*
X2595257D01*
X2596949Y310477D01*
Y307091D01*
X2595257Y305398D01*
X2590178D01*
X2600335Y302013D02*
X2603721D01*
X2602028D01*
Y312170D01*
X2600335D01*
X2610492Y308784D02*
X2613877D01*
X2615570Y307091D01*
Y302013D01*
X2610492D01*
X2608799Y303706D01*
X2610492Y305398D01*
X2615570D01*
X2618956Y302013D02*
X2624034D01*
X2625727Y303706D01*
X2624034Y305398D01*
X2620648D01*
X2618956Y307091D01*
X2620648Y308784D01*
X2625727D01*
X2630805Y310477D02*
Y308784D01*
X2629113D01*
X2632498D01*
X2630805D01*
Y303706D01*
X2632498Y302013D01*
X2637576D02*
X2640962D01*
X2639269D01*
Y308784D01*
X2637576D01*
X2652811D02*
X2647733D01*
X2646040Y307091D01*
Y303706D01*
X2647733Y302013D01*
X2652811D01*
X2656197D02*
X2659583D01*
X2657890D01*
Y308784D01*
X2656197D01*
X2671432Y312170D02*
Y302013D01*
X2666354D01*
X2664661Y303706D01*
Y307091D01*
X2666354Y308784D01*
X2671432D01*
X2676511D02*
X2679896D01*
X2681589Y307091D01*
Y302013D01*
X2676511D01*
X2674818Y303706D01*
X2676511Y305398D01*
X2681589D01*
X2691746Y312170D02*
Y302013D01*
X2686667D01*
X2684974Y303706D01*
Y307091D01*
X2686667Y308784D01*
X2691746D01*
X2712059Y310477D02*
X2710366Y312170D01*
X2706981D01*
X2705288Y310477D01*
Y303706D01*
X2706981Y302013D01*
X2710366D01*
X2712059Y303706D01*
X2720523Y302013D02*
X2717137D01*
X2715445Y303706D01*
Y307091D01*
X2717137Y308784D01*
X2720523D01*
X2722216Y307091D01*
Y305398D01*
X2715445D01*
X2725601Y308784D02*
Y302013D01*
Y305398D01*
X2727294Y307091D01*
X2728987Y308784D01*
X2730680D01*
X2740836Y302013D02*
X2737451D01*
X2735758Y303706D01*
Y307091D01*
X2737451Y308784D01*
X2740836D01*
X2742529Y307091D01*
Y305398D01*
X2735758D01*
X2745915Y312170D02*
Y302013D01*
X2750993D01*
X2752686Y303706D01*
Y305398D01*
Y307091D01*
X2750993Y308784D01*
X2745915D01*
X2756071D02*
Y302013D01*
Y305398D01*
X2757764Y307091D01*
X2759457Y308784D01*
X2761150D01*
X2767921D02*
X2771306D01*
X2772999Y307091D01*
Y302013D01*
X2767921D01*
X2766228Y303706D01*
X2767921Y305398D01*
X2772999D01*
X2776385Y302013D02*
X2779771D01*
X2778078D01*
Y312170D01*
X2776385D01*
X2327796Y274654D02*
X2321025D01*
Y269576D01*
X2324411D01*
X2321025D01*
Y264498D01*
X2332875Y271269D02*
X2336260D01*
X2337953Y269576D01*
Y264498D01*
X2332875D01*
X2331182Y266190D01*
X2332875Y267883D01*
X2337953D01*
X2348110Y271269D02*
X2343031D01*
X2341339Y269576D01*
Y266190D01*
X2343031Y264498D01*
X2348110D01*
X2351495Y271269D02*
Y266190D01*
X2353188Y264498D01*
X2358266D01*
Y271269D01*
X2361652Y264498D02*
X2365038D01*
X2363345D01*
Y274654D01*
X2361652D01*
X2371809Y272962D02*
Y271269D01*
X2370116D01*
X2373501D01*
X2371809D01*
Y266190D01*
X2373501Y264498D01*
X2380273Y271269D02*
X2383658D01*
X2385351Y269576D01*
Y264498D01*
X2380273D01*
X2378580Y266190D01*
X2380273Y267883D01*
X2385351D01*
X2395508Y274654D02*
Y264498D01*
X2390429D01*
X2388737Y266190D01*
Y269576D01*
X2390429Y271269D01*
X2395508D01*
X2415821Y274654D02*
Y264498D01*
X2410743D01*
X2409050Y266190D01*
Y269576D01*
X2410743Y271269D01*
X2415821D01*
X2424285Y264498D02*
X2420900D01*
X2419207Y266190D01*
Y269576D01*
X2420900Y271269D01*
X2424285D01*
X2425978Y269576D01*
Y267883D01*
X2419207D01*
X2446291Y272962D02*
X2444599Y274654D01*
X2441213D01*
X2439520Y272962D01*
Y266190D01*
X2441213Y264498D01*
X2444599D01*
X2446291Y266190D01*
X2449677Y264498D02*
X2453062D01*
X2451370D01*
Y271269D01*
X2449677D01*
X2463219Y264498D02*
X2459834D01*
X2458141Y266190D01*
Y269576D01*
X2459834Y271269D01*
X2463219D01*
X2464912Y269576D01*
Y267883D01*
X2458141D01*
X2468298Y264498D02*
Y271269D01*
X2473376D01*
X2475069Y269576D01*
Y264498D01*
X2485226Y271269D02*
X2480147D01*
X2478454Y269576D01*
Y266190D01*
X2480147Y264498D01*
X2485226D01*
X2488611D02*
X2491997D01*
X2490304D01*
Y271269D01*
X2488611D01*
X2498768D02*
X2502153D01*
X2503846Y269576D01*
Y264498D01*
X2498768D01*
X2497075Y266190D01*
X2498768Y267883D01*
X2503846D01*
X2507232Y264498D02*
X2512310D01*
X2514003Y266190D01*
X2512310Y267883D01*
X2508925D01*
X2507232Y269576D01*
X2508925Y271269D01*
X2514003D01*
X2519081Y262805D02*
X2520774Y264498D01*
Y266190D01*
X2519081D01*
Y264498D01*
X2520774D01*
X2519081Y262805D01*
X2517388Y261112D01*
X2537702Y274654D02*
Y266190D01*
X2539395Y264498D01*
X2542780D01*
X2544473Y266190D01*
Y274654D01*
X2547859Y264498D02*
Y271269D01*
X2551244Y274654D01*
X2554630Y271269D01*
Y264498D01*
Y269576D01*
X2547859D01*
X2564786Y274654D02*
X2558015D01*
Y264498D01*
X2564786D01*
X2558015Y269576D02*
X2561401D01*
X2568172Y264498D02*
Y274654D01*
X2571558Y271269D01*
X2574943Y274654D01*
Y264498D01*
X2583407D02*
X2580022D01*
X2578329Y266190D01*
Y269576D01*
X2580022Y271269D01*
X2583407D01*
X2585100Y269576D01*
Y267883D01*
X2578329D01*
X2588485Y271269D02*
X2595257Y264498D01*
X2591871Y267883D01*
X2595257Y271269D01*
X2588485Y264498D01*
X2238167Y1694906D02*
Y1685764D01*
X2233596D01*
X2232073Y1687288D01*
Y1690335D01*
X2233596Y1691859D01*
X2238167D01*
X2224455Y1685764D02*
X2227502D01*
X2229026Y1687288D01*
Y1693382D01*
X2227502Y1694906D01*
X2224455D01*
X2222932Y1693382D01*
Y1687288D01*
X2224455Y1685764D01*
X2219885D02*
Y1694906D01*
X2216838Y1691859D01*
X2213791Y1694906D01*
Y1685764D01*
X2204650D02*
X2210744D01*
Y1694906D01*
X2204650D01*
X2210744Y1690335D02*
X2207697D01*
X2201603Y1694906D02*
Y1685764D01*
X2197032D01*
X2195509Y1687288D01*
Y1690335D01*
X2197032Y1691859D01*
X2201603D01*
X2198556D02*
X2195509Y1694906D01*
X2232073Y1703134D02*
X2233596Y1701611D01*
X2236643D01*
X2238167Y1703134D01*
Y1704658D01*
X2236643Y1706181D01*
X2233596D01*
X2232073Y1707705D01*
Y1709228D01*
X2233596Y1710752D01*
X2236643D01*
X2238167Y1709228D01*
X2224455Y1701611D02*
X2227502D01*
X2229026Y1703134D01*
Y1709228D01*
X2227502Y1710752D01*
X2224455D01*
X2222932Y1709228D01*
Y1703134D01*
X2224455Y1701611D01*
X2219885D02*
Y1709228D01*
X2218361Y1710752D01*
X2215314D01*
X2213791Y1709228D01*
Y1701611D01*
X2210744Y1710752D02*
Y1701611D01*
X2206173D01*
X2204650Y1703134D01*
Y1706181D01*
X2206173Y1707705D01*
X2210744D01*
X2207697D02*
X2204650Y1710752D01*
X2195509Y1703134D02*
X2197032Y1701611D01*
X2200079D01*
X2201603Y1703134D01*
Y1709228D01*
X2200079Y1710752D01*
X2197032D01*
X2195509Y1709228D01*
X2186368Y1701611D02*
X2192462D01*
Y1710752D01*
X2186368D01*
X2192462Y1706181D02*
X2189415D01*
X2238167Y1726598D02*
X2235120D01*
X2236643D01*
Y1717457D01*
X2238167Y1718980D01*
X2230549Y1726598D02*
X2227502D01*
X2229026D01*
Y1717457D01*
X2230549Y1718980D01*
X2222932D02*
X2221408Y1717457D01*
X2218361D01*
X2216838Y1718980D01*
Y1725074D01*
X2218361Y1726598D01*
X2221408D01*
X2222932Y1725074D01*
Y1718980D01*
X2213791Y1717457D02*
Y1723551D01*
X2210744Y1726598D01*
X2207697Y1723551D01*
Y1717457D01*
X2204650Y1726598D02*
Y1720504D01*
X2201603Y1717457D01*
X2198556Y1720504D01*
Y1726598D01*
Y1722027D01*
X2204650D01*
X2189415Y1718980D02*
X2190938Y1717457D01*
X2193985D01*
X2195509Y1718980D01*
Y1725074D01*
X2193985Y1726598D01*
X2190938D01*
X2189415Y1725074D01*
X2519322Y1694942D02*
Y1685801D01*
X2514751D01*
X2513228Y1687325D01*
Y1690372D01*
X2514751Y1691895D01*
X2519322D01*
X2505610Y1685801D02*
X2508657D01*
X2510181Y1687325D01*
Y1693419D01*
X2508657Y1694942D01*
X2505610D01*
X2504087Y1693419D01*
Y1687325D01*
X2505610Y1685801D01*
X2501040D02*
Y1694942D01*
X2497993Y1691895D01*
X2494946Y1694942D01*
Y1685801D01*
X2485805D02*
X2491899D01*
Y1694942D01*
X2485805D01*
X2491899Y1690372D02*
X2488852D01*
X2482758Y1694942D02*
Y1685801D01*
X2478187D01*
X2476664Y1687325D01*
Y1690372D01*
X2478187Y1691895D01*
X2482758D01*
X2479711D02*
X2476664Y1694942D01*
X2513228Y1703171D02*
X2514751Y1701647D01*
X2517798D01*
X2519322Y1703171D01*
Y1704694D01*
X2517798Y1706218D01*
X2514751D01*
X2513228Y1707741D01*
Y1709265D01*
X2514751Y1710788D01*
X2517798D01*
X2519322Y1709265D01*
X2510181Y1701647D02*
Y1709265D01*
X2508657Y1710788D01*
X2505610D01*
X2504087Y1709265D01*
Y1701647D01*
X2501040Y1710788D02*
Y1701647D01*
X2496469D01*
X2494946Y1703171D01*
Y1706218D01*
X2496469Y1707741D01*
X2501040D01*
X2491899Y1710788D02*
Y1701647D01*
X2487328D01*
X2485805Y1703171D01*
Y1706218D01*
X2487328Y1707741D01*
X2491899D01*
X2482758Y1701647D02*
Y1710788D01*
X2476664D01*
X2473617Y1701647D02*
Y1703171D01*
X2470570Y1706218D01*
X2467523Y1703171D01*
Y1701647D01*
X2470570Y1706218D02*
Y1710788D01*
X2513228Y1717493D02*
X2519322D01*
Y1722064D01*
X2516275Y1720540D01*
X2514751D01*
X2513228Y1722064D01*
Y1725111D01*
X2514751Y1726634D01*
X2517798D01*
X2519322Y1725111D01*
X2510181Y1717493D02*
Y1723587D01*
X2507134Y1726634D01*
X2504087Y1723587D01*
Y1717493D01*
X2501040D02*
Y1726634D01*
X2496469D01*
X2494946Y1725111D01*
Y1719017D01*
X2496469Y1717493D01*
X2501040D01*
X2485805Y1719017D02*
X2487328Y1717493D01*
X2490375D01*
X2491899Y1719017D01*
Y1725111D01*
X2490375Y1726634D01*
X2487328D01*
X2485805Y1725111D01*
X4048763Y1470656D02*
X4047239Y1469133D01*
Y1466086D01*
X4048763Y1464563D01*
X4054857D01*
X4056380Y1466086D01*
Y1469133D01*
X4054857Y1470656D01*
X4056380Y1473704D02*
X4050286D01*
X4047239Y1476751D01*
X4050286Y1479798D01*
X4056380D01*
X4051809D01*
Y1473704D01*
X4047239Y1482845D02*
X4056380D01*
Y1488939D01*
X4047239Y1491986D02*
Y1495033D01*
Y1493509D01*
X4056380D01*
Y1491986D01*
Y1495033D01*
X4047239Y1499603D02*
X4056380D01*
Y1504174D01*
X4054857Y1505697D01*
X4053333D01*
X4051809Y1504174D01*
Y1499603D01*
Y1504174D01*
X4050286Y1505697D01*
X4048763D01*
X4047239Y1504174D01*
Y1499603D01*
X4056380Y1508744D02*
X4047239D01*
Y1513315D01*
X4048763Y1514838D01*
X4051809D01*
X4053333Y1513315D01*
Y1508744D01*
Y1511791D02*
X4056380Y1514838D01*
Y1517885D02*
X4050286D01*
X4047239Y1520932D01*
X4050286Y1523979D01*
X4056380D01*
X4051809D01*
Y1517885D01*
X4047239Y1527026D02*
Y1533120D01*
Y1530073D01*
X4056380D01*
X4047239Y1536167D02*
Y1539214D01*
Y1537691D01*
X4056380D01*
Y1536167D01*
Y1539214D01*
X4047239Y1548356D02*
Y1545309D01*
X4048763Y1543785D01*
X4054857D01*
X4056380Y1545309D01*
Y1548356D01*
X4054857Y1549879D01*
X4048763D01*
X4047239Y1548356D01*
X4056380Y1552926D02*
X4047239D01*
X4056380Y1559020D01*
X4047239D01*
X4048763Y1577302D02*
X4047239Y1575779D01*
Y1572732D01*
X4048763Y1571208D01*
X4054857D01*
X4056380Y1572732D01*
Y1575779D01*
X4054857Y1577302D01*
X4056380Y1580349D02*
X4050286D01*
X4047239Y1583396D01*
X4050286Y1586443D01*
X4056380D01*
X4051809D01*
Y1580349D01*
X4047239Y1589490D02*
X4056380D01*
Y1594061D01*
X4054857Y1595584D01*
X4053333D01*
X4051809Y1594061D01*
Y1589490D01*
Y1594061D01*
X4050286Y1595584D01*
X4048763D01*
X4047239Y1594061D01*
Y1589490D01*
Y1598631D02*
X4056380D01*
Y1604725D01*
X4047239Y1613866D02*
Y1607772D01*
X4056380D01*
Y1613866D01*
X4051809Y1607772D02*
Y1610819D01*
X4048763Y1623007D02*
X4047239Y1621484D01*
Y1618437D01*
X4048763Y1616913D01*
X4050286D01*
X4051809Y1618437D01*
Y1621484D01*
X4053333Y1623007D01*
X4054857D01*
X4056380Y1621484D01*
Y1618437D01*
X4054857Y1616913D01*
X2382162Y1685764D02*
Y1694906D01*
X2376068D01*
X2373021D02*
Y1688811D01*
X2369974Y1685764D01*
X2366927Y1688811D01*
Y1694906D01*
Y1690335D01*
X2373021D01*
X2363880Y1694906D02*
Y1685764D01*
X2360833Y1688811D01*
X2357786Y1685764D01*
Y1694906D01*
X2354739D02*
Y1685764D01*
X2350168D01*
X2348645Y1687288D01*
Y1690335D01*
X2350168Y1691859D01*
X2354739D01*
X2376068Y1703134D02*
X2377591Y1701611D01*
X2380638D01*
X2382162Y1703134D01*
Y1704658D01*
X2380638Y1706181D01*
X2377591D01*
X2376068Y1707705D01*
Y1709228D01*
X2377591Y1710752D01*
X2380638D01*
X2382162Y1709228D01*
X2373021Y1701611D02*
Y1709228D01*
X2371497Y1710752D01*
X2368450D01*
X2366927Y1709228D01*
Y1701611D01*
X2363880Y1710752D02*
Y1701611D01*
X2359309D01*
X2357786Y1703134D01*
Y1706181D01*
X2359309Y1707705D01*
X2363880D01*
X2354739Y1710752D02*
Y1701611D01*
X2350168D01*
X2348645Y1703134D01*
Y1706181D01*
X2350168Y1707705D01*
X2354739D01*
X2345598Y1701611D02*
Y1710752D01*
X2339504D01*
X2336457Y1701611D02*
Y1703134D01*
X2333410Y1706181D01*
X2330363Y1703134D01*
Y1701611D01*
X2333410Y1706181D02*
Y1710752D01*
X2382162Y1726598D02*
X2379115D01*
X2380638D01*
Y1717457D01*
X2382162Y1718980D01*
X2374544Y1726598D02*
X2371497D01*
X2373021D01*
Y1717457D01*
X2374544Y1718980D01*
X2366927D02*
X2365403Y1717457D01*
X2362356D01*
X2360833Y1718980D01*
Y1725074D01*
X2362356Y1726598D01*
X2365403D01*
X2366927Y1725074D01*
Y1718980D01*
X2357786Y1717457D02*
Y1723551D01*
X2354739Y1726598D01*
X2351692Y1723551D01*
Y1717457D01*
X2348645Y1726598D02*
Y1720504D01*
X2345598Y1717457D01*
X2342551Y1720504D01*
Y1726598D01*
Y1722027D01*
X2348645D01*
X2333410Y1718980D02*
X2334933Y1717457D01*
X2337980D01*
X2339504Y1718980D01*
Y1725074D01*
X2337980Y1726598D01*
X2334933D01*
X2333410Y1725074D01*
X3055735Y384790D02*
Y390885D01*
X3058782Y393932D01*
X3061830Y390885D01*
Y384790D01*
Y389361D01*
X3055735D01*
X3064876Y390885D02*
Y384790D01*
Y387837D01*
X3066400Y389361D01*
X3067923Y390885D01*
X3069447D01*
X3080111Y393932D02*
Y384790D01*
X3075541D01*
X3074017Y386314D01*
Y389361D01*
X3075541Y390885D01*
X3080111D01*
X3083159D02*
Y386314D01*
X3084682Y384790D01*
X3089253D01*
Y390885D01*
X3092299Y384790D02*
X3095347D01*
X3093823D01*
Y390885D01*
X3092299D01*
X3099917Y384790D02*
Y390885D01*
X3104488D01*
X3106011Y389361D01*
Y384790D01*
X3110582D02*
X3113629D01*
X3115152Y386314D01*
Y389361D01*
X3113629Y390885D01*
X3110582D01*
X3109058Y389361D01*
Y386314D01*
X3110582Y384790D01*
X3127340D02*
Y393932D01*
X3130387Y390885D01*
X3133434Y393932D01*
Y384790D01*
X3141052D02*
X3138005D01*
X3136481Y386314D01*
Y389361D01*
X3138005Y390885D01*
X3141052D01*
X3142575Y389361D01*
Y387837D01*
X3136481D01*
X3148669Y381744D02*
X3150193D01*
X3151716Y383267D01*
Y390885D01*
X3147146D01*
X3145622Y389361D01*
Y386314D01*
X3147146Y384790D01*
X3151716D01*
X3156287Y390885D02*
X3159334D01*
X3160858Y389361D01*
Y384790D01*
X3156287D01*
X3154763Y386314D01*
X3156287Y387837D01*
X3160858D01*
X3179139Y384790D02*
X3173045D01*
X3179139Y390885D01*
Y392408D01*
X3177616Y393932D01*
X3174569D01*
X3173045Y392408D01*
X3188281Y393932D02*
X3182187D01*
Y389361D01*
X3185233Y390885D01*
X3186757D01*
X3188281Y389361D01*
Y386314D01*
X3186757Y384790D01*
X3183710D01*
X3182187Y386314D01*
X3197422Y393932D02*
X3194375Y392408D01*
X3191328Y389361D01*
Y386314D01*
X3192851Y384790D01*
X3195898D01*
X3197422Y386314D01*
Y387837D01*
X3195898Y389361D01*
X3191328D01*
X3200469Y392408D02*
X3201992Y393932D01*
X3205039D01*
X3206563Y392408D01*
Y386314D01*
X3205039Y384790D01*
X3201992D01*
X3200469Y386314D01*
Y392408D01*
X3097632Y375038D02*
X3100679D01*
X3099155D01*
Y365897D01*
X3097632D01*
X3100679D01*
X3105249D02*
Y371991D01*
X3109820D01*
X3111343Y370468D01*
Y365897D01*
X3114390Y371991D02*
X3117437Y365897D01*
X3120484Y371991D01*
X3128102Y365897D02*
X3125055D01*
X3123531Y367421D01*
Y370468D01*
X3125055Y371991D01*
X3128102D01*
X3129626Y370468D01*
Y368944D01*
X3123531D01*
X3132672Y371991D02*
Y365897D01*
Y368944D01*
X3134196Y370468D01*
X3135720Y371991D01*
X3137243D01*
X3143337Y373515D02*
Y371991D01*
X3141814D01*
X3144861D01*
X3143337D01*
Y367421D01*
X3144861Y365897D01*
X3154001D02*
X3150955D01*
X3149431Y367421D01*
Y370468D01*
X3150955Y371991D01*
X3154001D01*
X3155525Y370468D01*
Y368944D01*
X3149431D01*
X3164666Y375038D02*
Y365897D01*
X3160096D01*
X3158572Y367421D01*
Y370468D01*
X3160096Y371991D01*
X3164666D01*
X1998470Y658200D02*
X1999993Y659723D01*
Y662770D01*
X1998470Y664294D01*
X1996946D01*
X1995423Y662770D01*
Y659723D01*
X1993899Y658200D01*
X1992375D01*
X1990852Y659723D01*
Y662770D01*
X1992375Y664294D01*
X1999993Y655153D02*
X1990852D01*
X1995423D01*
Y649059D01*
X1999993D01*
X1990852D01*
X1999993Y641441D02*
Y644488D01*
X1998470Y646012D01*
X1992375D01*
X1990852Y644488D01*
Y641441D01*
X1992375Y639918D01*
X1998470D01*
X1999993Y641441D01*
X1998470Y630777D02*
X1999993Y632300D01*
Y635347D01*
X1998470Y636871D01*
X1992375D01*
X1990852Y635347D01*
Y632300D01*
X1992375Y630777D01*
X1999993Y627730D02*
X1990852D01*
X1993899D01*
X1999993Y621636D01*
X1995423Y626206D01*
X1990852Y621636D01*
X1999993Y609448D02*
X1990852D01*
Y604877D01*
X1992375Y603354D01*
X1993899D01*
X1995423Y604877D01*
Y609448D01*
Y604877D01*
X1996946Y603354D01*
X1998470D01*
X1999993Y604877D01*
Y609448D01*
X1990852Y600306D02*
X1996946D01*
X1999993Y597259D01*
X1996946Y594212D01*
X1990852D01*
X1995423D01*
Y600306D01*
X1990852Y591165D02*
X1999993D01*
Y586595D01*
X1998470Y585071D01*
X1995423D01*
X1993899Y586595D01*
Y591165D01*
Y588118D02*
X1990852Y585071D01*
X1998470Y575930D02*
X1999993Y577454D01*
Y580501D01*
X1998470Y582024D01*
X1996946D01*
X1995423Y580501D01*
Y577454D01*
X1993899Y575930D01*
X1992375D01*
X1990852Y577454D01*
Y580501D01*
X1992375Y582024D01*
X1999993Y559172D02*
Y562219D01*
X1998470Y563742D01*
X1992375D01*
X1990852Y562219D01*
Y559172D01*
X1992375Y557648D01*
X1998470D01*
X1999993Y559172D01*
Y554601D02*
X1992375D01*
X1990852Y553078D01*
Y550031D01*
X1992375Y548507D01*
X1999993D01*
Y545460D02*
Y539366D01*
Y542413D01*
X1990852D01*
Y536319D02*
X1999993D01*
Y531749D01*
X1998470Y530225D01*
X1995423D01*
X1993899Y531749D01*
Y536319D01*
X1999993Y527178D02*
X1992375D01*
X1990852Y525654D01*
Y522607D01*
X1992375Y521084D01*
X1999993D01*
Y518037D02*
Y511943D01*
Y514990D01*
X1990852D01*
X3932430Y1206341D02*
X3930907Y1204817D01*
Y1201770D01*
X3932430Y1200247D01*
X3933954D01*
X3935478Y1201770D01*
Y1204817D01*
X3937001Y1206341D01*
X3938524D01*
X3940048Y1204817D01*
Y1201770D01*
X3938524Y1200247D01*
X3930907Y1209388D02*
X3940048D01*
X3935478D01*
Y1215482D01*
X3930907D01*
X3940048D01*
X3930907Y1223099D02*
Y1220052D01*
X3932430Y1218529D01*
X3938524D01*
X3940048Y1220052D01*
Y1223099D01*
X3938524Y1224623D01*
X3932430D01*
X3930907Y1223099D01*
X3932430Y1233764D02*
X3930907Y1232240D01*
Y1229193D01*
X3932430Y1227670D01*
X3938524D01*
X3940048Y1229193D01*
Y1232240D01*
X3938524Y1233764D01*
X3930907Y1236811D02*
X3940048D01*
X3937001D01*
X3930907Y1242905D01*
X3935478Y1238334D01*
X3940048Y1242905D01*
X3932430Y1261187D02*
X3930907Y1259663D01*
Y1256617D01*
X3932430Y1255093D01*
X3938524D01*
X3940048Y1256617D01*
Y1259663D01*
X3938524Y1261187D01*
X3930907Y1264234D02*
X3938524D01*
X3940048Y1265758D01*
Y1268805D01*
X3938524Y1270328D01*
X3930907D01*
X3940048Y1273375D02*
X3930907D01*
Y1277946D01*
X3932430Y1279469D01*
X3935478D01*
X3937001Y1277946D01*
Y1273375D01*
Y1276422D02*
X3940048Y1279469D01*
Y1282516D02*
X3930907D01*
Y1287087D01*
X3932430Y1288610D01*
X3935478D01*
X3937001Y1287087D01*
Y1282516D01*
Y1285563D02*
X3940048Y1288610D01*
X3930907Y1297751D02*
Y1291657D01*
X3940048D01*
Y1297751D01*
X3935478Y1291657D02*
Y1294704D01*
X3940048Y1300798D02*
X3930907D01*
X3940048Y1306892D01*
X3930907D01*
Y1309939D02*
Y1316033D01*
Y1312986D01*
X3940048D01*
X3039845Y1760632D02*
Y1754538D01*
X3036798Y1751491D01*
X3033751Y1754538D01*
Y1760632D01*
Y1756061D01*
X3039845D01*
X3024610Y1751491D02*
Y1760632D01*
X3029180D01*
X3030704Y1759108D01*
Y1756061D01*
X3029180Y1754538D01*
X3024610D01*
X3020039D02*
X3016992D01*
X3015469Y1756061D01*
Y1760632D01*
X3020039D01*
X3021562Y1759108D01*
X3020039Y1757585D01*
X3015469D01*
X3010898Y1760632D02*
Y1753014D01*
Y1756061D01*
X3012422D01*
X3009375D01*
X3010898D01*
Y1753014D01*
X3009375Y1751491D01*
X3004804Y1754538D02*
Y1760632D01*
Y1757585D01*
X3003281Y1756061D01*
X3001757Y1754538D01*
X3000233D01*
X2995663D02*
Y1759108D01*
X2994139Y1760632D01*
X2989569D01*
Y1754538D01*
X2986522Y1760632D02*
X2983475D01*
X2984998D01*
Y1754538D01*
X2986522D01*
X2977381Y1753014D02*
Y1754538D01*
X2978904D01*
X2975858D01*
X2977381D01*
Y1759108D01*
X2975858Y1760632D01*
X2962146D02*
Y1754538D01*
X2960622D01*
X2959099Y1756061D01*
Y1760632D01*
Y1756061D01*
X2957575Y1754538D01*
X2956052Y1756061D01*
Y1760632D01*
X2953005D02*
X2949958D01*
X2951481D01*
Y1754538D01*
X2953005D01*
X2939293D02*
X2943864D01*
X2945387Y1756061D01*
Y1759108D01*
X2943864Y1760632D01*
X2939293D01*
X2936246Y1754538D02*
Y1760632D01*
Y1757585D01*
X2934723Y1756061D01*
X2933199Y1754538D01*
X2931676D01*
X2925582Y1760632D02*
X2922534D01*
X2921011Y1759108D01*
Y1756061D01*
X2922534Y1754538D01*
X2925582D01*
X2927105Y1756061D01*
Y1759108D01*
X2925582Y1760632D01*
X2911870Y1753014D02*
X2913394Y1751491D01*
X2916440D01*
X2917964Y1753014D01*
Y1754538D01*
X2916440Y1756061D01*
X2913394D01*
X2911870Y1757585D01*
Y1759108D01*
X2913394Y1760632D01*
X2916440D01*
X2917964Y1759108D01*
X2908823Y1751491D02*
Y1760632D01*
X2904253D01*
X2902729Y1759108D01*
Y1753014D01*
X2904253Y1751491D01*
X2908823D01*
X3049748Y1770384D02*
X3054318D01*
X3055842Y1771907D01*
Y1774954D01*
X3054318Y1776478D01*
X3049748D01*
X3045177Y1770384D02*
X3042130D01*
X3040606Y1771907D01*
Y1776478D01*
X3045177D01*
X3046700Y1774954D01*
X3045177Y1773431D01*
X3040606D01*
X3037560Y1770384D02*
Y1776478D01*
Y1773431D01*
X3036036Y1771907D01*
X3034512Y1770384D01*
X3032989D01*
X3022325Y1767337D02*
Y1776478D01*
X3026895D01*
X3028418Y1774954D01*
Y1771907D01*
X3026895Y1770384D01*
X3022325D01*
X3010136Y1767337D02*
Y1776478D01*
X3005566D01*
X3004042Y1774954D01*
Y1773431D01*
Y1771907D01*
X3005566Y1770384D01*
X3010136D01*
X3000995D02*
Y1776478D01*
Y1773431D01*
X2999472Y1771907D01*
X2997948Y1770384D01*
X2996425D01*
X2987284Y1776478D02*
X2990331D01*
X2991854Y1774954D01*
Y1771907D01*
X2990331Y1770384D01*
X2987284D01*
X2985760Y1771907D01*
Y1773431D01*
X2991854D01*
X2981190Y1770384D02*
X2978143D01*
X2976619Y1771907D01*
Y1776478D01*
X2981190D01*
X2982713Y1774954D01*
X2981190Y1773431D01*
X2976619D01*
X2973572Y1776478D02*
Y1767337D01*
Y1773431D02*
X2969001Y1770384D01*
X2973572Y1773431D02*
X2969001Y1776478D01*
X2962907D02*
X2959861D01*
X2958337Y1774954D01*
Y1771907D01*
X2959861Y1770384D01*
X2962907D01*
X2964431Y1771907D01*
Y1774954D01*
X2962907Y1776478D01*
X2955290Y1770384D02*
Y1774954D01*
X2953766Y1776478D01*
X2949196D01*
Y1770384D01*
X2944626Y1768860D02*
Y1770384D01*
X2946149D01*
X2943102D01*
X2944626D01*
Y1774954D01*
X2943102Y1776478D01*
X2929390Y1767337D02*
Y1776478D01*
X2924820D01*
X2923296Y1774954D01*
Y1773431D01*
Y1771907D01*
X2924820Y1770384D01*
X2929390D01*
X2918726Y1776478D02*
X2915679D01*
X2914155Y1774954D01*
Y1771907D01*
X2915679Y1770384D01*
X2918726D01*
X2920249Y1771907D01*
Y1774954D01*
X2918726Y1776478D01*
X2909585Y1770384D02*
X2906538D01*
X2905014Y1771907D01*
Y1776478D01*
X2909585D01*
X2911108Y1774954D01*
X2909585Y1773431D01*
X2905014D01*
X2901967Y1770384D02*
Y1776478D01*
Y1773431D01*
X2900444Y1771907D01*
X2898920Y1770384D01*
X2897397D01*
X2886732Y1767337D02*
Y1776478D01*
X2891302D01*
X2892826Y1774954D01*
Y1771907D01*
X2891302Y1770384D01*
X2886732D01*
X4056380Y1318247D02*
Y1312153D01*
X4050286Y1318247D01*
X4048763D01*
X4047239Y1316723D01*
Y1313676D01*
X4048763Y1312153D01*
X4056380Y1199377D02*
Y1202423D01*
Y1200900D01*
X4047239D01*
X4048763Y1199377D01*
X3015995Y1848140D02*
Y1857281D01*
X3011425D01*
X3009901Y1855757D01*
Y1849663D01*
X3011425Y1848140D01*
X3015995D01*
X3006854Y1857281D02*
Y1851187D01*
X3003807Y1848140D01*
X3000760Y1851187D01*
Y1857281D01*
Y1852710D01*
X3006854D01*
X2997713Y1848140D02*
X2991619D01*
X2994666D01*
Y1857281D01*
X2988572D02*
Y1851187D01*
X2985525Y1848140D01*
X2982478Y1851187D01*
Y1857281D01*
Y1852710D01*
X2988572D01*
X2970290Y1848140D02*
Y1857281D01*
X2964196D01*
X2956578Y1848140D02*
X2959626D01*
X2961149Y1849663D01*
Y1855757D01*
X2959626Y1857281D01*
X2956578D01*
X2955055Y1855757D01*
Y1849663D01*
X2956578Y1848140D01*
X2945914Y1849663D02*
X2947437Y1848140D01*
X2950484D01*
X2952008Y1849663D01*
Y1855757D01*
X2950484Y1857281D01*
X2947437D01*
X2945914Y1855757D01*
Y1852710D01*
X2948961D01*
X2936773Y1849663D02*
X2938296Y1848140D01*
X2941343D01*
X2942867Y1849663D01*
Y1855757D01*
X2941343Y1857281D01*
X2938296D01*
X2936773Y1855757D01*
Y1852710D01*
X2939820D01*
X2927632Y1848140D02*
X2933726D01*
Y1857281D01*
X2927632D01*
X2933726Y1852710D02*
X2930679D01*
X2924585Y1857281D02*
Y1848140D01*
X2920014D01*
X2918491Y1849663D01*
Y1852710D01*
X2920014Y1854234D01*
X2924585D01*
X2921538D02*
X2918491Y1857281D01*
X3592562Y1848140D02*
Y1857281D01*
X3589515Y1854234D01*
X3586468Y1857281D01*
Y1848140D01*
X3577327D02*
X3583421D01*
Y1857281D01*
X3577327D01*
X3583421Y1852710D02*
X3580374D01*
X3574279Y1848140D02*
Y1857281D01*
X3569709D01*
X3568185Y1855757D01*
Y1854234D01*
X3569709Y1852710D01*
X3574279D01*
X3569709D01*
X3568185Y1851187D01*
Y1849663D01*
X3569709Y1848140D01*
X3574279D01*
X3549903Y1849663D02*
X3551427Y1848140D01*
X3554474D01*
X3555998Y1849663D01*
Y1851187D01*
X3554474Y1852710D01*
X3551427D01*
X3549903Y1854234D01*
Y1855757D01*
X3551427Y1857281D01*
X3554474D01*
X3555998Y1855757D01*
X3540762Y1848140D02*
X3546856D01*
Y1857281D01*
X3540762D01*
X3546856Y1852710D02*
X3543810D01*
X3537715Y1857281D02*
Y1848140D01*
X3533145D01*
X3531621Y1849663D01*
Y1852710D01*
X3533145Y1854234D01*
X3537715D01*
X3534668D02*
X3531621Y1857281D01*
X3528574Y1848140D02*
Y1854234D01*
X3525527Y1857281D01*
X3522480Y1854234D01*
Y1848140D01*
X3513339D02*
X3519433D01*
Y1857281D01*
X3513339D01*
X3519433Y1852710D02*
X3516386D01*
X3510292Y1857281D02*
Y1848140D01*
X3505722D01*
X3504198Y1849663D01*
Y1852710D01*
X3505722Y1854234D01*
X3510292D01*
X3507245D02*
X3504198Y1857281D01*
X3621131Y1775457D02*
Y1769363D01*
X3624178Y1766316D01*
X3627225Y1769363D01*
Y1775457D01*
X3630272Y1766316D02*
X3633319D01*
X3631796D01*
Y1772410D01*
X3630272D01*
X3637890Y1766316D02*
Y1772410D01*
X3642460D01*
X3643984Y1770887D01*
Y1766316D01*
X3626225Y1748533D02*
X3624702Y1750057D01*
X3621655D01*
X3620132Y1748533D01*
Y1742440D01*
X3621655Y1740916D01*
X3624702D01*
X3626225Y1742440D01*
Y1745486D01*
X3623178D01*
X3629272Y1740916D02*
Y1750057D01*
X3635367Y1740916D01*
Y1750057D01*
X3638413D02*
Y1740916D01*
X3642984D01*
X3644507Y1742440D01*
Y1748533D01*
X3642984Y1750057D01*
X3638413D01*
X3620132Y1715516D02*
Y1724657D01*
X3624702D01*
X3626225Y1723134D01*
Y1720087D01*
X3624702Y1718563D01*
X3620132D01*
X3623178D02*
X3626225Y1715516D01*
X3635367Y1723134D02*
X3633843Y1724657D01*
X3630796D01*
X3629272Y1723134D01*
Y1721610D01*
X3630796Y1720087D01*
X3633843D01*
X3635367Y1718563D01*
Y1717039D01*
X3633843Y1715516D01*
X3630796D01*
X3629272Y1717039D01*
X3638413Y1724657D02*
X3644507D01*
X3641461D01*
Y1715516D01*
X3632224Y1699257D02*
X3626129D01*
Y1690116D01*
X3632224D01*
X3626129Y1694686D02*
X3629177D01*
X3635270Y1690116D02*
Y1699257D01*
X3641364Y1690116D01*
Y1699257D01*
X3620132Y1672334D02*
X3621655Y1673857D01*
X3624702D01*
X3626225Y1672334D01*
Y1670810D01*
X3624702Y1669286D01*
X3623178D01*
X3624702D01*
X3626225Y1667763D01*
Y1666239D01*
X3624702Y1664716D01*
X3621655D01*
X3620132Y1666239D01*
X3629272Y1673857D02*
Y1667763D01*
X3632320Y1664716D01*
X3635367Y1667763D01*
Y1673857D01*
X3638413Y1672334D02*
X3639937Y1673857D01*
X3642984D01*
X3644507Y1672334D01*
Y1670810D01*
X3642984Y1669286D01*
X3641461D01*
X3642984D01*
X3644507Y1667763D01*
Y1666239D01*
X3642984Y1664716D01*
X3639937D01*
X3638413Y1666239D01*
X3626225Y1646933D02*
X3624702Y1648457D01*
X3621655D01*
X3620132Y1646933D01*
Y1640840D01*
X3621655Y1639316D01*
X3624702D01*
X3626225Y1640840D01*
Y1643887D01*
X3623178D01*
X3629272Y1639316D02*
Y1648457D01*
X3635367Y1639316D01*
Y1648457D01*
X3638413D02*
Y1639316D01*
X3642984D01*
X3644507Y1640840D01*
Y1646933D01*
X3642984Y1648457D01*
X3638413D01*
X3626225Y1621534D02*
X3624702Y1623057D01*
X3621655D01*
X3620132Y1621534D01*
Y1615439D01*
X3621655Y1613916D01*
X3624702D01*
X3626225Y1615439D01*
X3629272Y1623057D02*
Y1613916D01*
X3635367D01*
X3638413Y1623057D02*
Y1613916D01*
Y1616963D01*
X3644507Y1623057D01*
X3639937Y1618486D01*
X3644507Y1613916D01*
X3626225Y1596134D02*
X3624702Y1597657D01*
X3621655D01*
X3620132Y1596134D01*
Y1594610D01*
X3621655Y1593087D01*
X3624702D01*
X3626225Y1591563D01*
Y1590040D01*
X3624702Y1588516D01*
X3621655D01*
X3620132Y1590040D01*
X3629272Y1597657D02*
Y1588516D01*
X3633843D01*
X3635367Y1590040D01*
Y1596134D01*
X3633843Y1597657D01*
X3629272D01*
X3638413Y1596134D02*
X3639937Y1597657D01*
X3642984D01*
X3644507Y1596134D01*
Y1590040D01*
X3642984Y1588516D01*
X3639937D01*
X3638413Y1590040D01*
Y1596134D01*
X3626225Y1570733D02*
X3624702Y1572257D01*
X3621655D01*
X3620132Y1570733D01*
Y1564639D01*
X3621655Y1563116D01*
X3624702D01*
X3626225Y1564639D01*
X3629272Y1563116D02*
Y1572257D01*
X3632320Y1569210D01*
X3635367Y1572257D01*
Y1563116D01*
X3638413Y1572257D02*
Y1563116D01*
X3642984D01*
X3644507Y1564639D01*
Y1570733D01*
X3642984Y1572257D01*
X3638413D01*
X3628225Y1545334D02*
X3626701Y1546857D01*
X3623654D01*
X3622131Y1545334D01*
Y1543810D01*
X3623654Y1542287D01*
X3626701D01*
X3628225Y1540763D01*
Y1539240D01*
X3626701Y1537716D01*
X3623654D01*
X3622131Y1539240D01*
X3631272Y1546857D02*
Y1537716D01*
X3635842D01*
X3637366Y1539240D01*
Y1545334D01*
X3635842Y1546857D01*
X3631272D01*
X3640413Y1537716D02*
X3643460D01*
X3641936D01*
Y1546857D01*
X3640413Y1545334D01*
X3626225Y1519933D02*
X3624702Y1521457D01*
X3621655D01*
X3620132Y1519933D01*
Y1518410D01*
X3621655Y1516886D01*
X3624702D01*
X3626225Y1515363D01*
Y1513840D01*
X3624702Y1512316D01*
X3621655D01*
X3620132Y1513840D01*
X3629272Y1521457D02*
Y1512316D01*
X3633843D01*
X3635367Y1513840D01*
Y1519933D01*
X3633843Y1521457D01*
X3629272D01*
X3644507Y1512316D02*
X3638413D01*
X3644507Y1518410D01*
Y1519933D01*
X3642984Y1521457D01*
X3639937D01*
X3638413Y1519933D01*
X3626225Y1494534D02*
X3624702Y1496057D01*
X3621655D01*
X3620132Y1494534D01*
Y1493010D01*
X3621655Y1491487D01*
X3624702D01*
X3626225Y1489963D01*
Y1488439D01*
X3624702Y1486916D01*
X3621655D01*
X3620132Y1488439D01*
X3629272Y1496057D02*
Y1486916D01*
X3633843D01*
X3635367Y1488439D01*
Y1494534D01*
X3633843Y1496057D01*
X3629272D01*
X3638413Y1494534D02*
X3639937Y1496057D01*
X3642984D01*
X3644507Y1494534D01*
Y1493010D01*
X3642984Y1491487D01*
X3641461D01*
X3642984D01*
X3644507Y1489963D01*
Y1488439D01*
X3642984Y1486916D01*
X3639937D01*
X3638413Y1488439D01*
X3620132Y1461516D02*
Y1470657D01*
X3624702D01*
X3626225Y1469133D01*
Y1466086D01*
X3624702Y1464563D01*
X3620132D01*
X3623178D02*
X3626225Y1461516D01*
X3635367Y1469133D02*
X3633843Y1470657D01*
X3630796D01*
X3629272Y1469133D01*
Y1467610D01*
X3630796Y1466086D01*
X3633843D01*
X3635367Y1464563D01*
Y1463040D01*
X3633843Y1461516D01*
X3630796D01*
X3629272Y1463040D01*
X3638413Y1470657D02*
Y1464563D01*
X3641461Y1461516D01*
X3644507Y1464563D01*
Y1470657D01*
X3620132Y1436116D02*
Y1445257D01*
X3624702D01*
X3626225Y1443734D01*
Y1440686D01*
X3624702Y1439163D01*
X3620132D01*
X3623178D02*
X3626225Y1436116D01*
X3635367Y1443734D02*
X3633843Y1445257D01*
X3630796D01*
X3629272Y1443734D01*
Y1442210D01*
X3630796Y1440686D01*
X3633843D01*
X3635367Y1439163D01*
Y1437639D01*
X3633843Y1436116D01*
X3630796D01*
X3629272Y1437639D01*
X3638413Y1445257D02*
Y1439163D01*
X3641461Y1436116D01*
X3644507Y1439163D01*
Y1445257D01*
X3626129Y1410716D02*
Y1416810D01*
X3629177Y1419857D01*
X3632224Y1416810D01*
Y1410716D01*
Y1415287D01*
X3626129D01*
X3635270Y1418333D02*
X3636794Y1419857D01*
X3639841D01*
X3641364Y1418333D01*
Y1412240D01*
X3639841Y1410716D01*
X3636794D01*
X3635270Y1412240D01*
Y1418333D01*
X3451606Y1418333D02*
Y1409192D01*
X3456176D01*
X3457700Y1410715D01*
Y1416810D01*
X3456176Y1418333D01*
X3451606D01*
X3460747Y1416810D02*
X3462271Y1418333D01*
X3465318D01*
X3466841Y1416810D01*
Y1410715D01*
X3465318Y1409192D01*
X3462271D01*
X3460747Y1410715D01*
Y1416810D01*
X3451606Y1443733D02*
Y1434592D01*
X3456176D01*
X3457700Y1436116D01*
Y1442209D01*
X3456176Y1443733D01*
X3451606D01*
X3460747Y1434592D02*
X3463794D01*
X3462271D01*
Y1443733D01*
X3460747Y1442209D01*
X3451606Y1469133D02*
Y1459992D01*
X3456176D01*
X3457700Y1461516D01*
Y1467610D01*
X3456176Y1469133D01*
X3451606D01*
X3466841Y1459992D02*
X3460747D01*
X3466841Y1466086D01*
Y1467610D01*
X3465318Y1469133D01*
X3462271D01*
X3460747Y1467610D01*
X3451606Y1494533D02*
Y1485392D01*
X3456176D01*
X3457700Y1486915D01*
Y1493009D01*
X3456176Y1494533D01*
X3451606D01*
X3460747Y1493009D02*
X3462271Y1494533D01*
X3465318D01*
X3466841Y1493009D01*
Y1491486D01*
X3465318Y1489962D01*
X3463794D01*
X3465318D01*
X3466841Y1488439D01*
Y1486915D01*
X3465318Y1485392D01*
X3462271D01*
X3460747Y1486915D01*
X3451606Y1519933D02*
Y1510792D01*
X3456176D01*
X3457700Y1512316D01*
Y1518409D01*
X3456176Y1519933D01*
X3451606D01*
X3465318Y1510792D02*
Y1519933D01*
X3460747Y1515363D01*
X3466841D01*
X3451606Y1543810D02*
X3453130Y1545333D01*
X3456176D01*
X3457700Y1543810D01*
Y1542286D01*
X3456176Y1540762D01*
X3454653D01*
X3456176D01*
X3457700Y1539239D01*
Y1537715D01*
X3456176Y1536192D01*
X3453130D01*
X3451606Y1537715D01*
X3460747Y1545333D02*
Y1539239D01*
X3463794Y1536192D01*
X3466841Y1539239D01*
Y1545333D01*
X3469888Y1543810D02*
X3471412Y1545333D01*
X3474459D01*
X3475982Y1543810D01*
Y1542286D01*
X3474459Y1540762D01*
X3472935D01*
X3474459D01*
X3475982Y1539239D01*
Y1537715D01*
X3474459Y1536192D01*
X3471412D01*
X3469888Y1537715D01*
X3457700Y1569209D02*
X3456176Y1570733D01*
X3453130D01*
X3451606Y1569209D01*
Y1563116D01*
X3453130Y1561592D01*
X3456176D01*
X3457700Y1563116D01*
Y1566163D01*
X3454653D01*
X3460747Y1561592D02*
Y1570733D01*
X3466841Y1561592D01*
Y1570733D01*
X3469888D02*
Y1561592D01*
X3474459D01*
X3475982Y1563116D01*
Y1569209D01*
X3474459Y1570733D01*
X3469888D01*
X3451606Y1596133D02*
Y1586992D01*
X3456176D01*
X3457700Y1588515D01*
Y1594610D01*
X3456176Y1596133D01*
X3451606D01*
X3466841D02*
X3460747D01*
Y1591562D01*
X3463794Y1593086D01*
X3465318D01*
X3466841Y1591562D01*
Y1588515D01*
X3465318Y1586992D01*
X3462271D01*
X3460747Y1588515D01*
X3451606Y1621533D02*
Y1612392D01*
X3456176D01*
X3457700Y1613916D01*
Y1620009D01*
X3456176Y1621533D01*
X3451606D01*
X3466841D02*
X3463794Y1620009D01*
X3460747Y1616962D01*
Y1613916D01*
X3462271Y1612392D01*
X3465318D01*
X3466841Y1613916D01*
Y1615439D01*
X3465318Y1616962D01*
X3460747D01*
X3451606Y1646933D02*
Y1637792D01*
X3456176D01*
X3457700Y1639315D01*
Y1645410D01*
X3456176Y1646933D01*
X3451606D01*
X3460747D02*
X3466841D01*
Y1645410D01*
X3460747Y1639315D01*
Y1637792D01*
X3451606Y1672333D02*
Y1663192D01*
X3456176D01*
X3457700Y1664716D01*
Y1670809D01*
X3456176Y1672333D01*
X3451606D01*
X3460747Y1670809D02*
X3462271Y1672333D01*
X3465318D01*
X3466841Y1670809D01*
Y1669286D01*
X3465318Y1667762D01*
X3466841Y1666239D01*
Y1664716D01*
X3465318Y1663192D01*
X3462271D01*
X3460747Y1664716D01*
Y1666239D01*
X3462271Y1667762D01*
X3460747Y1669286D01*
Y1670809D01*
X3462271Y1667762D02*
X3465318D01*
X3451606Y1688592D02*
Y1697733D01*
X3456176D01*
X3457700Y1696210D01*
Y1693163D01*
X3456176Y1691639D01*
X3451606D01*
X3454653D02*
X3457700Y1688592D01*
X3460747Y1697733D02*
X3466841Y1688592D01*
Y1697733D02*
X3460747Y1688592D01*
X3451606Y1723133D02*
X3457700D01*
X3454653D01*
Y1713992D01*
X3460747Y1723133D02*
X3466841Y1713992D01*
Y1723133D02*
X3460747Y1713992D01*
X3457954Y1748788D02*
X3456430Y1750311D01*
X3453383D01*
X3451860Y1748788D01*
Y1742693D01*
X3453383Y1741170D01*
X3456430D01*
X3457954Y1742693D01*
Y1745741D01*
X3454907D01*
X3461001Y1741170D02*
Y1750311D01*
X3467095Y1741170D01*
Y1750311D01*
X3470142D02*
Y1741170D01*
X3474713D01*
X3476236Y1742693D01*
Y1748788D01*
X3474713Y1750311D01*
X3470142D01*
X3451606Y1772410D02*
X3453130Y1773933D01*
X3456176D01*
X3457700Y1772410D01*
Y1770886D01*
X3456176Y1769362D01*
X3454653D01*
X3456176D01*
X3457700Y1767839D01*
Y1766315D01*
X3456176Y1764792D01*
X3453130D01*
X3451606Y1766315D01*
X3460747Y1773933D02*
Y1767839D01*
X3463794Y1764792D01*
X3466841Y1767839D01*
Y1773933D01*
X3469888Y1772410D02*
X3471412Y1773933D01*
X3474459D01*
X3475982Y1772410D01*
Y1770886D01*
X3474459Y1769362D01*
X3472935D01*
X3474459D01*
X3475982Y1767839D01*
Y1766315D01*
X3474459Y1764792D01*
X3471412D01*
X3469888Y1766315D01*
X3193539Y1501758D02*
X3195063Y1503282D01*
Y1506329D01*
X3193539Y1507852D01*
X3187445D01*
X3185922Y1506329D01*
Y1503282D01*
X3187445Y1501758D01*
X3190493D01*
Y1504805D01*
X3185922Y1498711D02*
X3195063D01*
X3185922Y1492617D01*
X3195063D01*
Y1489570D02*
X3185922D01*
Y1485000D01*
X3187445Y1483476D01*
X3193539D01*
X3195063Y1485000D01*
Y1489570D01*
X3223991Y1503658D02*
X3217897D01*
X3214850Y1500612D01*
X3217897Y1497564D01*
X3223991D01*
X3222468Y1488423D02*
X3223991Y1489947D01*
Y1492994D01*
X3222468Y1494517D01*
X3216374D01*
X3214850Y1492994D01*
Y1489947D01*
X3216374Y1488423D01*
X3222468Y1479282D02*
X3223991Y1480806D01*
Y1483853D01*
X3222468Y1485376D01*
X3216374D01*
X3214850Y1483853D01*
Y1480806D01*
X3216374Y1479282D01*
X3244340Y1501758D02*
X3245863Y1503282D01*
Y1506329D01*
X3244340Y1507852D01*
X3242816D01*
X3241292Y1506329D01*
Y1503282D01*
X3239769Y1501758D01*
X3238246D01*
X3236722Y1503282D01*
Y1506329D01*
X3238246Y1507852D01*
X3245863Y1498711D02*
X3236722D01*
Y1494141D01*
X3238246Y1492617D01*
X3244340D01*
X3245863Y1494141D01*
Y1498711D01*
X3236722Y1489570D02*
X3242816D01*
X3245863Y1486523D01*
X3242816Y1483476D01*
X3236722D01*
X3241292D01*
Y1489570D01*
X3269739Y1501758D02*
X3271263Y1503282D01*
Y1506329D01*
X3269739Y1507852D01*
X3268216D01*
X3266693Y1506329D01*
Y1503282D01*
X3265169Y1501758D01*
X3263646D01*
X3262122Y1503282D01*
Y1506329D01*
X3263646Y1507852D01*
X3269739Y1492617D02*
X3271263Y1494141D01*
Y1497188D01*
X3269739Y1498711D01*
X3263646D01*
X3262122Y1497188D01*
Y1494141D01*
X3263646Y1492617D01*
X3271263Y1489570D02*
X3262122D01*
Y1483476D01*
X3295139Y1501758D02*
X3296663Y1503282D01*
Y1506329D01*
X3295139Y1507852D01*
X3293616D01*
X3292093Y1506329D01*
Y1503282D01*
X3290569Y1501758D01*
X3289045D01*
X3287522Y1503282D01*
Y1506329D01*
X3289045Y1507852D01*
Y1492617D02*
X3295139D01*
X3296663Y1494141D01*
Y1497188D01*
X3295139Y1498711D01*
X3289045D01*
X3287522Y1497188D01*
Y1494141D01*
X3290569Y1495664D02*
X3287522Y1492617D01*
Y1494141D02*
X3289045Y1492617D01*
X3296663Y1489570D02*
X3287522D01*
X3290569Y1486523D01*
X3287522Y1483476D01*
X3296663D01*
X3321527Y1506198D02*
X3323051Y1504675D01*
Y1501628D01*
X3321527Y1500104D01*
X3320004D01*
X3318481Y1501628D01*
Y1503152D01*
Y1501628D01*
X3316957Y1500104D01*
X3315433D01*
X3313910Y1501628D01*
Y1504675D01*
X3315433Y1506198D01*
X3313910Y1490963D02*
Y1497057D01*
X3320004Y1490963D01*
X3321527D01*
X3323051Y1492487D01*
Y1495534D01*
X3321527Y1497057D01*
X3323051Y1487916D02*
X3313910D01*
X3316957D01*
X3323051Y1481822D01*
X3318481Y1486393D01*
X3313910Y1481822D01*
X3556297Y802599D02*
Y805984D01*
Y804292D01*
X3547833D01*
X3546140Y805984D01*
Y807677D01*
X3547833Y809370D01*
X3546140Y792442D02*
Y799213D01*
X3552911Y792442D01*
X3554604D01*
X3556297Y794135D01*
Y797521D01*
X3554604Y799213D01*
X3993177Y673059D02*
Y676444D01*
Y674752D01*
X3984713D01*
X3983020Y676444D01*
Y678137D01*
X3984713Y679830D01*
X3983020Y664595D02*
X3993177D01*
X3988098Y669673D01*
Y662902D01*
X3993177Y850859D02*
Y854244D01*
Y852552D01*
X3984713D01*
X3983020Y854244D01*
Y855937D01*
X3984713Y857630D01*
X3991484Y847473D02*
X3993177Y845780D01*
Y842395D01*
X3991484Y840702D01*
X3989791D01*
X3988098Y842395D01*
Y844088D01*
Y842395D01*
X3986406Y840702D01*
X3984713D01*
X3983020Y842395D01*
Y845780D01*
X3984713Y847473D01*
X3555027Y579079D02*
Y582464D01*
Y580772D01*
X3546563D01*
X3544870Y582464D01*
Y584157D01*
X3546563Y585850D01*
X3544870Y575693D02*
Y572308D01*
Y574001D01*
X3555027D01*
X3553334Y575693D01*
X3058458Y1518788D02*
X3059981Y1520312D01*
Y1523359D01*
X3058458Y1524882D01*
X3052364D01*
X3050840Y1523359D01*
Y1520312D01*
X3052364Y1518788D01*
X3059981Y1515741D02*
X3050840D01*
Y1511171D01*
X3052364Y1509647D01*
X3058458D01*
X3059981Y1511171D01*
Y1515741D01*
X3033058Y1518788D02*
X3034581Y1520312D01*
Y1523359D01*
X3033058Y1524882D01*
X3026964D01*
X3025440Y1523359D01*
Y1520312D01*
X3026964Y1518788D01*
X3033058Y1509647D02*
X3034581Y1511171D01*
Y1514218D01*
X3033058Y1515741D01*
X3031534D01*
X3030010Y1514218D01*
Y1511171D01*
X3028487Y1509647D01*
X3026964D01*
X3025440Y1511171D01*
Y1514218D01*
X3026964Y1515741D01*
X3009181Y1522883D02*
X3000040D01*
Y1518313D01*
X3001563Y1516789D01*
X3007657D01*
X3009181Y1518313D01*
Y1522883D01*
Y1513742D02*
Y1510695D01*
Y1512218D01*
X3000040D01*
Y1513742D01*
Y1510695D01*
X2983781Y1524882D02*
X2974640D01*
Y1520312D01*
X2976164Y1518788D01*
X2982257D01*
X2983781Y1520312D01*
Y1524882D01*
Y1511171D02*
Y1514218D01*
X2982257Y1515741D01*
X2976164D01*
X2974640Y1514218D01*
Y1511171D01*
X2976164Y1509647D01*
X2982257D01*
X2983781Y1511171D01*
X2956858Y1524787D02*
X2958381Y1526310D01*
Y1529357D01*
X2956858Y1530880D01*
X2950764D01*
X2949240Y1529357D01*
Y1526310D01*
X2950764Y1524787D01*
X2958381Y1521740D02*
X2949240D01*
Y1515645D01*
X2958381Y1512598D02*
X2949240D01*
X2952287D01*
X2958381Y1506504D01*
X2953810Y1511075D01*
X2949240Y1506504D01*
X2931458Y1524787D02*
X2932981Y1526310D01*
Y1529357D01*
X2931458Y1530880D01*
X2925363D01*
X2923840Y1529357D01*
Y1526310D01*
X2925363Y1524787D01*
X2928411D01*
Y1527834D01*
X2923840Y1521740D02*
X2932981D01*
X2923840Y1515645D01*
X2932981D01*
Y1512598D02*
X2923840D01*
Y1508028D01*
X2925363Y1506504D01*
X2931458D01*
X2932981Y1508028D01*
Y1512598D01*
X2906057Y1524882D02*
X2907581Y1523359D01*
Y1520312D01*
X2906057Y1518788D01*
X2904534D01*
X2903011Y1520312D01*
Y1521835D01*
Y1520312D01*
X2901487Y1518788D01*
X2899963D01*
X2898440Y1520312D01*
Y1523359D01*
X2899963Y1524882D01*
X2907581Y1515741D02*
X2901487D01*
X2898440Y1512694D01*
X2901487Y1509647D01*
X2907581D01*
X2882181Y1518788D02*
Y1524882D01*
X2877610D01*
X2879134Y1521835D01*
Y1520312D01*
X2877610Y1518788D01*
X2874564D01*
X2873040Y1520312D01*
Y1523359D01*
X2874564Y1524882D01*
X2882181Y1515741D02*
X2876087D01*
X2873040Y1512694D01*
X2876087Y1509647D01*
X2882181D01*
X2211242Y1848140D02*
Y1857281D01*
X2205148D01*
X2160442D02*
Y1848140D01*
X2154348Y1857281D01*
Y1848140D01*
X2305453Y1857281D02*
Y1848140D01*
X2299359Y1857281D01*
Y1848140D01*
X2355237D02*
Y1857281D01*
X2349143D01*
X2501538Y1852710D02*
X2495444D01*
X2498491Y1849663D02*
Y1855757D01*
X2486303Y1848140D02*
X2492397D01*
Y1852710D01*
X2489350Y1851187D01*
X2487826D01*
X2486303Y1852710D01*
Y1855757D01*
X2487826Y1857281D01*
X2490874D01*
X2492397Y1855757D01*
X2483256Y1848140D02*
Y1854234D01*
X2480209Y1857281D01*
X2477162Y1854234D01*
Y1848140D01*
X2444644Y1849663D02*
X2446167Y1848140D01*
X2449214D01*
X2450738Y1849663D01*
Y1855757D01*
X2449214Y1857281D01*
X2446167D01*
X2444644Y1855757D01*
Y1852710D01*
X2447691D01*
X2441597Y1857281D02*
Y1848140D01*
X2435503Y1857281D01*
Y1848140D01*
X2432456D02*
Y1857281D01*
X2427885D01*
X2426362Y1855757D01*
Y1849663D01*
X2427885Y1848140D01*
X2432456D01*
X1849120Y1726690D02*
X1858261D01*
Y1722119D01*
X1856738Y1720596D01*
X1853690D01*
X1852167Y1722119D01*
Y1726690D01*
X1858261Y1717549D02*
Y1714502D01*
Y1716025D01*
X1849120D01*
Y1717549D01*
Y1714502D01*
Y1709931D02*
X1858261D01*
Y1705361D01*
X1856738Y1703837D01*
X1853690D01*
X1852167Y1705361D01*
Y1709931D01*
Y1706884D02*
X1849120Y1703837D01*
Y1691649D02*
Y1688602D01*
Y1690126D01*
X1858261D01*
X1856738Y1691649D01*
X1849120Y1639314D02*
X1858261D01*
Y1634743D01*
X1856738Y1633219D01*
X1853690D01*
X1852167Y1634743D01*
Y1639314D01*
X1858261Y1630172D02*
Y1627125D01*
Y1628649D01*
X1849120D01*
Y1630172D01*
Y1627125D01*
Y1622555D02*
X1858261D01*
Y1617984D01*
X1856738Y1616461D01*
X1853690D01*
X1852167Y1617984D01*
Y1622555D01*
Y1619508D02*
X1849120Y1616461D01*
Y1598179D02*
Y1604273D01*
X1855214Y1598179D01*
X1856738D01*
X1858261Y1599702D01*
Y1602749D01*
X1856738Y1604273D01*
X1849120Y1550414D02*
X1858261D01*
Y1545843D01*
X1856738Y1544319D01*
X1853690D01*
X1852167Y1545843D01*
Y1550414D01*
X1858261Y1541272D02*
Y1538225D01*
Y1539749D01*
X1849120D01*
Y1541272D01*
Y1538225D01*
Y1533655D02*
X1858261D01*
Y1529084D01*
X1856738Y1527561D01*
X1853690D01*
X1852167Y1529084D01*
Y1533655D01*
Y1530608D02*
X1849120Y1527561D01*
X1856738Y1515373D02*
X1858261Y1513849D01*
Y1510802D01*
X1856738Y1509279D01*
X1855214D01*
X1853690Y1510802D01*
Y1512326D01*
Y1510802D01*
X1852167Y1509279D01*
X1850643D01*
X1849120Y1510802D01*
Y1513849D01*
X1850643Y1515373D01*
X1856738Y1454151D02*
X1858261Y1455674D01*
Y1458721D01*
X1856738Y1460245D01*
X1855214D01*
X1853690Y1458721D01*
Y1455674D01*
X1852167Y1454151D01*
X1850643D01*
X1849120Y1455674D01*
Y1458721D01*
X1850643Y1460245D01*
X1849120Y1451104D02*
X1858261D01*
Y1446533D01*
X1856738Y1445010D01*
X1853690D01*
X1852167Y1446533D01*
Y1451104D01*
X1858261Y1441963D02*
X1849120D01*
X1852167D01*
X1858261Y1435869D01*
X1853690Y1440439D01*
X1849120Y1435869D01*
Y1432822D02*
X1858261D01*
Y1428251D01*
X1856738Y1426727D01*
X1853690D01*
X1852167Y1428251D01*
Y1432822D01*
Y1429774D02*
X1849120Y1426727D01*
X1856738Y1364994D02*
X1858261Y1366517D01*
Y1369565D01*
X1856738Y1371088D01*
X1850643D01*
X1849120Y1369565D01*
Y1366517D01*
X1850643Y1364994D01*
X1853690D01*
Y1368041D01*
X1849120Y1361947D02*
X1858261D01*
X1849120Y1355853D01*
X1858261D01*
Y1352806D02*
X1849120D01*
Y1348235D01*
X1850643Y1346712D01*
X1856738D01*
X1858261Y1348235D01*
Y1352806D01*
X1853690Y382009D02*
Y375915D01*
X1856738Y378962D02*
X1850643D01*
X1858261Y372868D02*
X1852167D01*
X1849120Y369821D01*
X1852167Y366774D01*
X1858261D01*
Y363727D02*
X1849120D01*
Y359156D01*
X1850643Y357633D01*
X1852167D01*
X1853690Y359156D01*
Y363727D01*
Y359156D01*
X1855214Y357633D01*
X1856738D01*
X1858261Y359156D01*
Y363727D01*
X1849120Y354586D02*
X1855214D01*
X1858261Y351539D01*
X1855214Y348492D01*
X1849120D01*
X1853690D01*
Y354586D01*
X1849120Y345445D02*
X1858261D01*
Y340874D01*
X1856738Y339351D01*
X1853690D01*
X1852167Y340874D01*
Y345445D01*
Y342398D02*
X1849120Y339351D01*
X1849120Y1314956D02*
Y1311909D01*
Y1313432D01*
X1858261D01*
X1856738Y1314956D01*
Y1307338D02*
X1858261Y1305815D01*
Y1302768D01*
X1856738Y1301244D01*
X1855214D01*
X1853690Y1302768D01*
X1852167Y1301244D01*
X1850643D01*
X1849120Y1302768D01*
Y1305815D01*
X1850643Y1307338D01*
X1852167D01*
X1853690Y1305815D01*
X1855214Y1307338D01*
X1856738D01*
X1853690Y1305815D02*
Y1302768D01*
X1849120Y1264156D02*
Y1261109D01*
Y1262632D01*
X1858261D01*
X1856738Y1264156D01*
X1858261Y1256538D02*
Y1250444D01*
X1856738D01*
X1850643Y1256538D01*
X1849120D01*
Y1213356D02*
Y1210309D01*
Y1211832D01*
X1858261D01*
X1856738Y1213356D01*
X1858261Y1199644D02*
X1856738Y1202691D01*
X1853690Y1205738D01*
X1850643D01*
X1849120Y1204215D01*
Y1201168D01*
X1850643Y1199644D01*
X1852167D01*
X1853690Y1201168D01*
Y1205738D01*
X1849120Y1162556D02*
Y1159509D01*
Y1161032D01*
X1858261D01*
X1856738Y1162556D01*
X1858261Y1148844D02*
Y1154938D01*
X1853690D01*
X1855214Y1151891D01*
Y1150368D01*
X1853690Y1148844D01*
X1850643D01*
X1849120Y1150368D01*
Y1153415D01*
X1850643Y1154938D01*
X1849120Y1111756D02*
Y1108709D01*
Y1110232D01*
X1858261D01*
X1856738Y1111756D01*
X1849120Y1099568D02*
X1858261D01*
X1853690Y1104138D01*
Y1098044D01*
X1849120Y1060956D02*
Y1057909D01*
Y1059432D01*
X1858261D01*
X1856738Y1060956D01*
Y1053338D02*
X1858261Y1051815D01*
Y1048768D01*
X1856738Y1047244D01*
X1855214D01*
X1853690Y1048768D01*
Y1050291D01*
Y1048768D01*
X1852167Y1047244D01*
X1850643D01*
X1849120Y1048768D01*
Y1051815D01*
X1850643Y1053338D01*
X1849120Y1010156D02*
Y1007109D01*
Y1008632D01*
X1858261D01*
X1856738Y1010156D01*
X1849120Y996444D02*
Y1002538D01*
X1855214Y996444D01*
X1856738D01*
X1858261Y997968D01*
Y1001015D01*
X1856738Y1002538D01*
X1849120Y957832D02*
Y954785D01*
Y956309D01*
X1858261D01*
X1856738Y957832D01*
X1849120Y950215D02*
Y947168D01*
Y948691D01*
X1858261D01*
X1856738Y950215D01*
X1849120Y908556D02*
Y905509D01*
Y907032D01*
X1858261D01*
X1856738Y908556D01*
Y900938D02*
X1858261Y899415D01*
Y896368D01*
X1856738Y894844D01*
X1850643D01*
X1849120Y896368D01*
Y899415D01*
X1850643Y900938D01*
X1856738D01*
X1850643Y819404D02*
X1849120Y817880D01*
Y814833D01*
X1850643Y813309D01*
X1856738D01*
X1858261Y814833D01*
Y817880D01*
X1856738Y819404D01*
X1855214D01*
X1853690Y817880D01*
Y813309D01*
X1856738Y768604D02*
X1858261Y767080D01*
Y764033D01*
X1856738Y762510D01*
X1855214D01*
X1853690Y764033D01*
X1852167Y762510D01*
X1850643D01*
X1849120Y764033D01*
Y767080D01*
X1850643Y768604D01*
X1852167D01*
X1853690Y767080D01*
X1855214Y768604D01*
X1856738D01*
X1853690Y767080D02*
Y764033D01*
X1858261Y717803D02*
Y711710D01*
X1856738D01*
X1850643Y717803D01*
X1849120D01*
X1858261Y660910D02*
X1856738Y663957D01*
X1853690Y667003D01*
X1850643D01*
X1849120Y665480D01*
Y662433D01*
X1850643Y660910D01*
X1852167D01*
X1853690Y662433D01*
Y667003D01*
X1858261Y610109D02*
Y616203D01*
X1853690D01*
X1855214Y613157D01*
Y611633D01*
X1853690Y610109D01*
X1850643D01*
X1849120Y611633D01*
Y614680D01*
X1850643Y616203D01*
X1849120Y560833D02*
X1858261D01*
X1853690Y565404D01*
Y559310D01*
X1856738Y514604D02*
X1858261Y513080D01*
Y510033D01*
X1856738Y508509D01*
X1855214D01*
X1853690Y510033D01*
Y511557D01*
Y510033D01*
X1852167Y508509D01*
X1850643D01*
X1849120Y510033D01*
Y513080D01*
X1850643Y514604D01*
X1849120Y457710D02*
Y463803D01*
X1855214Y457710D01*
X1856738D01*
X1858261Y459233D01*
Y462280D01*
X1856738Y463803D01*
X1849120Y413004D02*
Y409957D01*
Y411480D01*
X1858261D01*
X1856738Y413004D01*
X3356514Y1240294D02*
Y1234200D01*
X3361085D01*
X3359561Y1237247D01*
Y1238771D01*
X3361085Y1240294D01*
X3364131D01*
X3365655Y1238771D01*
Y1235723D01*
X3364131Y1234200D01*
X3356514Y1243341D02*
X3362608D01*
X3365655Y1246388D01*
X3362608Y1249435D01*
X3356514D01*
X2950114Y1240294D02*
Y1234200D01*
X2954684D01*
X2953161Y1237247D01*
Y1238771D01*
X2954684Y1240294D01*
X2957732D01*
X2959255Y1238771D01*
Y1235723D01*
X2957732Y1234200D01*
X2959255Y1249435D02*
Y1243341D01*
X2953161Y1249435D01*
X2951638D01*
X2950114Y1247912D01*
Y1244865D01*
X2951638Y1243341D01*
X2975514Y1240294D02*
Y1234200D01*
X2980085D01*
X2978561Y1237247D01*
Y1238771D01*
X2980085Y1240294D01*
X2983131D01*
X2984655Y1238771D01*
Y1235723D01*
X2983131Y1234200D01*
X2977037Y1243341D02*
X2975514Y1244865D01*
Y1247912D01*
X2977037Y1249435D01*
X2983131D01*
X2984655Y1247912D01*
Y1244865D01*
X2983131Y1243341D01*
X2977037D01*
X3010055Y1238771D02*
X3000914D01*
X3005485Y1234200D01*
Y1240294D01*
X3002437Y1243341D02*
X3000914Y1244865D01*
Y1247912D01*
X3002437Y1249435D01*
X3003961D01*
X3005485Y1247912D01*
X3007008Y1249435D01*
X3008531D01*
X3010055Y1247912D01*
Y1244865D01*
X3008531Y1243341D01*
X3007008D01*
X3005485Y1244865D01*
X3003961Y1243341D01*
X3002437D01*
X3005485Y1244865D02*
Y1247912D01*
X3035455Y1238771D02*
X3026314D01*
X3030884Y1234200D01*
Y1240294D01*
X3026314Y1249435D02*
X3027838Y1246388D01*
X3030884Y1243341D01*
X3033932D01*
X3035455Y1244865D01*
Y1247912D01*
X3033932Y1249435D01*
X3032408D01*
X3030884Y1247912D01*
Y1243341D01*
X3060855Y1238771D02*
X3051714D01*
X3056284Y1234200D01*
Y1240294D01*
X3060855Y1247912D02*
X3051714D01*
X3056284Y1243341D01*
Y1249435D01*
X3086255Y1238771D02*
X3077114D01*
X3081685Y1234200D01*
Y1240294D01*
X3086255Y1249435D02*
Y1243341D01*
X3080161Y1249435D01*
X3078637D01*
X3077114Y1247912D01*
Y1244865D01*
X3078637Y1243341D01*
X3111655Y1238771D02*
X3102514D01*
X3107084Y1234200D01*
Y1240294D01*
X3104037Y1243341D02*
X3102514Y1244865D01*
Y1247912D01*
X3104037Y1249435D01*
X3110132D01*
X3111655Y1247912D01*
Y1244865D01*
X3110132Y1243341D01*
X3104037D01*
X3129438Y1234200D02*
X3127914Y1235723D01*
Y1238771D01*
X3129438Y1240294D01*
X3130961D01*
X3132484Y1238771D01*
Y1237247D01*
Y1238771D01*
X3134008Y1240294D01*
X3135532D01*
X3137055Y1238771D01*
Y1235723D01*
X3135532Y1234200D01*
X3129438Y1243341D02*
X3127914Y1244865D01*
Y1247912D01*
X3129438Y1249435D01*
X3130961D01*
X3132484Y1247912D01*
X3134008Y1249435D01*
X3135532D01*
X3137055Y1247912D01*
Y1244865D01*
X3135532Y1243341D01*
X3134008D01*
X3132484Y1244865D01*
X3130961Y1243341D01*
X3129438D01*
X3132484Y1244865D02*
Y1247912D01*
X3154838Y1234200D02*
X3153314Y1235723D01*
Y1238771D01*
X3154838Y1240294D01*
X3156361D01*
X3157885Y1238771D01*
Y1237247D01*
Y1238771D01*
X3159408Y1240294D01*
X3160931D01*
X3162455Y1238771D01*
Y1235723D01*
X3160931Y1234200D01*
X3153314Y1249435D02*
X3154838Y1246388D01*
X3157885Y1243341D01*
X3160931D01*
X3162455Y1244865D01*
Y1247912D01*
X3160931Y1249435D01*
X3159408D01*
X3157885Y1247912D01*
Y1243341D01*
X3180237Y1234200D02*
X3178714Y1235723D01*
Y1238771D01*
X3180237Y1240294D01*
X3181761D01*
X3183285Y1238771D01*
Y1237247D01*
Y1238771D01*
X3184808Y1240294D01*
X3186331D01*
X3187855Y1238771D01*
Y1235723D01*
X3186331Y1234200D01*
X3187855Y1247912D02*
X3178714D01*
X3183285Y1243341D01*
Y1249435D01*
X3205638Y1234200D02*
X3204114Y1235723D01*
Y1238771D01*
X3205638Y1240294D01*
X3207161D01*
X3208684Y1238771D01*
Y1237247D01*
Y1238771D01*
X3210208Y1240294D01*
X3211732D01*
X3213255Y1238771D01*
Y1235723D01*
X3211732Y1234200D01*
X3213255Y1249435D02*
Y1243341D01*
X3207161Y1249435D01*
X3205638D01*
X3204114Y1247912D01*
Y1244865D01*
X3205638Y1243341D01*
X3231038Y1234200D02*
X3229514Y1235723D01*
Y1238771D01*
X3231038Y1240294D01*
X3232561D01*
X3234084Y1238771D01*
Y1237247D01*
Y1238771D01*
X3235608Y1240294D01*
X3237131D01*
X3238655Y1238771D01*
Y1235723D01*
X3237131Y1234200D01*
X3231038Y1243341D02*
X3229514Y1244865D01*
Y1247912D01*
X3231038Y1249435D01*
X3237131D01*
X3238655Y1247912D01*
Y1244865D01*
X3237131Y1243341D01*
X3231038D01*
X3264055Y1240294D02*
Y1234200D01*
X3257961Y1240294D01*
X3256437D01*
X3254914Y1238771D01*
Y1235723D01*
X3256437Y1234200D01*
Y1243341D02*
X3254914Y1244865D01*
Y1247912D01*
X3256437Y1249435D01*
X3257961D01*
X3259485Y1247912D01*
X3261008Y1249435D01*
X3262531D01*
X3264055Y1247912D01*
Y1244865D01*
X3262531Y1243341D01*
X3261008D01*
X3259485Y1244865D01*
X3257961Y1243341D01*
X3256437D01*
X3259485Y1244865D02*
Y1247912D01*
X3289455Y1240294D02*
Y1234200D01*
X3283361Y1240294D01*
X3281837D01*
X3280314Y1238771D01*
Y1235723D01*
X3281837Y1234200D01*
X3280314Y1249435D02*
X3281837Y1246388D01*
X3284885Y1243341D01*
X3287932D01*
X3289455Y1244865D01*
Y1247912D01*
X3287932Y1249435D01*
X3286408D01*
X3284885Y1247912D01*
Y1243341D01*
X3314855Y1240294D02*
Y1234200D01*
X3308761Y1240294D01*
X3307238D01*
X3305714Y1238771D01*
Y1235723D01*
X3307238Y1234200D01*
X3314855Y1247912D02*
X3305714D01*
X3310284Y1243341D01*
Y1249435D01*
X3340255Y1240294D02*
Y1234200D01*
X3334161Y1240294D01*
X3332638D01*
X3331114Y1238771D01*
Y1235723D01*
X3332638Y1234200D01*
X3340255Y1249435D02*
Y1243341D01*
X3334161Y1249435D01*
X3332638D01*
X3331114Y1247912D01*
Y1244865D01*
X3332638Y1243341D01*
X3340255Y745253D02*
X3338731Y743729D01*
X3335685D01*
X3334161Y745253D01*
Y746776D01*
X3335685Y748299D01*
X3334161Y749823D01*
Y751347D01*
X3335685Y752870D01*
X3338731D01*
X3340255Y751347D01*
Y749823D01*
X3338731Y748299D01*
X3340255Y746776D01*
Y745253D01*
X3338731Y748299D02*
X3335685D01*
X3340255Y575070D02*
Y568976D01*
X3337208Y565929D01*
X3334161Y568976D01*
Y575070D01*
Y570499D01*
X3340255D01*
X3331114Y575070D02*
Y565929D01*
X3326543D01*
X3325020Y567453D01*
Y570499D01*
X3326543Y572023D01*
X3331114D01*
X3328067D02*
X3325020Y575070D01*
X3315879Y565929D02*
X3321973D01*
Y575070D01*
X3315879D01*
X3321973Y570499D02*
X3318926D01*
X3306738Y565929D02*
X3312832D01*
Y570499D01*
X3309785D01*
X3312832D01*
Y575070D01*
X3334161Y592853D02*
X3335685Y591329D01*
X3338731D01*
X3340255Y592853D01*
Y598946D01*
X3338731Y600470D01*
X3335685D01*
X3334161Y598946D01*
Y595900D01*
X3337208D01*
X3331114Y600470D02*
Y591329D01*
X3325020Y600470D01*
Y591329D01*
X3321973D02*
Y600470D01*
X3317402D01*
X3315879Y598946D01*
Y592853D01*
X3317402Y591329D01*
X3321973D01*
X3340255Y625870D02*
X3337208D01*
X3338731D01*
Y616729D01*
X3340255Y618252D01*
X3332638D02*
X3331114Y616729D01*
X3328067D01*
X3326543Y618252D01*
Y619776D01*
X3328067Y621300D01*
X3329590D01*
X3328067D01*
X3326543Y622823D01*
Y624347D01*
X3328067Y625870D01*
X3331114D01*
X3332638Y624347D01*
X3340255Y651270D02*
X3337208D01*
X3338731D01*
Y642129D01*
X3340255Y643652D01*
X3326543Y651270D02*
X3332638D01*
X3326543Y645176D01*
Y643652D01*
X3328067Y642129D01*
X3331114D01*
X3332638Y643652D01*
X3340255Y676670D02*
X3337208D01*
X3338731D01*
Y667529D01*
X3340255Y669053D01*
X3332638Y676670D02*
X3329590D01*
X3331114D01*
Y667529D01*
X3332638Y669053D01*
X3340255Y702070D02*
X3337208D01*
X3338731D01*
Y692929D01*
X3340255Y694453D01*
X3332638D02*
X3331114Y692929D01*
X3328067D01*
X3326543Y694453D01*
Y700546D01*
X3328067Y702070D01*
X3331114D01*
X3332638Y700546D01*
Y694453D01*
X3340255Y725947D02*
X3338731Y727470D01*
X3335685D01*
X3334161Y725947D01*
Y719853D01*
X3335685Y718329D01*
X3338731D01*
X3340255Y719853D01*
Y721376D01*
X3338731Y722899D01*
X3334161D01*
X3340255Y781829D02*
X3334161D01*
Y783353D01*
X3340255Y789446D01*
Y790970D01*
Y961152D02*
X3338731Y959629D01*
X3335685D01*
X3334161Y961152D01*
Y967246D01*
X3335685Y968770D01*
X3338731D01*
X3340255Y967246D01*
Y961152D01*
Y781829D02*
X3334161D01*
Y783353D01*
X3340255Y789446D01*
Y790970D01*
X3334161Y807229D02*
X3337208Y808753D01*
X3340255Y811799D01*
Y814846D01*
X3338731Y816370D01*
X3335685D01*
X3334161Y814846D01*
Y813323D01*
X3335685Y811799D01*
X3340255D01*
X3334161Y832629D02*
X3340255D01*
Y837199D01*
X3337208Y835676D01*
X3335685D01*
X3334161Y837199D01*
Y840247D01*
X3335685Y841770D01*
X3338731D01*
X3340255Y840247D01*
X3335685Y867170D02*
Y858029D01*
X3340255Y862599D01*
X3334161D01*
X3340255Y884952D02*
X3338731Y883429D01*
X3335685D01*
X3334161Y884952D01*
Y886476D01*
X3335685Y887999D01*
X3337208D01*
X3335685D01*
X3334161Y889523D01*
Y891047D01*
X3335685Y892570D01*
X3338731D01*
X3340255Y891047D01*
X3334161Y917970D02*
X3340255D01*
X3334161Y911876D01*
Y910352D01*
X3335685Y908829D01*
X3338731D01*
X3340255Y910352D01*
Y943370D02*
X3337208D01*
X3338731D01*
Y934229D01*
X3340255Y935752D01*
Y1010429D02*
X3334161D01*
X3337208D01*
Y1019570D01*
X3331114Y1010429D02*
X3325020Y1019570D01*
Y1010429D02*
X3331114Y1019570D01*
X3321973Y1011953D02*
X3320450Y1010429D01*
X3317402D01*
X3315879Y1011953D01*
Y1013476D01*
X3317402Y1014999D01*
X3318926D01*
X3317402D01*
X3315879Y1016523D01*
Y1018046D01*
X3317402Y1019570D01*
X3320450D01*
X3321973Y1018046D01*
X3340255Y1044970D02*
Y1035829D01*
X3335685D01*
X3334161Y1037353D01*
Y1040399D01*
X3335685Y1041923D01*
X3340255D01*
X3337208D02*
X3334161Y1044970D01*
X3331114Y1035829D02*
X3325020Y1044970D01*
Y1035829D02*
X3331114Y1044970D01*
X3321973Y1037353D02*
X3320450Y1035829D01*
X3317402D01*
X3315879Y1037353D01*
Y1038876D01*
X3317402Y1040399D01*
X3318926D01*
X3317402D01*
X3315879Y1041923D01*
Y1043447D01*
X3317402Y1044970D01*
X3320450D01*
X3321973Y1043447D01*
X3340255Y1061229D02*
X3334161D01*
X3337208D01*
Y1070370D01*
X3331114Y1061229D02*
X3325020Y1070370D01*
Y1061229D02*
X3331114Y1070370D01*
X3315879D02*
X3321973D01*
X3315879Y1064276D01*
Y1062753D01*
X3317402Y1061229D01*
X3320450D01*
X3321973Y1062753D01*
X3340255Y1095770D02*
Y1086629D01*
X3335685D01*
X3334161Y1088152D01*
Y1091199D01*
X3335685Y1092723D01*
X3340255D01*
X3337208D02*
X3334161Y1095770D01*
X3331114Y1086629D02*
X3325020Y1095770D01*
Y1086629D02*
X3331114Y1095770D01*
X3315879D02*
X3321973D01*
X3315879Y1089676D01*
Y1088152D01*
X3317402Y1086629D01*
X3320450D01*
X3321973Y1088152D01*
X3340255Y1112029D02*
X3334161D01*
X3337208D01*
Y1121170D01*
X3331114Y1112029D02*
X3325020Y1121170D01*
Y1112029D02*
X3331114Y1121170D01*
X3321973D02*
X3318926D01*
X3320450D01*
Y1112029D01*
X3321973Y1113552D01*
X3340255Y1146570D02*
Y1137429D01*
X3335685D01*
X3334161Y1138952D01*
Y1142000D01*
X3335685Y1143523D01*
X3340255D01*
X3337208D02*
X3334161Y1146570D01*
X3331114Y1137429D02*
X3325020Y1146570D01*
Y1137429D02*
X3331114Y1146570D01*
X3321973D02*
X3318926D01*
X3320450D01*
Y1137429D01*
X3321973Y1138952D01*
X3334161Y1164352D02*
X3335685Y1162829D01*
X3338731D01*
X3340255Y1164352D01*
Y1165876D01*
X3338731Y1167400D01*
X3335685D01*
X3334161Y1168923D01*
Y1170446D01*
X3335685Y1171970D01*
X3338731D01*
X3340255Y1170446D01*
X3331114Y1162829D02*
Y1171970D01*
X3326543D01*
X3325020Y1170446D01*
Y1164352D01*
X3326543Y1162829D01*
X3331114D01*
X3321973Y1171970D02*
Y1165876D01*
X3318926Y1162829D01*
X3315879Y1165876D01*
Y1171970D01*
Y1167400D01*
X3321973D01*
X3334161Y1189753D02*
X3335685Y1188229D01*
X3338731D01*
X3340255Y1189753D01*
Y1191276D01*
X3338731Y1192800D01*
X3335685D01*
X3334161Y1194323D01*
Y1195846D01*
X3335685Y1197370D01*
X3338731D01*
X3340255Y1195846D01*
X3325020Y1189753D02*
X3326543Y1188229D01*
X3329590D01*
X3331114Y1189753D01*
Y1195846D01*
X3329590Y1197370D01*
X3326543D01*
X3325020Y1195846D01*
X3321973Y1188229D02*
Y1197370D01*
X3315879D01*
X3334161Y1189753D02*
X3335685Y1188229D01*
X3338731D01*
X3340255Y1189753D01*
Y1191276D01*
X3338731Y1192800D01*
X3335685D01*
X3334161Y1194323D01*
Y1195846D01*
X3335685Y1197370D01*
X3338731D01*
X3340255Y1195846D01*
X3325020Y1189753D02*
X3326543Y1188229D01*
X3329590D01*
X3331114Y1189753D01*
Y1195846D01*
X3329590Y1197370D01*
X3326543D01*
X3325020Y1195846D01*
X3321973Y1188229D02*
Y1197370D01*
X3315879D01*
X2941935Y665000D02*
Y655859D01*
X2937364D01*
X2935841Y657383D01*
Y660430D01*
X2937364Y661953D01*
X2941935D01*
X2938888D02*
X2935841Y665000D01*
X2926700Y655859D02*
X2932794D01*
Y665000D01*
X2926700D01*
X2932794Y660430D02*
X2929747D01*
X2917559Y657383D02*
X2919082Y655859D01*
X2922129D01*
X2923653Y657383D01*
Y658906D01*
X2922129Y660430D01*
X2919082D01*
X2917559Y661953D01*
Y663476D01*
X2919082Y665000D01*
X2922129D01*
X2923653Y663476D01*
X2908418Y655859D02*
X2914512D01*
Y665000D01*
X2908418D01*
X2914512Y660430D02*
X2911465D01*
X2905370Y655859D02*
X2899277D01*
X2902324D01*
Y665000D01*
X2931270Y682783D02*
X2929747Y681259D01*
X2926700D01*
X2925176Y682783D01*
Y684306D01*
X2926700Y685829D01*
X2928223D01*
X2926700D01*
X2925176Y687353D01*
Y688876D01*
X2926700Y690400D01*
X2929747D01*
X2931270Y688876D01*
X2922129Y690400D02*
Y688876D01*
X2920606D01*
Y690400D01*
X2922129D01*
X2914512Y682783D02*
X2912988Y681259D01*
X2909941D01*
X2908418Y682783D01*
Y684306D01*
X2909941Y685829D01*
X2911465D01*
X2909941D01*
X2908418Y687353D01*
Y688876D01*
X2909941Y690400D01*
X2912988D01*
X2914512Y688876D01*
X2905370Y681259D02*
Y687353D01*
X2902324Y690400D01*
X2899277Y687353D01*
Y681259D01*
X2908418Y706659D02*
X2914512D01*
Y711229D01*
X2911465Y709706D01*
X2909941D01*
X2908418Y711229D01*
Y714277D01*
X2909941Y715800D01*
X2912988D01*
X2914512Y714277D01*
X2905370Y706659D02*
Y712753D01*
X2902324Y715800D01*
X2899277Y712753D01*
Y706659D01*
X2917559Y733583D02*
X2919082Y732059D01*
X2922129D01*
X2923653Y733583D01*
Y739677D01*
X2922129Y741200D01*
X2919082D01*
X2917559Y739677D01*
Y736629D01*
X2920606D01*
X2914512Y741200D02*
Y732059D01*
X2908418Y741200D01*
Y732059D01*
X2905370D02*
Y741200D01*
X2900800D01*
X2899277Y739677D01*
Y733583D01*
X2900800Y732059D01*
X2905370D01*
X2917559Y758982D02*
X2919082Y757459D01*
X2922129D01*
X2923653Y758982D01*
Y765077D01*
X2922129Y766600D01*
X2919082D01*
X2917559Y765077D01*
Y762029D01*
X2920606D01*
X2914512Y766600D02*
Y757459D01*
X2908418Y766600D01*
Y757459D01*
X2905370D02*
Y766600D01*
X2900800D01*
X2899277Y765077D01*
Y758982D01*
X2900800Y757459D01*
X2905370D01*
X2922129Y782859D02*
Y788953D01*
X2919082Y792000D01*
X2916035Y788953D01*
Y782859D01*
X2912988Y792000D02*
X2909941D01*
X2911465D01*
Y785906D01*
X2912988D01*
X2905370Y792000D02*
Y785906D01*
X2900800D01*
X2899277Y787430D01*
Y792000D01*
X2940411Y630459D02*
X2937364D01*
X2938888D01*
Y639600D01*
X2940411D01*
X2937364D01*
X2928223Y630459D02*
X2931270D01*
X2932794Y631982D01*
Y638077D01*
X2931270Y639600D01*
X2928223D01*
X2926700Y638077D01*
Y631982D01*
X2928223Y630459D01*
X2923653Y639600D02*
Y630459D01*
X2919082D01*
X2917559Y631982D01*
Y635029D01*
X2919082Y636553D01*
X2923653D01*
X2920606D02*
X2917559Y639600D01*
X2908418Y630459D02*
X2914512D01*
Y639600D01*
X2908418D01*
X2914512Y635029D02*
X2911465D01*
X2899277Y630459D02*
X2905370D01*
Y635029D01*
X2902324D01*
X2905370D01*
Y639600D01*
X2911465Y867170D02*
Y861076D01*
X2908418Y858029D01*
X2905370Y861076D01*
Y867170D01*
Y862599D01*
X2911465D01*
X2902324Y867170D02*
X2899277D01*
X2900800D01*
Y858029D01*
X2902324Y859553D01*
X2914512Y892570D02*
Y886476D01*
X2911465Y883429D01*
X2908418Y886476D01*
Y892570D01*
Y887999D01*
X2914512D01*
X2899277Y892570D02*
X2905370D01*
X2899277Y886476D01*
Y884952D01*
X2900800Y883429D01*
X2903847D01*
X2905370Y884952D01*
X2914512Y917970D02*
Y911876D01*
X2911465Y908829D01*
X2908418Y911876D01*
Y917970D01*
Y913400D01*
X2914512D01*
X2905370Y910352D02*
X2903847Y908829D01*
X2900800D01*
X2899277Y910352D01*
Y911876D01*
X2900800Y913400D01*
X2902324D01*
X2900800D01*
X2899277Y914923D01*
Y916447D01*
X2900800Y917970D01*
X2903847D01*
X2905370Y916447D01*
X2914512Y943370D02*
Y937276D01*
X2911465Y934229D01*
X2908418Y937276D01*
Y943370D01*
Y938800D01*
X2914512D01*
X2900800Y943370D02*
Y934229D01*
X2905370Y938800D01*
X2899277D01*
X2914512Y968770D02*
Y962676D01*
X2911465Y959629D01*
X2908418Y962676D01*
Y968770D01*
Y964200D01*
X2914512D01*
X2899277Y959629D02*
X2905370D01*
Y964200D01*
X2902324Y962676D01*
X2900800D01*
X2899277Y964200D01*
Y967246D01*
X2900800Y968770D01*
X2903847D01*
X2905370Y967246D01*
X2914512Y994170D02*
Y988076D01*
X2911465Y985029D01*
X2908418Y988076D01*
Y994170D01*
Y989600D01*
X2914512D01*
X2899277Y985029D02*
X2902324Y986553D01*
X2905370Y989600D01*
Y992646D01*
X2903847Y994170D01*
X2900800D01*
X2899277Y992646D01*
Y991123D01*
X2900800Y989600D01*
X2905370D01*
X2914512Y1019570D02*
Y1013476D01*
X2911465Y1010429D01*
X2908418Y1013476D01*
Y1019570D01*
Y1014999D01*
X2914512D01*
X2905370Y1010429D02*
X2899277D01*
Y1011953D01*
X2905370Y1018046D01*
Y1019570D01*
X2914512Y841770D02*
Y835676D01*
X2911465Y832629D01*
X2908418Y835676D01*
Y841770D01*
Y837199D01*
X2914512D01*
X2905370Y834153D02*
X2903847Y832629D01*
X2900800D01*
X2899277Y834153D01*
Y840247D01*
X2900800Y841770D01*
X2903847D01*
X2905370Y840247D01*
Y834153D01*
X2914512Y1070370D02*
Y1064276D01*
X2911465Y1061229D01*
X2908418Y1064276D01*
Y1070370D01*
Y1065799D01*
X2914512D01*
X2905370Y1062753D02*
X2903847Y1061229D01*
X2900800D01*
X2899277Y1062753D01*
Y1064276D01*
X2900800Y1065799D01*
X2899277Y1067323D01*
Y1068847D01*
X2900800Y1070370D01*
X2903847D01*
X2905370Y1068847D01*
Y1067323D01*
X2903847Y1065799D01*
X2905370Y1064276D01*
Y1062753D01*
X2903847Y1065799D02*
X2900800D01*
X2914512Y1095770D02*
Y1089676D01*
X2911465Y1086629D01*
X2908418Y1089676D01*
Y1095770D01*
Y1091199D01*
X2914512D01*
X2905370Y1094247D02*
X2903847Y1095770D01*
X2900800D01*
X2899277Y1094247D01*
Y1088152D01*
X2900800Y1086629D01*
X2903847D01*
X2905370Y1088152D01*
Y1089676D01*
X2903847Y1091199D01*
X2899277D01*
X2922129Y1121170D02*
Y1115076D01*
X2919082Y1112029D01*
X2916035Y1115076D01*
Y1121170D01*
Y1116600D01*
X2922129D01*
X2912988Y1121170D02*
X2909941D01*
X2911465D01*
Y1112029D01*
X2912988Y1113552D01*
X2905370D02*
X2903847Y1112029D01*
X2900800D01*
X2899277Y1113552D01*
Y1119647D01*
X2900800Y1121170D01*
X2903847D01*
X2905370Y1119647D01*
Y1113552D01*
X2919082Y1146570D02*
Y1140476D01*
X2916035Y1137429D01*
X2912988Y1140476D01*
Y1146570D01*
Y1142000D01*
X2919082D01*
X2909941Y1146570D02*
X2906894D01*
X2908418D01*
Y1137429D01*
X2909941Y1138952D01*
X2902324Y1146570D02*
X2899277D01*
X2900800D01*
Y1137429D01*
X2902324Y1138952D01*
X2922129Y1171970D02*
Y1165876D01*
X2919082Y1162829D01*
X2916035Y1165876D01*
Y1171970D01*
Y1167400D01*
X2922129D01*
X2912988Y1171970D02*
X2909941D01*
X2911465D01*
Y1162829D01*
X2912988Y1164352D01*
X2899277Y1171970D02*
X2905370D01*
X2899277Y1165876D01*
Y1164352D01*
X2900800Y1162829D01*
X2903847D01*
X2905370Y1164352D01*
X2922129Y1197370D02*
Y1191276D01*
X2919082Y1188229D01*
X2916035Y1191276D01*
Y1197370D01*
Y1192800D01*
X2922129D01*
X2912988Y1197370D02*
X2909941D01*
X2911465D01*
Y1188229D01*
X2912988Y1189753D01*
X2905370D02*
X2903847Y1188229D01*
X2900800D01*
X2899277Y1189753D01*
Y1191276D01*
X2900800Y1192800D01*
X2902324D01*
X2900800D01*
X2899277Y1194323D01*
Y1195846D01*
X2900800Y1197370D01*
X2903847D01*
X2905370Y1195846D01*
X2922129Y1222770D02*
Y1216676D01*
X2919082Y1213629D01*
X2916035Y1216676D01*
Y1222770D01*
Y1218199D01*
X2922129D01*
X2912988Y1222770D02*
X2909941D01*
X2911465D01*
Y1213629D01*
X2912988Y1215153D01*
X2900800Y1222770D02*
Y1213629D01*
X2905370Y1218199D01*
X2899277D01*
X2922129Y1248170D02*
Y1242076D01*
X2919082Y1239029D01*
X2916035Y1242076D01*
Y1248170D01*
Y1243599D01*
X2922129D01*
X2912988Y1248170D02*
X2909941D01*
X2911465D01*
Y1239029D01*
X2912988Y1240553D01*
X2899277Y1239029D02*
X2905370D01*
Y1243599D01*
X2902324Y1242076D01*
X2900800D01*
X2899277Y1243599D01*
Y1246646D01*
X2900800Y1248170D01*
X2903847D01*
X2905370Y1246646D01*
X2926237Y1322844D02*
X2924714Y1321320D01*
Y1318273D01*
X2926237Y1316750D01*
X2932332D01*
X2933855Y1318273D01*
Y1321320D01*
X2932332Y1322844D01*
X2929284D01*
Y1319797D01*
X2933855Y1325891D02*
X2924714D01*
X2933855Y1331985D01*
X2924714D01*
Y1335032D02*
X2933855D01*
Y1339603D01*
X2932332Y1341126D01*
X2926237D01*
X2924714Y1339603D01*
Y1335032D01*
X3340255Y1322844D02*
Y1316750D01*
X3334161Y1322844D01*
X3332638D01*
X3331114Y1321320D01*
Y1318273D01*
X3332638Y1316750D01*
Y1325891D02*
X3331114Y1327415D01*
Y1330462D01*
X3332638Y1331985D01*
X3334161D01*
X3335685Y1330462D01*
Y1328938D01*
Y1330462D01*
X3337208Y1331985D01*
X3338731D01*
X3340255Y1330462D01*
Y1327415D01*
X3338731Y1325891D01*
X3314855Y1322844D02*
Y1316750D01*
X3308761Y1322844D01*
X3307238D01*
X3305714Y1321320D01*
Y1318273D01*
X3307238Y1316750D01*
X3305714Y1331985D02*
Y1325891D01*
X3310284D01*
X3308761Y1328938D01*
Y1330462D01*
X3310284Y1331985D01*
X3313332D01*
X3314855Y1330462D01*
Y1327415D01*
X3313332Y1325891D01*
X3289455Y1322844D02*
Y1316750D01*
X3283361Y1322844D01*
X3281837D01*
X3280314Y1321320D01*
Y1318273D01*
X3281837Y1316750D01*
X3280314Y1325891D02*
Y1331985D01*
X3281837D01*
X3287932Y1325891D01*
X3289455D01*
X3264055Y1322844D02*
Y1316750D01*
X3257961Y1322844D01*
X3256437D01*
X3254914Y1321320D01*
Y1318273D01*
X3256437Y1316750D01*
X3262531Y1325891D02*
X3264055Y1327415D01*
Y1330462D01*
X3262531Y1331985D01*
X3256437D01*
X3254914Y1330462D01*
Y1327415D01*
X3256437Y1325891D01*
X3257961D01*
X3259485Y1327415D01*
Y1331985D01*
X3231038Y1316750D02*
X3229514Y1318273D01*
Y1321320D01*
X3231038Y1322844D01*
X3232561D01*
X3234084Y1321320D01*
Y1319797D01*
Y1321320D01*
X3235608Y1322844D01*
X3237131D01*
X3238655Y1321320D01*
Y1318273D01*
X3237131Y1316750D01*
X3238655Y1325891D02*
Y1328938D01*
Y1327415D01*
X3229514D01*
X3231038Y1325891D01*
X3205638Y1316750D02*
X3204114Y1318273D01*
Y1321320D01*
X3205638Y1322844D01*
X3207161D01*
X3208684Y1321320D01*
Y1319797D01*
Y1321320D01*
X3210208Y1322844D01*
X3211732D01*
X3213255Y1321320D01*
Y1318273D01*
X3211732Y1316750D01*
X3205638Y1325891D02*
X3204114Y1327415D01*
Y1330462D01*
X3205638Y1331985D01*
X3207161D01*
X3208684Y1330462D01*
Y1328938D01*
Y1330462D01*
X3210208Y1331985D01*
X3211732D01*
X3213255Y1330462D01*
Y1327415D01*
X3211732Y1325891D01*
X3180237Y1316750D02*
X3178714Y1318273D01*
Y1321320D01*
X3180237Y1322844D01*
X3181761D01*
X3183285Y1321320D01*
Y1319797D01*
Y1321320D01*
X3184808Y1322844D01*
X3186331D01*
X3187855Y1321320D01*
Y1318273D01*
X3186331Y1316750D01*
X3178714Y1331985D02*
Y1325891D01*
X3183285D01*
X3181761Y1328938D01*
Y1330462D01*
X3183285Y1331985D01*
X3186331D01*
X3187855Y1330462D01*
Y1327415D01*
X3186331Y1325891D01*
X3154838Y1316750D02*
X3153314Y1318273D01*
Y1321320D01*
X3154838Y1322844D01*
X3156361D01*
X3157885Y1321320D01*
Y1319797D01*
Y1321320D01*
X3159408Y1322844D01*
X3160931D01*
X3162455Y1321320D01*
Y1318273D01*
X3160931Y1316750D01*
X3153314Y1325891D02*
Y1331985D01*
X3154838D01*
X3160931Y1325891D01*
X3162455D01*
X3129438Y1316750D02*
X3127914Y1318273D01*
Y1321320D01*
X3129438Y1322844D01*
X3130961D01*
X3132484Y1321320D01*
Y1319797D01*
Y1321320D01*
X3134008Y1322844D01*
X3135532D01*
X3137055Y1321320D01*
Y1318273D01*
X3135532Y1316750D01*
Y1325891D02*
X3137055Y1327415D01*
Y1330462D01*
X3135532Y1331985D01*
X3129438D01*
X3127914Y1330462D01*
Y1327415D01*
X3129438Y1325891D01*
X3130961D01*
X3132484Y1327415D01*
Y1331985D01*
X3111655Y1321320D02*
X3102514D01*
X3107084Y1316750D01*
Y1322844D01*
X3111655Y1325891D02*
Y1328938D01*
Y1327415D01*
X3102514D01*
X3104037Y1325891D01*
X3086255Y1321320D02*
X3077114D01*
X3081685Y1316750D01*
Y1322844D01*
X3078637Y1325891D02*
X3077114Y1327415D01*
Y1330462D01*
X3078637Y1331985D01*
X3080161D01*
X3081685Y1330462D01*
Y1328938D01*
Y1330462D01*
X3083208Y1331985D01*
X3084731D01*
X3086255Y1330462D01*
Y1327415D01*
X3084731Y1325891D01*
X3060855Y1321320D02*
X3051714D01*
X3056284Y1316750D01*
Y1322844D01*
X3051714Y1331985D02*
Y1325891D01*
X3056284D01*
X3054761Y1328938D01*
Y1330462D01*
X3056284Y1331985D01*
X3059331D01*
X3060855Y1330462D01*
Y1327415D01*
X3059331Y1325891D01*
X3035455Y1321320D02*
X3026314D01*
X3030884Y1316750D01*
Y1322844D01*
X3026314Y1325891D02*
Y1331985D01*
X3027838D01*
X3033932Y1325891D01*
X3035455D01*
X3010055Y1321320D02*
X3000914D01*
X3005485Y1316750D01*
Y1322844D01*
X3008531Y1325891D02*
X3010055Y1327415D01*
Y1330462D01*
X3008531Y1331985D01*
X3002437D01*
X3000914Y1330462D01*
Y1327415D01*
X3002437Y1325891D01*
X3003961D01*
X3005485Y1327415D01*
Y1331985D01*
X2975514Y1322844D02*
Y1316750D01*
X2980085D01*
X2978561Y1319797D01*
Y1321320D01*
X2980085Y1322844D01*
X2983131D01*
X2984655Y1321320D01*
Y1318273D01*
X2983131Y1316750D01*
X2984655Y1325891D02*
Y1328938D01*
Y1327415D01*
X2975514D01*
X2977037Y1325891D01*
X2950114Y1322844D02*
Y1316750D01*
X2954684D01*
X2953161Y1319797D01*
Y1321320D01*
X2954684Y1322844D01*
X2957732D01*
X2959255Y1321320D01*
Y1318273D01*
X2957732Y1316750D01*
X2951638Y1325891D02*
X2950114Y1327415D01*
Y1330462D01*
X2951638Y1331985D01*
X2953161D01*
X2954684Y1330462D01*
Y1328938D01*
Y1330462D01*
X2956208Y1331985D01*
X2957732D01*
X2959255Y1330462D01*
Y1327415D01*
X2957732Y1325891D01*
X3356514Y1322844D02*
Y1316750D01*
X3361085D01*
X3359561Y1319797D01*
Y1321320D01*
X3361085Y1322844D01*
X3364131D01*
X3365655Y1321320D01*
Y1318273D01*
X3364131Y1316750D01*
X3356514Y1325891D02*
X3362608D01*
X3365655Y1328938D01*
X3362608Y1331985D01*
X3356514D01*
X2074126Y1629410D02*
Y1635504D01*
X2077173Y1638551D01*
X2080220Y1635504D01*
Y1629410D01*
Y1633981D01*
X2074126D01*
X2089361Y1637027D02*
X2087838Y1638551D01*
X2084790D01*
X2083267Y1637027D01*
Y1630934D01*
X2084790Y1629410D01*
X2087838D01*
X2089361Y1630934D01*
X2092408Y1629410D02*
X2098502Y1635504D01*
X2101549Y1638551D02*
Y1629410D01*
X2107643D01*
X2074126Y1419860D02*
Y1425954D01*
X2077173Y1429001D01*
X2080220Y1425954D01*
Y1419860D01*
Y1424431D01*
X2074126D01*
X2089361Y1427478D02*
X2087838Y1429001D01*
X2084790D01*
X2083267Y1427478D01*
Y1421384D01*
X2084790Y1419860D01*
X2087838D01*
X2089361Y1421384D01*
X2092408Y1419860D02*
X2098502Y1425954D01*
X2101549Y1419860D02*
Y1429001D01*
X2107643Y1419860D01*
Y1429001D01*
X2474176Y1424431D02*
X2480270D01*
X2483317Y1429001D02*
Y1422907D01*
X2486364Y1419860D01*
X2489411Y1422907D01*
Y1429001D01*
X2474176Y1504440D02*
X2480270D01*
X2477223Y1507487D02*
Y1501393D01*
X2483317Y1509011D02*
Y1502917D01*
X2486364Y1499870D01*
X2489411Y1502917D01*
Y1509011D01*
X2675892Y934640D02*
Y941411D01*
X2672506Y938026D02*
X2679277D01*
X2670813Y944797D02*
X2677585D01*
X2680970Y948182D01*
X2677585Y951568D01*
X2670813D01*
X2682240Y1017190D02*
X2675469D01*
X2672083Y1020576D01*
X2675469Y1023961D01*
X2682240D01*
X2677162D01*
Y1017190D01*
X2673776Y1034118D02*
X2672083Y1032425D01*
Y1029040D01*
X2673776Y1027347D01*
X2680547D01*
X2682240Y1029040D01*
Y1032425D01*
X2680547Y1034118D01*
X2768600Y934640D02*
X2761829D01*
X2758443Y938026D01*
X2761829Y941411D01*
X2768600D01*
X2763522D01*
Y934640D01*
X2760136Y951568D02*
X2758443Y949875D01*
Y946489D01*
X2760136Y944797D01*
X2766907D01*
X2768600Y946489D01*
Y949875D01*
X2766907Y951568D01*
X2764792Y1029890D02*
Y1036661D01*
X2759713Y1040047D02*
X2766484D01*
X2769870Y1043432D01*
X2766484Y1046818D01*
X2759713D01*
X2589275Y376679D02*
X2586227D01*
X2584704Y375155D01*
Y369062D01*
X2586227Y367538D01*
X2589275D01*
X2590798Y369062D01*
Y375155D01*
X2589275Y376679D01*
X2593845Y367538D02*
X2596892D01*
X2595369D01*
Y376679D01*
X2593845Y375155D01*
X2601463Y367538D02*
X2604510D01*
X2602986D01*
Y376679D01*
X2601463Y375155D01*
X3434334Y1329947D02*
Y1337565D01*
X3432810Y1339088D01*
X3429763D01*
X3428240Y1337565D01*
Y1329947D01*
X3419099Y1339088D02*
X3425193D01*
X3419099Y1332994D01*
Y1331470D01*
X3420622Y1329947D01*
X3423669D01*
X3425193Y1331470D01*
X2854452Y1377439D02*
Y1369821D01*
X2855976Y1368298D01*
X2859023D01*
X2860546Y1369821D01*
Y1377439D01*
X2863593Y1368298D02*
X2866640D01*
X2865117D01*
Y1377439D01*
X2863593Y1375916D01*
X2631403Y1332735D02*
X2637497D01*
X2634450D01*
Y1323594D01*
X2646638D02*
X2640544D01*
X2646638Y1329688D01*
Y1331212D01*
X2645115Y1332735D01*
X2642068D01*
X2640544Y1331212D01*
X2464712Y1340885D02*
X2470806D01*
X2467759D01*
Y1331744D01*
X2473853D02*
X2476900D01*
X2475376D01*
Y1340885D01*
X2473853Y1339362D01*
X2855724Y1453921D02*
X2857248Y1452397D01*
X2860294D01*
X2861818Y1453921D01*
Y1455444D01*
X2860294Y1456968D01*
X2857248D01*
X2855724Y1458492D01*
Y1460015D01*
X2857248Y1461539D01*
X2860294D01*
X2861818Y1460015D01*
X2852677Y1452397D02*
Y1461539D01*
X2848106D01*
X2846583Y1460015D01*
Y1453921D01*
X2848106Y1452397D01*
X2852677D01*
X2843536Y1461539D02*
X2840489D01*
X2842012D01*
Y1452397D01*
X2843536Y1453921D01*
X3996184Y1313686D02*
X3994661Y1312162D01*
Y1309115D01*
X3996184Y1307592D01*
X3997708D01*
X3999232Y1309115D01*
Y1312162D01*
X4000755Y1313686D01*
X4002278D01*
X4003802Y1312162D01*
Y1309115D01*
X4002278Y1307592D01*
X3996184Y1316733D02*
X3994661Y1318257D01*
Y1321304D01*
X3996184Y1322827D01*
X3997708D01*
X3999232Y1321304D01*
Y1319780D01*
Y1321304D01*
X4000755Y1322827D01*
X4002278D01*
X4003802Y1321304D01*
Y1318257D01*
X4002278Y1316733D01*
X3996184Y1199386D02*
X3994661Y1197863D01*
Y1194816D01*
X3996184Y1193292D01*
X3997708D01*
X3999232Y1194816D01*
Y1197863D01*
X4000755Y1199386D01*
X4002278D01*
X4003802Y1197863D01*
Y1194816D01*
X4002278Y1193292D01*
X4003802Y1208527D02*
Y1202433D01*
X3997708Y1208527D01*
X3996184D01*
X3994661Y1207004D01*
Y1203957D01*
X3996184Y1202433D01*
X3516125Y1164736D02*
X3514601Y1163212D01*
Y1160165D01*
X3516125Y1158642D01*
X3517648D01*
X3519171Y1160165D01*
Y1163212D01*
X3520695Y1164736D01*
X3522219D01*
X3523742Y1163212D01*
Y1160165D01*
X3522219Y1158642D01*
X3523742Y1167783D02*
Y1170830D01*
Y1169306D01*
X3514601D01*
X3516125Y1167783D01*
X3833235Y1356868D02*
Y1366009D01*
X3837805D01*
X3839329Y1364485D01*
Y1361438D01*
X3837805Y1359915D01*
X3833235D01*
X3836282D02*
X3839329Y1356868D01*
X3842376Y1364485D02*
X3843900Y1366009D01*
X3846947D01*
X3848470Y1364485D01*
Y1362962D01*
X3846947Y1361438D01*
X3845423D01*
X3846947D01*
X3848470Y1359915D01*
Y1358392D01*
X3846947Y1356868D01*
X3843900D01*
X3842376Y1358392D01*
X3851517Y1364485D02*
X3853040Y1366009D01*
X3856088D01*
X3857611Y1364485D01*
Y1358392D01*
X3856088Y1356868D01*
X3853040D01*
X3851517Y1358392D01*
Y1364485D01*
X3833235Y1148588D02*
Y1157729D01*
X3837805D01*
X3839329Y1156206D01*
Y1153158D01*
X3837805Y1151635D01*
X3833235D01*
X3836282D02*
X3839329Y1148588D01*
X3848470D02*
X3842376D01*
X3848470Y1154682D01*
Y1156206D01*
X3846947Y1157729D01*
X3843900D01*
X3842376Y1156206D01*
X3851517Y1150111D02*
X3853040Y1148588D01*
X3856088D01*
X3857611Y1150111D01*
Y1156206D01*
X3856088Y1157729D01*
X3853040D01*
X3851517Y1156206D01*
Y1154682D01*
X3853040Y1153158D01*
X3857611D01*
X2683764Y830326D02*
Y839467D01*
X2688334D01*
X2689858Y837943D01*
Y834896D01*
X2688334Y833373D01*
X2683764D01*
X2686811D02*
X2689858Y830326D01*
X2698999D02*
X2692905D01*
X2698999Y836420D01*
Y837943D01*
X2697476Y839467D01*
X2694429D01*
X2692905Y837943D01*
X2702046D02*
X2703570Y839467D01*
X2706617D01*
X2708140Y837943D01*
Y836420D01*
X2706617Y834896D01*
X2708140Y833373D01*
Y831850D01*
X2706617Y830326D01*
X2703570D01*
X2702046Y831850D01*
Y833373D01*
X2703570Y834896D01*
X2702046Y836420D01*
Y837943D01*
X2703570Y834896D02*
X2706617D01*
X2684526Y725932D02*
Y735073D01*
X2689096D01*
X2690620Y733549D01*
Y730502D01*
X2689096Y728979D01*
X2684526D01*
X2687573D02*
X2690620Y725932D01*
X2699761D02*
X2693667D01*
X2699761Y732026D01*
Y733549D01*
X2698238Y735073D01*
X2695191D01*
X2693667Y733549D01*
X2702808Y735073D02*
X2708902D01*
Y733549D01*
X2702808Y727456D01*
Y725932D01*
X2509520Y1041908D02*
Y1051049D01*
X2514091D01*
X2515614Y1049526D01*
Y1046479D01*
X2514091Y1044955D01*
X2509520D01*
X2512567D02*
X2515614Y1041908D01*
X2524755D02*
X2518661D01*
X2524755Y1048002D01*
Y1049526D01*
X2523232Y1051049D01*
X2520185D01*
X2518661Y1049526D01*
X2533896Y1051049D02*
X2530849Y1049526D01*
X2527802Y1046479D01*
Y1043431D01*
X2529326Y1041908D01*
X2532373D01*
X2533896Y1043431D01*
Y1044955D01*
X2532373Y1046479D01*
X2527802D01*
X2045902Y995680D02*
Y1004821D01*
X2050472D01*
X2051996Y1003298D01*
Y1000250D01*
X2050472Y998727D01*
X2045902D01*
X2048949D02*
X2051996Y995680D01*
X2061137D02*
X2055043D01*
X2061137Y1001774D01*
Y1003298D01*
X2059613Y1004821D01*
X2056566D01*
X2055043Y1003298D01*
X2070278Y1004821D02*
X2064184D01*
Y1000250D01*
X2067231Y1001774D01*
X2068754D01*
X2070278Y1000250D01*
Y997204D01*
X2068754Y995680D01*
X2065707D01*
X2064184Y997204D01*
X2684526Y626872D02*
Y636013D01*
X2689096D01*
X2690620Y634490D01*
Y631442D01*
X2689096Y629919D01*
X2684526D01*
X2687573D02*
X2690620Y626872D01*
X2699761D02*
X2693667D01*
X2699761Y632966D01*
Y634490D01*
X2698238Y636013D01*
X2695191D01*
X2693667Y634490D01*
X2707379Y626872D02*
Y636013D01*
X2702808Y631442D01*
X2708902D01*
X2684526Y525272D02*
Y534413D01*
X2689096D01*
X2690620Y532890D01*
Y529842D01*
X2689096Y528319D01*
X2684526D01*
X2687573D02*
X2690620Y525272D01*
X2699761D02*
X2693667D01*
X2699761Y531366D01*
Y532890D01*
X2698238Y534413D01*
X2695191D01*
X2693667Y532890D01*
X2702808D02*
X2704332Y534413D01*
X2707379D01*
X2708902Y532890D01*
Y531366D01*
X2707379Y529842D01*
X2705855D01*
X2707379D01*
X2708902Y528319D01*
Y526796D01*
X2707379Y525272D01*
X2704332D01*
X2702808Y526796D01*
X2684526Y423672D02*
Y432813D01*
X2689096D01*
X2690620Y431289D01*
Y428242D01*
X2689096Y426719D01*
X2684526D01*
X2687573D02*
X2690620Y423672D01*
X2699761D02*
X2693667D01*
X2699761Y429766D01*
Y431289D01*
X2698238Y432813D01*
X2695191D01*
X2693667Y431289D01*
X2708902Y423672D02*
X2702808D01*
X2708902Y429766D01*
Y431289D01*
X2707379Y432813D01*
X2704332D01*
X2702808Y431289D01*
X2513076Y830326D02*
Y839467D01*
X2517646D01*
X2519170Y837943D01*
Y834896D01*
X2517646Y833373D01*
X2513076D01*
X2516123D02*
X2519170Y830326D01*
X2528311D02*
X2522217D01*
X2528311Y836420D01*
Y837943D01*
X2526788Y839467D01*
X2523741D01*
X2522217Y837943D01*
X2531358Y830326D02*
X2534405D01*
X2532882D01*
Y839467D01*
X2531358Y837943D01*
X2511552Y725932D02*
Y735073D01*
X2516122D01*
X2517646Y733549D01*
Y730502D01*
X2516122Y728979D01*
X2511552D01*
X2514599D02*
X2517646Y725932D01*
X2526787D02*
X2520693D01*
X2526787Y732026D01*
Y733549D01*
X2525264Y735073D01*
X2522217D01*
X2520693Y733549D01*
X2529834D02*
X2531358Y735073D01*
X2534405D01*
X2535928Y733549D01*
Y727456D01*
X2534405Y725932D01*
X2531358D01*
X2529834Y727456D01*
Y733549D01*
X2512314Y626872D02*
Y636013D01*
X2516884D01*
X2518408Y634490D01*
Y631442D01*
X2516884Y629919D01*
X2512314D01*
X2515361D02*
X2518408Y626872D01*
X2521455D02*
X2524502D01*
X2522979D01*
Y636013D01*
X2521455Y634490D01*
X2529073Y628396D02*
X2530596Y626872D01*
X2533643D01*
X2535167Y628396D01*
Y634490D01*
X2533643Y636013D01*
X2530596D01*
X2529073Y634490D01*
Y632966D01*
X2530596Y631442D01*
X2535167D01*
X2512314Y525272D02*
Y534413D01*
X2516884D01*
X2518408Y532890D01*
Y529842D01*
X2516884Y528319D01*
X2512314D01*
X2515361D02*
X2518408Y525272D01*
X2521455D02*
X2524502D01*
X2522979D01*
Y534413D01*
X2521455Y532890D01*
X2529073D02*
X2530596Y534413D01*
X2533643D01*
X2535167Y532890D01*
Y531366D01*
X2533643Y529842D01*
X2535167Y528319D01*
Y526796D01*
X2533643Y525272D01*
X2530596D01*
X2529073Y526796D01*
Y528319D01*
X2530596Y529842D01*
X2529073Y531366D01*
Y532890D01*
X2530596Y529842D02*
X2533643D01*
X2512314Y423672D02*
Y432813D01*
X2516884D01*
X2518408Y431289D01*
Y428242D01*
X2516884Y426719D01*
X2512314D01*
X2515361D02*
X2518408Y423672D01*
X2521455D02*
X2524502D01*
X2522979D01*
Y432813D01*
X2521455Y431289D01*
X2529073Y432813D02*
X2535167D01*
Y431289D01*
X2529073Y425196D01*
Y423672D01*
X2332228Y830326D02*
Y839467D01*
X2336799D01*
X2338322Y837943D01*
Y834896D01*
X2336799Y833373D01*
X2332228D01*
X2335275D02*
X2338322Y830326D01*
X2341369D02*
X2344416D01*
X2342893D01*
Y839467D01*
X2341369Y837943D01*
X2355081Y839467D02*
X2352034Y837943D01*
X2348987Y834896D01*
Y831850D01*
X2350510Y830326D01*
X2353557D01*
X2355081Y831850D01*
Y833373D01*
X2353557Y834896D01*
X2348987D01*
X2332228Y725932D02*
Y735073D01*
X2336799D01*
X2338322Y733549D01*
Y730502D01*
X2336799Y728979D01*
X2332228D01*
X2335275D02*
X2338322Y725932D01*
X2341369D02*
X2344416D01*
X2342893D01*
Y735073D01*
X2341369Y733549D01*
X2355081Y735073D02*
X2348987D01*
Y730502D01*
X2352034Y732026D01*
X2353557D01*
X2355081Y730502D01*
Y727456D01*
X2353557Y725932D01*
X2350510D01*
X2348987Y727456D01*
X2332228Y626872D02*
Y636013D01*
X2336799D01*
X2338322Y634490D01*
Y631442D01*
X2336799Y629919D01*
X2332228D01*
X2335275D02*
X2338322Y626872D01*
X2341369D02*
X2344416D01*
X2342893D01*
Y636013D01*
X2341369Y634490D01*
X2353557Y626872D02*
Y636013D01*
X2348987Y631442D01*
X2355081D01*
X2332228Y525272D02*
Y534413D01*
X2336799D01*
X2338322Y532890D01*
Y529842D01*
X2336799Y528319D01*
X2332228D01*
X2335275D02*
X2338322Y525272D01*
X2341369D02*
X2344416D01*
X2342893D01*
Y534413D01*
X2341369Y532890D01*
X2348987D02*
X2350510Y534413D01*
X2353557D01*
X2355081Y532890D01*
Y531366D01*
X2353557Y529842D01*
X2352034D01*
X2353557D01*
X2355081Y528319D01*
Y526796D01*
X2353557Y525272D01*
X2350510D01*
X2348987Y526796D01*
X2332228Y423672D02*
Y432813D01*
X2336799D01*
X2338322Y431289D01*
Y428242D01*
X2336799Y426719D01*
X2332228D01*
X2335275D02*
X2338322Y423672D01*
X2341369D02*
X2344416D01*
X2342893D01*
Y432813D01*
X2341369Y431289D01*
X2355081Y423672D02*
X2348987D01*
X2355081Y429766D01*
Y431289D01*
X2353557Y432813D01*
X2350510D01*
X2348987Y431289D01*
X2141728Y830326D02*
Y839467D01*
X2146299D01*
X2147822Y837943D01*
Y834896D01*
X2146299Y833373D01*
X2141728D01*
X2144775D02*
X2147822Y830326D01*
X2150869D02*
X2153916D01*
X2152393D01*
Y839467D01*
X2150869Y837943D01*
X2158487Y830326D02*
X2161534D01*
X2160010D01*
Y839467D01*
X2158487Y837943D01*
X2140204Y726186D02*
Y735327D01*
X2144774D01*
X2146298Y733803D01*
Y730757D01*
X2144774Y729233D01*
X2140204D01*
X2143251D02*
X2146298Y726186D01*
X2149345D02*
X2152392D01*
X2150869D01*
Y735327D01*
X2149345Y733803D01*
X2156963D02*
X2158486Y735327D01*
X2161533D01*
X2163057Y733803D01*
Y727710D01*
X2161533Y726186D01*
X2158486D01*
X2156963Y727710D01*
Y733803D01*
X2144014Y627126D02*
Y636267D01*
X2148584D01*
X2150108Y634743D01*
Y631697D01*
X2148584Y630173D01*
X2144014D01*
X2147061D02*
X2150108Y627126D01*
X2153155Y628649D02*
X2154679Y627126D01*
X2157726D01*
X2159249Y628649D01*
Y634743D01*
X2157726Y636267D01*
X2154679D01*
X2153155Y634743D01*
Y633220D01*
X2154679Y631697D01*
X2159249D01*
X2144014Y525526D02*
Y534667D01*
X2148584D01*
X2150108Y533144D01*
Y530097D01*
X2148584Y528573D01*
X2144014D01*
X2147061D02*
X2150108Y525526D01*
X2153155Y533144D02*
X2154679Y534667D01*
X2157726D01*
X2159249Y533144D01*
Y531620D01*
X2157726Y530097D01*
X2159249Y528573D01*
Y527049D01*
X2157726Y525526D01*
X2154679D01*
X2153155Y527049D01*
Y528573D01*
X2154679Y530097D01*
X2153155Y531620D01*
Y533144D01*
X2154679Y530097D02*
X2157726D01*
X2144014Y423926D02*
Y433067D01*
X2148584D01*
X2150108Y431544D01*
Y428497D01*
X2148584Y426973D01*
X2144014D01*
X2147061D02*
X2150108Y423926D01*
X2153155Y433067D02*
X2159249D01*
Y431544D01*
X2153155Y425449D01*
Y423926D01*
X3712972Y1227476D02*
X3703831D01*
Y1232046D01*
X3705355Y1233570D01*
X3708401D01*
X3709925Y1232046D01*
Y1227476D01*
Y1230523D02*
X3712972Y1233570D01*
X3703831Y1242711D02*
X3705355Y1239664D01*
X3708401Y1236617D01*
X3711448D01*
X3712972Y1238140D01*
Y1241187D01*
X3711448Y1242711D01*
X3709925D01*
X3708401Y1241187D01*
Y1236617D01*
X3657092Y1227476D02*
X3647951D01*
Y1232046D01*
X3649474Y1233570D01*
X3652521D01*
X3654045Y1232046D01*
Y1227476D01*
Y1230523D02*
X3657092Y1233570D01*
X3647951Y1242711D02*
Y1236617D01*
X3652521D01*
X3650998Y1239664D01*
Y1241187D01*
X3652521Y1242711D01*
X3655569D01*
X3657092Y1241187D01*
Y1238140D01*
X3655569Y1236617D01*
X2771463Y1383284D02*
Y1392425D01*
X2776034D01*
X2777557Y1390901D01*
Y1387854D01*
X2776034Y1386331D01*
X2771463D01*
X2774510D02*
X2777557Y1383284D01*
X2785175D02*
Y1392425D01*
X2780605Y1387854D01*
X2786699D01*
X2468784Y1146570D02*
Y1155711D01*
X2473354D01*
X2474878Y1154188D01*
Y1151141D01*
X2473354Y1149617D01*
X2468784D01*
X2471831D02*
X2474878Y1146570D01*
X2477925Y1154188D02*
X2479449Y1155711D01*
X2482496D01*
X2484019Y1154188D01*
Y1152664D01*
X2482496Y1151141D01*
X2480972D01*
X2482496D01*
X2484019Y1149617D01*
Y1148093D01*
X2482496Y1146570D01*
X2479449D01*
X2477925Y1148093D01*
X2735688Y1383425D02*
Y1392566D01*
X2740258D01*
X2741782Y1391043D01*
Y1387996D01*
X2740258Y1386472D01*
X2735688D01*
X2738735D02*
X2741782Y1383425D01*
X2750923D02*
X2744829D01*
X2750923Y1389519D01*
Y1391043D01*
X2749400Y1392566D01*
X2746353D01*
X2744829Y1391043D01*
X2513654Y1146570D02*
Y1155711D01*
X2518225D01*
X2519748Y1154188D01*
Y1151141D01*
X2518225Y1149617D01*
X2513654D01*
X2516701D02*
X2519748Y1146570D01*
X2522795D02*
X2525842D01*
X2524319D01*
Y1155711D01*
X2522795Y1154188D01*
X3765534Y1304462D02*
X3756393D01*
Y1309032D01*
X3757917Y1310556D01*
X3760963D01*
X3762487Y1309032D01*
Y1304462D01*
X3756393Y1318174D02*
Y1315127D01*
X3757917Y1313603D01*
X3764011D01*
X3765534Y1315127D01*
Y1318174D01*
X3764011Y1319697D01*
X3757917D01*
X3756393Y1318174D01*
Y1322744D02*
Y1328838D01*
Y1325791D01*
X3765534D01*
Y1331885D02*
Y1334932D01*
Y1333409D01*
X3756393D01*
X3757917Y1331885D01*
X2623392Y1091612D02*
Y1100753D01*
X2627963D01*
X2629486Y1099230D01*
Y1096182D01*
X2627963Y1094659D01*
X2623392D01*
X2637104Y1091612D02*
Y1100753D01*
X2632533Y1096182D01*
X2638627D01*
X2023034Y1321054D02*
Y1330195D01*
X2027604D01*
X2029128Y1328672D01*
Y1325625D01*
X2027604Y1324101D01*
X2023034D01*
X2032175Y1328672D02*
X2033698Y1330195D01*
X2036745D01*
X2038269Y1328672D01*
Y1327148D01*
X2036745Y1325625D01*
X2035222D01*
X2036745D01*
X2038269Y1324101D01*
Y1322578D01*
X2036745Y1321054D01*
X2033698D01*
X2032175Y1322578D01*
X2276564Y1523746D02*
Y1532887D01*
X2281134D01*
X2282658Y1531364D01*
Y1528316D01*
X2281134Y1526793D01*
X2276564D01*
X2291799Y1523746D02*
X2285705D01*
X2291799Y1529840D01*
Y1531364D01*
X2290276Y1532887D01*
X2287229D01*
X2285705Y1531364D01*
X2574544Y1691386D02*
Y1682245D01*
X2569973D01*
X2568450Y1683768D01*
Y1686815D01*
X2569973Y1688339D01*
X2574544D01*
X2565403Y1691386D02*
X2562356D01*
X2563879D01*
Y1682245D01*
X2565403Y1683768D01*
X2761995Y784349D02*
X2758947D01*
X2757424Y782825D01*
Y776731D01*
X2758947Y775208D01*
X2761995D01*
X2763518Y776731D01*
Y782825D01*
X2761995Y784349D01*
X2772659Y775208D02*
X2766565D01*
X2772659Y781302D01*
Y782825D01*
X2771136Y784349D01*
X2768089D01*
X2766565Y782825D01*
X2775706D02*
X2777230Y784349D01*
X2780276D01*
X2781800Y782825D01*
Y776731D01*
X2780276Y775208D01*
X2777230D01*
X2775706Y776731D01*
Y782825D01*
X2761995Y682749D02*
X2758947D01*
X2757424Y681226D01*
Y675132D01*
X2758947Y673608D01*
X2761995D01*
X2763518Y675132D01*
Y681226D01*
X2761995Y682749D01*
X2766565Y673608D02*
X2769612D01*
X2768089D01*
Y682749D01*
X2766565Y681226D01*
X2774183Y675132D02*
X2775706Y673608D01*
X2778753D01*
X2780276Y675132D01*
Y681226D01*
X2778753Y682749D01*
X2775706D01*
X2774183Y681226D01*
Y679702D01*
X2775706Y678178D01*
X2780276D01*
X2761995Y582419D02*
X2758947D01*
X2757424Y580896D01*
Y574801D01*
X2758947Y573278D01*
X2761995D01*
X2763518Y574801D01*
Y580896D01*
X2761995Y582419D01*
X2766565Y573278D02*
X2769612D01*
X2768089D01*
Y582419D01*
X2766565Y580896D01*
X2774183D02*
X2775706Y582419D01*
X2778753D01*
X2780276Y580896D01*
Y579372D01*
X2778753Y577849D01*
X2780276Y576325D01*
Y574801D01*
X2778753Y573278D01*
X2775706D01*
X2774183Y574801D01*
Y576325D01*
X2775706Y577849D01*
X2774183Y579372D01*
Y580896D01*
X2775706Y577849D02*
X2778753D01*
X2761995Y479549D02*
X2758947D01*
X2757424Y478026D01*
Y471931D01*
X2758947Y470408D01*
X2761995D01*
X2763518Y471931D01*
Y478026D01*
X2761995Y479549D01*
X2766565Y470408D02*
X2769612D01*
X2768089D01*
Y479549D01*
X2766565Y478026D01*
X2774183Y479549D02*
X2780276D01*
Y478026D01*
X2774183Y471931D01*
Y470408D01*
X2761995Y379219D02*
X2758947D01*
X2757424Y377696D01*
Y371601D01*
X2758947Y370078D01*
X2761995D01*
X2763518Y371601D01*
Y377696D01*
X2761995Y379219D01*
X2766565Y370078D02*
X2769612D01*
X2768089D01*
Y379219D01*
X2766565Y377696D01*
X2780276Y379219D02*
X2777230Y377696D01*
X2774183Y374649D01*
Y371601D01*
X2775706Y370078D01*
X2778753D01*
X2780276Y371601D01*
Y373125D01*
X2778753Y374649D01*
X2774183D01*
X2589275Y784349D02*
X2586227D01*
X2584704Y782825D01*
Y776731D01*
X2586227Y775208D01*
X2589275D01*
X2590798Y776731D01*
Y782825D01*
X2589275Y784349D01*
X2593845Y775208D02*
X2596892D01*
X2595369D01*
Y784349D01*
X2593845Y782825D01*
X2607556Y784349D02*
X2601463D01*
Y779779D01*
X2604510Y781302D01*
X2606033D01*
X2607556Y779779D01*
Y776731D01*
X2606033Y775208D01*
X2602986D01*
X2601463Y776731D01*
X2589275Y682749D02*
X2586227D01*
X2584704Y681226D01*
Y675132D01*
X2586227Y673608D01*
X2589275D01*
X2590798Y675132D01*
Y681226D01*
X2589275Y682749D01*
X2593845Y673608D02*
X2596892D01*
X2595369D01*
Y682749D01*
X2593845Y681226D01*
X2606033Y673608D02*
Y682749D01*
X2601463Y678178D01*
X2607556D01*
X2589275Y582419D02*
X2586227D01*
X2584704Y580896D01*
Y574801D01*
X2586227Y573278D01*
X2589275D01*
X2590798Y574801D01*
Y580896D01*
X2589275Y582419D01*
X2593845Y573278D02*
X2596892D01*
X2595369D01*
Y582419D01*
X2593845Y580896D01*
X2601463D02*
X2602986Y582419D01*
X2606033D01*
X2607556Y580896D01*
Y579372D01*
X2606033Y577849D01*
X2604510D01*
X2606033D01*
X2607556Y576325D01*
Y574801D01*
X2606033Y573278D01*
X2602986D01*
X2601463Y574801D01*
X2589275Y479549D02*
X2586227D01*
X2584704Y478026D01*
Y471931D01*
X2586227Y470408D01*
X2589275D01*
X2590798Y471931D01*
Y478026D01*
X2589275Y479549D01*
X2593845Y470408D02*
X2596892D01*
X2595369D01*
Y479549D01*
X2593845Y478026D01*
X2607556Y470408D02*
X2601463D01*
X2607556Y476502D01*
Y478026D01*
X2606033Y479549D01*
X2602986D01*
X2601463Y478026D01*
X2408934Y784349D02*
X2405887D01*
X2404364Y782825D01*
Y776731D01*
X2405887Y775208D01*
X2408934D01*
X2410458Y776731D01*
Y782825D01*
X2408934Y784349D01*
X2413505Y775208D02*
X2416552D01*
X2415029D01*
Y784349D01*
X2413505Y782825D01*
X2421123D02*
X2422646Y784349D01*
X2425693D01*
X2427217Y782825D01*
Y776731D01*
X2425693Y775208D01*
X2422646D01*
X2421123Y776731D01*
Y782825D01*
X2408934Y682749D02*
X2405887D01*
X2404364Y681226D01*
Y675132D01*
X2405887Y673608D01*
X2408934D01*
X2410458Y675132D01*
Y681226D01*
X2408934Y682749D01*
X2413505Y675132D02*
X2415029Y673608D01*
X2418076D01*
X2419599Y675132D01*
Y681226D01*
X2418076Y682749D01*
X2415029D01*
X2413505Y681226D01*
Y679702D01*
X2415029Y678178D01*
X2419599D01*
X2408934Y582419D02*
X2405887D01*
X2404364Y580896D01*
Y574801D01*
X2405887Y573278D01*
X2408934D01*
X2410458Y574801D01*
Y580896D01*
X2408934Y582419D01*
X2413505Y580896D02*
X2415029Y582419D01*
X2418076D01*
X2419599Y580896D01*
Y579372D01*
X2418076Y577849D01*
X2419599Y576325D01*
Y574801D01*
X2418076Y573278D01*
X2415029D01*
X2413505Y574801D01*
Y576325D01*
X2415029Y577849D01*
X2413505Y579372D01*
Y580896D01*
X2415029Y577849D02*
X2418076D01*
X2408934Y479549D02*
X2405887D01*
X2404364Y478026D01*
Y471931D01*
X2405887Y470408D01*
X2408934D01*
X2410458Y471931D01*
Y478026D01*
X2408934Y479549D01*
X2413505D02*
X2419599D01*
Y478026D01*
X2413505Y471931D01*
Y470408D01*
X2408934Y375409D02*
X2405887D01*
X2404364Y373885D01*
Y367791D01*
X2405887Y366268D01*
X2408934D01*
X2410458Y367791D01*
Y373885D01*
X2408934Y375409D01*
X2419599D02*
X2416552Y373885D01*
X2413505Y370839D01*
Y367791D01*
X2415029Y366268D01*
X2418076D01*
X2419599Y367791D01*
Y369315D01*
X2418076Y370839D01*
X2413505D01*
X2216911Y784603D02*
X2213864D01*
X2212340Y783080D01*
Y776985D01*
X2213864Y775462D01*
X2216911D01*
X2218434Y776985D01*
Y783080D01*
X2216911Y784603D01*
X2227575D02*
X2221481D01*
Y780033D01*
X2224528Y781556D01*
X2226052D01*
X2227575Y780033D01*
Y776985D01*
X2226052Y775462D01*
X2223005D01*
X2221481Y776985D01*
X2216911Y683003D02*
X2213864D01*
X2212340Y681479D01*
Y675386D01*
X2213864Y673862D01*
X2216911D01*
X2218434Y675386D01*
Y681479D01*
X2216911Y683003D01*
X2226052Y673862D02*
Y683003D01*
X2221481Y678432D01*
X2227575D01*
X2216911Y582673D02*
X2213864D01*
X2212340Y581149D01*
Y575056D01*
X2213864Y573532D01*
X2216911D01*
X2218434Y575056D01*
Y581149D01*
X2216911Y582673D01*
X2221481Y581149D02*
X2223005Y582673D01*
X2226052D01*
X2227575Y581149D01*
Y579626D01*
X2226052Y578102D01*
X2224528D01*
X2226052D01*
X2227575Y576579D01*
Y575056D01*
X2226052Y573532D01*
X2223005D01*
X2221481Y575056D01*
X2216911Y479803D02*
X2213864D01*
X2212340Y478279D01*
Y472186D01*
X2213864Y470662D01*
X2216911D01*
X2218434Y472186D01*
Y478279D01*
X2216911Y479803D01*
X2227575Y470662D02*
X2221481D01*
X2227575Y476756D01*
Y478279D01*
X2226052Y479803D01*
X2223005D01*
X2221481Y478279D01*
X2216911Y380743D02*
X2213864D01*
X2212340Y379220D01*
Y373125D01*
X2213864Y371602D01*
X2216911D01*
X2218434Y373125D01*
Y379220D01*
X2216911Y380743D01*
X2221481Y371602D02*
X2224528D01*
X2223005D01*
Y380743D01*
X2221481Y379220D01*
X3156712Y1445710D02*
Y1436569D01*
X3153665Y1439616D01*
X3150618Y1436569D01*
Y1445710D01*
X3147571D02*
X3144524D01*
X3146047D01*
Y1436569D01*
X3147571Y1438093D01*
X3486661Y1086358D02*
X3495802D01*
Y1092452D01*
X3488185Y1101593D02*
X3486661Y1100070D01*
Y1097023D01*
X3488185Y1095499D01*
X3494279D01*
X3495802Y1097023D01*
Y1100070D01*
X3494279Y1101593D01*
X3486661Y1104640D02*
X3495802D01*
Y1109211D01*
X3494279Y1110734D01*
X3488185D01*
X3486661Y1109211D01*
Y1104640D01*
X3495802Y1113781D02*
Y1116828D01*
Y1115305D01*
X3486661D01*
X3488185Y1113781D01*
X2688435Y1564129D02*
Y1554988D01*
Y1558035D01*
X2694529Y1564129D01*
X2689959Y1559559D01*
X2694529Y1554988D01*
X2703670D02*
X2697577D01*
X2703670Y1561082D01*
Y1562605D01*
X2702147Y1564129D01*
X2699100D01*
X2697577Y1562605D01*
X2690079Y1215853D02*
Y1206712D01*
Y1209759D01*
X2696173Y1215853D01*
X2691603Y1211283D01*
X2696173Y1206712D01*
X2699221D02*
X2702267D01*
X2700744D01*
Y1215853D01*
X2699221Y1214330D01*
X1988817Y888494D02*
Y891541D01*
Y890017D01*
X1981199D01*
X1979676Y891541D01*
Y893064D01*
X1981199Y894588D01*
X1979676Y885447D02*
Y882400D01*
Y883923D01*
X1988817D01*
X1987294Y885447D01*
X1979676Y871735D02*
Y877829D01*
X1985770Y871735D01*
X1987294D01*
X1988817Y873259D01*
Y876306D01*
X1987294Y877829D01*
X3694847Y1686050D02*
Y1683003D01*
Y1684527D01*
X3702465D01*
X3703988Y1683003D01*
Y1681479D01*
X3702465Y1679956D01*
X3703988Y1689097D02*
Y1692144D01*
Y1690621D01*
X3694847D01*
X3696371Y1689097D01*
X3703988Y1696715D02*
Y1699762D01*
Y1698238D01*
X3694847D01*
X3696371Y1696715D01*
X3694847Y1525522D02*
Y1522475D01*
Y1523999D01*
X3702465D01*
X3703988Y1522475D01*
Y1520952D01*
X3702465Y1519428D01*
X3703988Y1528569D02*
Y1531616D01*
Y1530093D01*
X3694847D01*
X3696371Y1528569D01*
Y1536187D02*
X3694847Y1537710D01*
Y1540757D01*
X3696371Y1542281D01*
X3702465D01*
X3703988Y1540757D01*
Y1537710D01*
X3702465Y1536187D01*
X3696371D01*
X1988817Y339854D02*
Y342901D01*
Y341377D01*
X1981199D01*
X1979676Y342901D01*
Y344425D01*
X1981199Y345948D01*
Y336807D02*
X1979676Y335283D01*
Y332236D01*
X1981199Y330713D01*
X1987294D01*
X1988817Y332236D01*
Y335283D01*
X1987294Y336807D01*
X1985770D01*
X1984247Y335283D01*
Y330713D01*
X1987293Y1423164D02*
Y1426211D01*
Y1424688D01*
X1979675D01*
X1978152Y1426211D01*
Y1427735D01*
X1979675Y1429258D01*
X1985770Y1420117D02*
X1987293Y1418593D01*
Y1415546D01*
X1985770Y1414023D01*
X1984246D01*
X1982722Y1415546D01*
X1981199Y1414023D01*
X1979675D01*
X1978152Y1415546D01*
Y1418593D01*
X1979675Y1420117D01*
X1981199D01*
X1982722Y1418593D01*
X1984246Y1420117D01*
X1985770D01*
X1982722Y1418593D02*
Y1415546D01*
X1987293Y1509524D02*
Y1512571D01*
Y1511048D01*
X1979675D01*
X1978152Y1512571D01*
Y1514095D01*
X1979675Y1515618D01*
X1987293Y1506477D02*
Y1500383D01*
X1985770D01*
X1979675Y1506477D01*
X1978152D01*
X1987293Y1598424D02*
Y1601471D01*
Y1599948D01*
X1979675D01*
X1978152Y1601471D01*
Y1602995D01*
X1979675Y1604518D01*
X1987293Y1589283D02*
X1985770Y1592330D01*
X1982722Y1595377D01*
X1979675D01*
X1978152Y1593853D01*
Y1590806D01*
X1979675Y1589283D01*
X1981199D01*
X1982722Y1590806D01*
Y1595377D01*
X1987293Y1687324D02*
Y1690371D01*
Y1688848D01*
X1979675D01*
X1978152Y1690371D01*
Y1691895D01*
X1979675Y1693418D01*
X1978152Y1679706D02*
X1987293D01*
X1982722Y1684277D01*
Y1678183D01*
X2420876Y1717551D02*
X2423923D01*
X2422399D01*
Y1725168D01*
X2423923Y1726692D01*
X2425446D01*
X2426970Y1725168D01*
X2417829Y1719075D02*
X2416305Y1717551D01*
X2413258D01*
X2411735Y1719075D01*
Y1720598D01*
X2413258Y1722121D01*
X2414782D01*
X2413258D01*
X2411735Y1723645D01*
Y1725168D01*
X2413258Y1726692D01*
X2416305D01*
X2417829Y1725168D01*
X2283716Y1717551D02*
X2286763D01*
X2285240D01*
Y1725168D01*
X2286763Y1726692D01*
X2288286D01*
X2289810Y1725168D01*
X2274575Y1726692D02*
X2280669D01*
X2274575Y1720598D01*
Y1719075D01*
X2276098Y1717551D01*
X2279145D01*
X2280669Y1719075D01*
X2142365Y1717551D02*
X2145412D01*
X2143889D01*
Y1725168D01*
X2145412Y1726692D01*
X2146935D01*
X2148459Y1725168D01*
X2139318Y1726692D02*
X2136271D01*
X2137794D01*
Y1717551D01*
X2139318Y1719075D01*
X2694940Y1408427D02*
Y1399286D01*
X2699510D01*
X2701034Y1400809D01*
Y1406904D01*
X2699510Y1408427D01*
X2694940D01*
X2708652Y1399286D02*
Y1408427D01*
X2704081Y1403857D01*
X2710175D01*
X2623312Y1465831D02*
Y1456690D01*
X2627882D01*
X2629406Y1458214D01*
Y1464308D01*
X2627882Y1465831D01*
X2623312D01*
X2632453Y1464308D02*
X2633977Y1465831D01*
X2637024D01*
X2638547Y1464308D01*
Y1462784D01*
X2637024Y1461261D01*
X2635500D01*
X2637024D01*
X2638547Y1459737D01*
Y1458214D01*
X2637024Y1456690D01*
X2633977D01*
X2632453Y1458214D01*
X2556748Y1155462D02*
Y1146321D01*
X2561318D01*
X2562842Y1147844D01*
Y1153938D01*
X2561318Y1155462D01*
X2556748D01*
X2571983Y1146321D02*
X2565889D01*
X2571983Y1152415D01*
Y1153938D01*
X2570460Y1155462D01*
X2567413D01*
X2565889Y1153938D01*
X2514854Y1332749D02*
Y1323608D01*
X2519424D01*
X2520948Y1325132D01*
Y1331226D01*
X2519424Y1332749D01*
X2514854D01*
X2523995Y1323608D02*
X2527042D01*
X2525519D01*
Y1332749D01*
X2523995Y1331226D01*
X2171914Y1313177D02*
X2170390Y1314701D01*
X2167343D01*
X2165820Y1313177D01*
Y1307083D01*
X2167343Y1305560D01*
X2170390D01*
X2171914Y1307083D01*
X2174961Y1305560D02*
X2178008D01*
X2176485D01*
Y1314701D01*
X2174961Y1313177D01*
D12*
X2614958Y1448620D02*
G03*
X2647216Y1448506I16038J-25920D01*
G01*
X2513780Y1268962D02*
G03*
X2513895Y1301221I25920J16038D01*
G01*
X3639820Y1196439D02*
Y1272639D01*
Y1196439D02*
X3665220D01*
Y1272639D01*
X3639820D02*
X3665220D01*
X3652520Y1186279D02*
Y1196439D01*
Y1272639D02*
Y1284069D01*
X3610760Y1157674D02*
Y1312674D01*
X3531760D02*
X3610760D01*
X3531760Y1157674D02*
X3610760D01*
X3531760D02*
Y1312674D01*
X3695700Y1196439D02*
Y1272639D01*
Y1196439D02*
X3721100D01*
Y1272639D01*
X3695700D02*
X3721100D01*
X3708400Y1186279D02*
Y1196439D01*
Y1272639D02*
Y1284069D01*
X2484120Y1033780D02*
X2560320D01*
Y1059180D01*
X2484120D02*
X2560320D01*
X2484120Y1033780D02*
Y1059180D01*
X2560320Y1046480D02*
X2570480D01*
X2472690D02*
X2484120D01*
X3807835Y1348740D02*
X3884035D01*
Y1374140D01*
X3807835D02*
X3884035D01*
X3807835Y1348740D02*
Y1374140D01*
X3884035Y1361440D02*
X3894195D01*
X3796405D02*
X3807835D01*
X2733440Y835000D02*
X2744870D01*
X2647080D02*
X2657240D01*
X2733440Y822300D02*
Y847700D01*
X2657240Y822300D02*
X2733440D01*
X2657240D02*
Y847700D01*
X2733440D01*
X2561200Y631340D02*
X2572630D01*
X2474840D02*
X2485000D01*
X2561200Y618640D02*
Y644040D01*
X2485000Y618640D02*
X2561200D01*
X2485000D02*
Y644040D01*
X2561200D01*
X2614958Y1448562D02*
X2647216D01*
X2608897Y1386586D02*
X2616517D01*
X2612707Y1382776D02*
Y1390396D01*
X2513838Y1268962D02*
Y1301221D01*
X2575814Y1262902D02*
Y1270522D01*
X2572004Y1266712D02*
X2579624D01*
X2743200Y1338980D02*
Y1350410D01*
Y1426610D02*
Y1436770D01*
X2730500Y1350410D02*
X2755900D01*
X2730500D02*
Y1426610D01*
X2755900D01*
Y1350410D02*
Y1426610D01*
X2519680Y1188480D02*
Y1199910D01*
Y1102120D02*
Y1112280D01*
X2506980Y1188480D02*
X2532380D01*
Y1112280D02*
Y1188480D01*
X2506980Y1112280D02*
X2532380D01*
X2506980D02*
Y1188480D01*
X2778976Y1338980D02*
Y1350410D01*
Y1426610D02*
Y1436770D01*
X2766275Y1350410D02*
X2791675D01*
X2766275D02*
Y1426610D01*
X2791675D01*
Y1350410D02*
Y1426610D01*
X2476334Y1188480D02*
Y1199910D01*
Y1102120D02*
Y1112280D01*
X2463634Y1188480D02*
X2489034D01*
Y1112280D02*
Y1188480D01*
X2463634Y1112280D02*
X2489034D01*
X2463634D02*
Y1188480D01*
X2188995Y835000D02*
X2200425D01*
X2102635D02*
X2112795D01*
X2188995Y822300D02*
Y847700D01*
X2112795Y822300D02*
X2188995D01*
X2112795D02*
Y847700D01*
X2188995D01*
Y730790D02*
X2200425D01*
X2102635D02*
X2112795D01*
X2188995Y718090D02*
Y743490D01*
X2112795Y718090D02*
X2188995D01*
X2112795D02*
Y743490D01*
X2188995D01*
Y631730D02*
X2200425D01*
X2102635D02*
X2112795D01*
X2188995Y619030D02*
Y644430D01*
X2112795Y619030D02*
X2188995D01*
X2112795D02*
Y644430D01*
X2188995D01*
Y530130D02*
X2200425D01*
X2102635D02*
X2112795D01*
X2188995Y517430D02*
Y542830D01*
X2112795Y517430D02*
X2188995D01*
X2112795D02*
Y542830D01*
X2188995D01*
Y428530D02*
X2200425D01*
X2102635D02*
X2112795D01*
X2188995Y415830D02*
Y441230D01*
X2112795Y415830D02*
X2188995D01*
X2112795D02*
Y441230D01*
X2188995D01*
X2381005Y835000D02*
X2392435D01*
X2294645D02*
X2304805D01*
X2381005Y822300D02*
Y847700D01*
X2304805Y822300D02*
X2381005D01*
X2304805D02*
Y847700D01*
X2381005D01*
Y730400D02*
X2392435D01*
X2294645D02*
X2304805D01*
X2381005Y717700D02*
Y743100D01*
X2304805Y717700D02*
X2381005D01*
X2304805D02*
Y743100D01*
X2381005D01*
Y631340D02*
X2392435D01*
X2294645D02*
X2304805D01*
X2381005Y618640D02*
Y644040D01*
X2304805Y618640D02*
X2381005D01*
X2304805D02*
Y644040D01*
X2381005D01*
Y529740D02*
X2392435D01*
X2294645D02*
X2304805D01*
X2381005Y517040D02*
Y542440D01*
X2304805Y517040D02*
X2381005D01*
X2304805D02*
Y542440D01*
X2381005D01*
Y428140D02*
X2392435D01*
X2294645D02*
X2304805D01*
X2381005Y415440D02*
Y440840D01*
X2304805Y415440D02*
X2381005D01*
X2304805D02*
Y440840D01*
X2381005D01*
X2561200Y835000D02*
X2572630D01*
X2474840D02*
X2485000D01*
X2561200Y822300D02*
Y847700D01*
X2485000Y822300D02*
X2561200D01*
X2485000D02*
Y847700D01*
X2561200D01*
Y730400D02*
X2572630D01*
X2474840D02*
X2485000D01*
X2561200Y717700D02*
Y743100D01*
X2485000Y717700D02*
X2561200D01*
X2485000D02*
Y743100D01*
X2561200D01*
Y529740D02*
X2572630D01*
X2474840D02*
X2485000D01*
X2561200Y517040D02*
Y542440D01*
X2485000Y517040D02*
X2561200D01*
X2485000D02*
Y542440D01*
X2561200D01*
Y428140D02*
X2572630D01*
X2474840D02*
X2485000D01*
X2561200Y415440D02*
Y440840D01*
X2485000Y415440D02*
X2561200D01*
X2485000D02*
Y440840D01*
X2561200D01*
X2734075Y631340D02*
X2745505D01*
X2647715D02*
X2657875D01*
X2734075Y618640D02*
Y644040D01*
X2657875Y618640D02*
X2734075D01*
X2657875D02*
Y644040D01*
X2734075D01*
Y529740D02*
X2745505D01*
X2647715D02*
X2657875D01*
X2734075Y517040D02*
Y542440D01*
X2657875Y517040D02*
X2734075D01*
X2657875D02*
Y542440D01*
X2734075D01*
Y428140D02*
X2745505D01*
X2647715D02*
X2657875D01*
X2734075Y415440D02*
Y440840D01*
X2657875Y415440D02*
X2734075D01*
X2657875D02*
Y440840D01*
X2734075D01*
Y730400D02*
X2745505D01*
X2647715D02*
X2657875D01*
X2734075Y717700D02*
Y743100D01*
X2657875Y717700D02*
X2734075D01*
X2657875D02*
Y743100D01*
X2734075D01*
X3796405Y1153160D02*
X3807835D01*
X3884035D02*
X3894195D01*
X3807835Y1140460D02*
Y1165860D01*
X3884035D01*
Y1140460D02*
Y1165860D01*
X3807835Y1140460D02*
X3884035D01*
M02*
