M48
;Layer_Color=9474304
;FILE_FORMAT=4:4
METRIC,TZ
;TYPE=PLATED
T1F00S00C0.5600
T2F00S00C0.6350
T3F00S00C0.7112
T4F00S00C0.7620
T5F00S00C0.8890
T6F00S00C0.9000
T7F00S00C1.0000
T8F00S00C1.0160
T9F00S00C1.0414
T10F00S00C1.2000
T11F00S00C1.3000
T12F00S00C1.3500
T13F00S00C1.5000
T14F00S00C2.0000
T15F00S00C2.2000
%
T01
X2476650Y1260500
Y1284500
Y1308500
X2615531Y1353820
X2639531
X2663531
T02
X2405135Y428140
X2462140
Y529740
X2405135
Y631340
X2462140
Y730400
X2405135
X2585330
X2635015
Y631340
X2585330
Y529740
X2635015
Y428140
X2585330
X2758205
Y529740
Y631340
Y730400
X2281945
X2213125Y730790
Y631730
X2281945Y631340
Y529740
X2213125Y530130
Y428530
X2281945Y428140
X2089935Y428530
Y530130
Y631730
Y730790
Y835000
X2213125
X2281945
X2405135
X2462140
X2585330
X2634380
X2757570
X2583180Y1046480
X2519680Y1089420
X2476334
X2459990Y1046480
X3652520Y1173579
X3708400
X3783705Y1153160
X3906895
Y1361440
X3783705
X3708400Y1296769
X3652520
X2778976Y1326280
Y1449470
X2743200
Y1326280
X2519680Y1212610
X2476334
T03
X2697480Y378460
X2595880Y1071880
X3285335Y988060
X3406140Y1031240
X3703320Y1071880
Y1099820
X3921760
X2573020Y1358900
X2537460Y1343660
T04
X3596640Y477520
X3622040
X3647440
X3672840
X3698240
X3571240
X2997200Y439420
X2760980Y980440
X2654300Y998220
X2564368Y1113047
Y1189247
X2839720Y1033780
X2931160Y1071880
X2811780Y850900
X2799080Y805180
X2832100
X3418840Y1165860
Y1296769
X3120000Y1455420
X3030220Y1419860
X3004820Y1402080
X2702560Y1365650
X2715260Y1303020
X2702560Y1441850
X2004060Y1744980
X1986280Y1727200
X2821940Y1696720
X2811960Y1679120
X2799080Y1666240
T05
X2113430Y366300
Y391700
X2189630
Y366300
X2305440Y360830
Y386230
X2381640
Y360830
X2485635Y362100
Y387500
X2561835
Y362100
X2658510Y364640
Y390040
X2734710
Y364640
X4011260Y674000
Y699400
Y724800
Y750200
Y775600
X3528060Y762000
Y736600
Y711200
Y685800
Y660400
Y635000
Y609600
Y584200
X3361535Y571500
Y596900
Y622300
Y647700
Y673100
Y698500
Y723900
Y749300
Y787400
Y546100
Y520700
X2879245Y609360
Y634760
Y660160
Y685560
Y710960
Y736360
Y761760
Y787160
X2734710Y769770
X2658510
Y693570
Y668170
Y593240
Y567840
X2734710
Y593240
Y668170
Y693570
X2561835
Y668170
Y593240
Y567840
X2485635
Y593240
Y668170
Y693570
Y769770
X2561835
X2381640
Y693570
Y668170
Y593240
Y567840
Y490370
Y464970
X2485635
Y490370
X2561835
Y464970
X2658510
Y490370
X2734710
Y464970
X2305440
Y490370
Y567840
Y593240
Y668170
Y693570
Y769770
X2189630Y770160
X2113430
Y693960
Y668560
Y593630
Y568230
X2189630
Y593630
Y668560
Y693960
Y490760
Y465360
X2113430
Y490760
Y795560
X2189630
X2305440Y795170
X2381640
X2485635
X2561835
X2658510
X2734710
X2545301Y913003
Y963803
X2879245Y964960
Y939560
Y914160
Y888760
Y863360
Y837960
Y990360
Y1015760
Y1066560
Y1091960
Y1117360
Y1142760
Y1168160
X3361535Y1168400
Y1143000
Y1117600
Y1092200
Y1066800
Y1041400
Y1016000
Y965200
Y939800
Y914400
Y889000
Y863600
Y838200
Y812800
X3528060Y803400
Y828800
Y854200
Y879600
Y905000
Y930400
Y955800
Y981200
X4011260Y979200
Y953800
Y928400
Y903000
Y877600
Y852200
Y801000
X3662680Y1414780
Y1440180
Y1465580
Y1490980
Y1516380
Y1541780
Y1567180
X3434080
Y1541780
Y1516380
Y1490980
Y1465580
Y1440180
Y1414780
X3317240Y1467128
X3291840
X3265650
X3241040
X3215640
X3190240
X3183735Y1295400
X3209135
X3234535
X3259935
X3285335
X3310735
X3336135
X3361535
Y1270000
X3336135
X3310735
X3285335
X3259935
X3234535
X3209135
X3183735
X3361535Y1193800
X3158335Y1270000
Y1295400
X3132935
Y1270000
X3107535
Y1295400
X3082135
Y1270000
X3056735
Y1295400
X3031335
Y1270000
X3005935
Y1295400
X2980535
Y1270000
X2955135
Y1295400
X2929735
Y1270000
X2879245Y1244360
Y1218960
Y1193560
X2877820Y1485161
X2903220
X2928620
X2954020
X2979420
X3004820
X3030220
X3055620
X2630995Y1435100
Y1409700
X2552700Y1285000
X2527300
X3434080Y1592580
Y1617980
Y1643380
Y1668780
Y1694180
Y1719580
Y1744980
Y1770380
X3291840Y1825948
X3266440
X3241040
X3215640
X3662680Y1770380
Y1744980
Y1719580
Y1694180
Y1668780
Y1643380
Y1617980
Y1592580
T06
X3553460Y1197074
Y1222474
Y1247874
Y1273274
X1945095Y1447800
X1919695
X1894295
Y1534160
X1919695
X1945095
Y1623060
X1919695
X1894295
Y1711960
X1919695
X1945095
T07
X4021735Y1168400
X3976735
Y1233400
X4021735
Y1282700
X3976735
Y1347700
X4021735
X3790800Y1282640
Y1257640
Y1232640
T08
X1918806Y360680
Y411480
Y462280
Y513080
Y563880
Y614680
Y665480
Y716280
Y767080
Y817880
Y901700
Y952500
Y1003300
Y1054100
Y1104900
Y1155700
Y1206500
Y1257300
Y1308100
Y1358900
X2163087Y1785816
X2213887
X2302406
X2352190
X2438550
X2489350
T09
X2507196Y1424940
Y1504940
X2056346Y1424940
X2057196Y1632940
T10
X3840286Y1422400
X3738686
X3738786Y1524000
X3738686Y1579880
X3840286
X3840386Y1524000
Y1681480
X3738786
T11
X2072310Y1062780
X2654380Y1051480
Y919480
X2786380
Y1051480
X2072310Y1287780
T12
X2631405Y1151340
X2753405
X2773405Y1211340
X2753405Y1271340
X2631405
Y1499560
X2753405
X2773405Y1559560
X2753405Y1619560
X2631405
T13
X2657960Y1719580
X2727960
T14
X2243620Y1183640
X2343620
T15
X3861800Y1204640
X3860800Y1310640
X3776786Y1473200
Y1630680
M30
