G04*
G04 #@! TF.GenerationSoftware,Altium Limited,Altium Designer,19.0.15 (446)*
G04*
G04 Layer_Color=16711935*
%FSLAX44Y44*%
%MOMM*%
G71*
G01*
G75*
%ADD13C,1.7272*%
%ADD14R,2.1082X1.9812*%
%ADD15O,2.1082X1.9812*%
%ADD16R,1.7272X1.7272*%
%ADD17R,1.9812X1.9812*%
%ADD18C,1.9812*%
%ADD19R,1.9812X1.9812*%
%ADD20C,2.2032*%
%ADD21C,4.2672*%
%ADD22C,2.4892*%
%ADD23R,3.4032X3.4032*%
%ADD24C,2.7432*%
%ADD25R,2.7432X2.7432*%
%ADD26R,3.2032X3.2032*%
%ADD27C,3.2032*%
%ADD28C,4.2032*%
%ADD29R,4.2032X4.2032*%
%ADD30R,1.7272X1.7272*%
%ADD31R,2.7432X2.7432*%
%ADD32C,2.2860*%
%ADD33C,2.1032*%
%ADD34R,2.1032X2.1032*%
%ADD35R,2.8032X2.8032*%
%ADD36C,2.8032*%
%ADD37O,2.3622X2.1082*%
%ADD38O,2.1082X2.3622*%
%ADD39C,1.4732*%
D13*
X3652520Y1173579D02*
D03*
Y1296769D02*
D03*
X3434080Y1770380D02*
D03*
Y1744980D02*
D03*
Y1719580D02*
D03*
Y1694180D02*
D03*
Y1668780D02*
D03*
Y1643380D02*
D03*
Y1617980D02*
D03*
Y1592580D02*
D03*
Y1567180D02*
D03*
Y1541780D02*
D03*
Y1516380D02*
D03*
Y1490980D02*
D03*
Y1465580D02*
D03*
Y1440180D02*
D03*
Y1414780D02*
D03*
X3662680Y1770380D02*
D03*
Y1744980D02*
D03*
Y1719580D02*
D03*
Y1694180D02*
D03*
Y1668780D02*
D03*
Y1643380D02*
D03*
Y1617980D02*
D03*
Y1592580D02*
D03*
Y1567180D02*
D03*
Y1541780D02*
D03*
Y1516380D02*
D03*
Y1490980D02*
D03*
Y1465580D02*
D03*
Y1440180D02*
D03*
Y1414780D02*
D03*
X3708400Y1173579D02*
D03*
Y1296769D02*
D03*
X2583180Y1046480D02*
D03*
X2459990D02*
D03*
X2564368Y1189247D02*
D03*
X3906895Y1361440D02*
D03*
X3783705D02*
D03*
X1919695Y1711960D02*
D03*
X1945095D02*
D03*
X1919695Y1534160D02*
D03*
X1945095D02*
D03*
X1919695Y1447800D02*
D03*
X1945095D02*
D03*
X1919695Y1623060D02*
D03*
X1945095D02*
D03*
X2757570Y835000D02*
D03*
X2634380D02*
D03*
X2585330Y631340D02*
D03*
X2462140D02*
D03*
X2702560Y1365650D02*
D03*
X3361535Y1193800D02*
D03*
Y1168400D02*
D03*
Y1143000D02*
D03*
Y1117600D02*
D03*
Y1092200D02*
D03*
Y1066800D02*
D03*
Y1041400D02*
D03*
Y1016000D02*
D03*
Y787400D02*
D03*
Y812800D02*
D03*
Y838200D02*
D03*
Y863600D02*
D03*
Y889000D02*
D03*
Y914400D02*
D03*
Y939800D02*
D03*
Y965200D02*
D03*
Y596900D02*
D03*
Y622300D02*
D03*
Y647700D02*
D03*
Y673100D02*
D03*
Y698500D02*
D03*
Y723900D02*
D03*
Y749300D02*
D03*
Y1295400D02*
D03*
Y1270000D02*
D03*
X3336135Y1295400D02*
D03*
Y1270000D02*
D03*
X3310735Y1295400D02*
D03*
Y1270000D02*
D03*
X3285335Y1295400D02*
D03*
Y1270000D02*
D03*
X3259935Y1295400D02*
D03*
Y1270000D02*
D03*
X3234535Y1295400D02*
D03*
Y1270000D02*
D03*
X3209135Y1295400D02*
D03*
Y1270000D02*
D03*
X3183735Y1295400D02*
D03*
Y1270000D02*
D03*
X3158335Y1295400D02*
D03*
Y1270000D02*
D03*
X3132935Y1295400D02*
D03*
Y1270000D02*
D03*
X3107535Y1295400D02*
D03*
Y1270000D02*
D03*
X3082135Y1295400D02*
D03*
Y1270000D02*
D03*
X3056735Y1295400D02*
D03*
Y1270000D02*
D03*
X3031335Y1295400D02*
D03*
Y1270000D02*
D03*
X3005935Y1295400D02*
D03*
Y1270000D02*
D03*
X2980535Y1295400D02*
D03*
Y1270000D02*
D03*
X2955135Y1295400D02*
D03*
Y1270000D02*
D03*
X2929735Y1295400D02*
D03*
Y1270000D02*
D03*
X2879245Y787160D02*
D03*
Y761760D02*
D03*
Y736360D02*
D03*
Y710960D02*
D03*
Y685560D02*
D03*
Y660160D02*
D03*
Y1066560D02*
D03*
Y1091960D02*
D03*
Y1117360D02*
D03*
Y1142760D02*
D03*
Y1168160D02*
D03*
Y1193560D02*
D03*
Y1218960D02*
D03*
Y1244360D02*
D03*
Y837960D02*
D03*
Y863360D02*
D03*
Y888760D02*
D03*
Y914160D02*
D03*
Y939560D02*
D03*
Y964960D02*
D03*
Y990360D02*
D03*
Y1015760D02*
D03*
Y634760D02*
D03*
Y609360D02*
D03*
X3361535Y571500D02*
D03*
Y546100D02*
D03*
Y520700D02*
D03*
X2743200Y1326280D02*
D03*
Y1449470D02*
D03*
X2519680Y1212610D02*
D03*
Y1089420D02*
D03*
X2639531Y1353820D02*
D03*
X2615531D02*
D03*
X2476650Y1284500D02*
D03*
Y1308500D02*
D03*
X2778976Y1326280D02*
D03*
Y1449470D02*
D03*
X2476334Y1212610D02*
D03*
Y1089420D02*
D03*
X2213125Y835000D02*
D03*
X2089935D02*
D03*
X2213125Y730790D02*
D03*
X2089935D02*
D03*
X2213125Y631730D02*
D03*
X2089935D02*
D03*
X2213125Y530130D02*
D03*
X2089935D02*
D03*
X2213125Y428530D02*
D03*
X2089935D02*
D03*
X2405135Y835000D02*
D03*
X2281945D02*
D03*
X2405135Y730400D02*
D03*
X2281945D02*
D03*
X2405135Y631340D02*
D03*
X2281945D02*
D03*
X2405135Y529740D02*
D03*
X2281945D02*
D03*
X2405135Y428140D02*
D03*
X2281945D02*
D03*
X2585330Y835000D02*
D03*
X2462140D02*
D03*
X2585330Y730400D02*
D03*
X2462140D02*
D03*
X2585330Y529740D02*
D03*
X2462140D02*
D03*
X2585330Y428140D02*
D03*
X2462140D02*
D03*
X2758205Y631340D02*
D03*
X2635015D02*
D03*
X2758205Y529740D02*
D03*
X2635015D02*
D03*
X2758205Y428140D02*
D03*
X2635015D02*
D03*
X2758205Y730400D02*
D03*
X2635015D02*
D03*
X3783705Y1153160D02*
D03*
X3906895D02*
D03*
X2004060Y1744980D02*
D03*
X3418840Y1165860D02*
D03*
Y1296769D02*
D03*
X2997200Y439420D02*
D03*
X2799080Y805180D02*
D03*
X2832100D02*
D03*
X2811780Y850900D02*
D03*
X2760980Y980440D02*
D03*
X2654300Y998220D02*
D03*
X2931160Y1071880D02*
D03*
X2839720Y1033780D02*
D03*
X1986280Y1727200D02*
D03*
X2715260Y1303020D02*
D03*
X3004820Y1402080D02*
D03*
X3030220Y1419860D02*
D03*
X3120000Y1455420D02*
D03*
X2799080Y1666240D02*
D03*
X2811960Y1679120D02*
D03*
X2821940Y1696720D02*
D03*
X3698240Y477520D02*
D03*
X3672840D02*
D03*
X3647440D02*
D03*
X3571240D02*
D03*
X3596640D02*
D03*
X3622040D02*
D03*
D14*
X3553460Y1197074D02*
D03*
D15*
Y1222474D02*
D03*
Y1247874D02*
D03*
Y1273274D02*
D03*
D16*
X2564368Y1113047D02*
D03*
X2702560Y1441850D02*
D03*
X2476650Y1260500D02*
D03*
D17*
X2545301Y963803D02*
D03*
X4011260Y724800D02*
D03*
D18*
X2545301Y913003D02*
D03*
X3190240Y1467128D02*
D03*
X3291840D02*
D03*
X3265650D02*
D03*
X3241040D02*
D03*
X3317240D02*
D03*
X3291840Y1825948D02*
D03*
X3215640D02*
D03*
X3241040D02*
D03*
X3266440D02*
D03*
X3528060Y981200D02*
D03*
Y955800D02*
D03*
Y930400D02*
D03*
Y905000D02*
D03*
Y879600D02*
D03*
Y854200D02*
D03*
Y828800D02*
D03*
Y803400D02*
D03*
X4011260Y674000D02*
D03*
Y699400D02*
D03*
Y750200D02*
D03*
Y775600D02*
D03*
Y801000D02*
D03*
Y852200D02*
D03*
Y877600D02*
D03*
Y903000D02*
D03*
Y928400D02*
D03*
Y953800D02*
D03*
Y979200D02*
D03*
X3528060Y584200D02*
D03*
Y609600D02*
D03*
Y635000D02*
D03*
Y660400D02*
D03*
Y685800D02*
D03*
Y711200D02*
D03*
Y736600D02*
D03*
Y762000D02*
D03*
X2877820Y1485161D02*
D03*
X2903220D02*
D03*
X2928620D02*
D03*
X2954020D02*
D03*
X2979420D02*
D03*
X3004820D02*
D03*
X3030220D02*
D03*
X3055620D02*
D03*
X2485635Y387500D02*
D03*
Y362100D02*
D03*
X2561835Y387500D02*
D03*
X2113430Y795560D02*
D03*
Y770160D02*
D03*
X2189630Y795560D02*
D03*
X2113430Y693960D02*
D03*
Y668560D02*
D03*
X2189630Y693960D02*
D03*
X2113430Y593630D02*
D03*
Y568230D02*
D03*
X2189630Y593630D02*
D03*
X2113430Y490760D02*
D03*
Y465360D02*
D03*
X2189630Y490760D02*
D03*
X2113430Y391700D02*
D03*
Y366300D02*
D03*
X2189630Y391700D02*
D03*
X2305440Y795170D02*
D03*
Y769770D02*
D03*
X2381640Y795170D02*
D03*
X2305440Y693570D02*
D03*
Y668170D02*
D03*
X2381640Y693570D02*
D03*
X2305440Y593240D02*
D03*
Y567840D02*
D03*
X2381640Y593240D02*
D03*
X2305440Y490370D02*
D03*
Y464970D02*
D03*
X2381640Y490370D02*
D03*
X2305440Y386230D02*
D03*
Y360830D02*
D03*
X2381640Y386230D02*
D03*
X2485635Y795170D02*
D03*
Y769770D02*
D03*
X2561835Y795170D02*
D03*
X2485635Y693570D02*
D03*
Y668170D02*
D03*
X2561835Y693570D02*
D03*
X2485635Y593240D02*
D03*
Y567840D02*
D03*
X2561835Y593240D02*
D03*
X2485635Y490370D02*
D03*
Y464970D02*
D03*
X2561835Y490370D02*
D03*
X2658510Y593240D02*
D03*
Y567840D02*
D03*
X2734710Y593240D02*
D03*
X2658510Y490370D02*
D03*
Y464970D02*
D03*
X2734710Y490370D02*
D03*
X2658510Y390040D02*
D03*
Y364640D02*
D03*
X2734710Y390040D02*
D03*
X2658510Y795170D02*
D03*
Y769770D02*
D03*
X2734710Y795170D02*
D03*
X2658510Y693570D02*
D03*
Y668170D02*
D03*
X2734710Y693570D02*
D03*
D19*
X3215640Y1467128D02*
D03*
X2561835Y362100D02*
D03*
X2189630Y770160D02*
D03*
Y668560D02*
D03*
Y568230D02*
D03*
Y465360D02*
D03*
Y366300D02*
D03*
X2381640Y769770D02*
D03*
Y668170D02*
D03*
Y567840D02*
D03*
Y464970D02*
D03*
Y360830D02*
D03*
X2561835Y769770D02*
D03*
Y668170D02*
D03*
Y567840D02*
D03*
Y464970D02*
D03*
X2734710Y567840D02*
D03*
Y464970D02*
D03*
Y364640D02*
D03*
Y769770D02*
D03*
Y668170D02*
D03*
D20*
X4021735Y1233400D02*
D03*
X3976735D02*
D03*
X4021735Y1168400D02*
D03*
X3976735D02*
D03*
X4021735Y1347700D02*
D03*
X3976735D02*
D03*
X4021735Y1282700D02*
D03*
X3976735D02*
D03*
X3790800Y1282640D02*
D03*
Y1232640D02*
D03*
Y1257640D02*
D03*
D21*
X3776786Y1630680D02*
D03*
Y1473200D02*
D03*
D22*
X3738786Y1681480D02*
D03*
X3840386D02*
D03*
X3840286Y1579880D02*
D03*
X3738686D02*
D03*
X3738786Y1524000D02*
D03*
X3840386D02*
D03*
X3840286Y1422400D02*
D03*
X3738686D02*
D03*
D23*
X3861800Y1204640D02*
D03*
X3860800Y1310640D02*
D03*
D24*
X2438550Y1785816D02*
D03*
X2302406D02*
D03*
X2163087D02*
D03*
X1918806Y1358900D02*
D03*
Y1308100D02*
D03*
Y1257300D02*
D03*
Y1206500D02*
D03*
Y1155700D02*
D03*
Y1104900D02*
D03*
Y1054100D02*
D03*
Y1003300D02*
D03*
Y952500D02*
D03*
Y817880D02*
D03*
Y767080D02*
D03*
Y716280D02*
D03*
Y665480D02*
D03*
Y614680D02*
D03*
Y563880D02*
D03*
Y513080D02*
D03*
Y462280D02*
D03*
Y411480D02*
D03*
D25*
X2489350Y1785816D02*
D03*
X2352190D02*
D03*
X2213887D02*
D03*
D26*
X2727960Y1719580D02*
D03*
D27*
X2657960D02*
D03*
X2773405Y1559560D02*
D03*
X2631405Y1499560D02*
D03*
X2753405D02*
D03*
X2631405Y1619560D02*
D03*
X2753405D02*
D03*
X2773405Y1211340D02*
D03*
X2631405Y1151340D02*
D03*
X2753405D02*
D03*
X2631405Y1271340D02*
D03*
X2753405D02*
D03*
D28*
X2343620Y1183640D02*
D03*
D29*
X2243620D02*
D03*
D30*
X1894295Y1711960D02*
D03*
Y1534160D02*
D03*
Y1447800D02*
D03*
Y1623060D02*
D03*
X2663531Y1353820D02*
D03*
D31*
X1918806Y901700D02*
D03*
Y360680D02*
D03*
D32*
X2057196Y1632940D02*
D03*
X2056346Y1424940D02*
D03*
X2507196D02*
D03*
Y1504940D02*
D03*
D33*
X2072310Y1287780D02*
D03*
D34*
Y1062780D02*
D03*
D35*
X2654380Y919480D02*
D03*
X2786380D02*
D03*
X2654380Y1051480D02*
D03*
D36*
X2786380D02*
D03*
D37*
X2630995Y1409700D02*
D03*
Y1435100D02*
D03*
D38*
X2552700Y1285000D02*
D03*
X2527300D02*
D03*
D39*
X2697480Y378460D02*
D03*
X3921760Y1099820D02*
D03*
X3703320Y1071880D02*
D03*
Y1099820D02*
D03*
X3406140Y1031240D02*
D03*
X2595880Y1071880D02*
D03*
X3285335Y988060D02*
D03*
X2573020Y1358900D02*
D03*
X2537460Y1343660D02*
D03*
M02*
