<?xml version="1.0" encoding="utf-8"?>
<!-- Generator: Adobe Illustrator 24.1.1, SVG Export Plug-In . SVG Version: 6.00 Build 0)  -->
<svg version="1.1" id="_x30_" xmlns="http://www.w3.org/2000/svg" xmlns:xlink="http://www.w3.org/1999/xlink" x="0px" y="0px"
	 viewBox="0 0 227.48 227.48" style="enable-background:new 0 0 227.48 227.48;" xml:space="preserve">
<style type="text/css">
	.st0{fill:none;stroke:#000000;stroke-width:0.7087;stroke-linecap:round;stroke-linejoin:round;stroke-miterlimit:10;}
</style>
<g id="LWPOLYLINE">
	<path class="st0" d="M14.53,0.35C6.7,0.35,0.35,6.7,0.35,14.53v198.43c0,7.83,6.35,14.17,14.17,14.17h198.43
		c7.83,0,14.17-6.35,14.17-14.17V14.53c0-7.83-6.35-14.17-14.17-14.17H14.53z"/>
</g>
<g id="CIRCLE">
	<path class="st0" d="M209.13,212.95c0-2.11,1.71-3.83,3.83-3.83s3.83,1.71,3.83,3.83s-1.71,3.83-3.83,3.83
		S209.13,215.07,209.13,212.95L209.13,212.95z"/>
</g>
<g id="CIRCLE_1_">
	<path class="st0" d="M209.13,14.53c0-2.11,1.71-3.83,3.83-3.83s3.83,1.71,3.83,3.83s-1.71,3.83-3.83,3.83
		S209.13,16.64,209.13,14.53L209.13,14.53z"/>
</g>
<g id="CIRCLE_2_">
	<path class="st0" d="M10.7,14.53c0-2.11,1.71-3.83,3.83-3.83s3.83,1.71,3.83,3.83s-1.71,3.83-3.83,3.83S10.7,16.64,10.7,14.53
		L10.7,14.53z"/>
</g>
<g id="CIRCLE_3_">
	<path class="st0" d="M10.7,212.95c0-2.11,1.71-3.83,3.83-3.83s3.83,1.71,3.83,3.83s-1.71,3.83-3.83,3.83S10.7,215.07,10.7,212.95
		L10.7,212.95z"/>
</g>
<g id="CIRCLE_4_">
	<path class="st0" d="M103.82,113.74c0-5.48,4.44-9.92,9.92-9.92s9.92,4.44,9.92,9.92s-4.44,9.92-9.92,9.92
		S103.82,119.22,103.82,113.74L103.82,113.74z"/>
</g>
</svg>
