<?xml version="1.0" encoding="utf-8"?>
<!-- Generator: Adobe Illustrator 24.1.1, SVG Export Plug-In . SVG Version: 6.00 Build 0)  -->
<svg version="1.1" id="_x30_" xmlns="http://www.w3.org/2000/svg" xmlns:xlink="http://www.w3.org/1999/xlink" x="0px" y="0px"
	 viewBox="0 0 635.75 467.99" style="enable-background:new 0 0 635.75 467.99;" xml:space="preserve">
<style type="text/css">
	.st0{fill:none;stroke:#000000;stroke-width:0.7087;stroke-linecap:round;stroke-linejoin:round;stroke-miterlimit:10;}
</style>
<g id="CIRCLE_1_">
	<path class="st0" d="M22.14,14.64c0-2.18,1.76-3.94,3.94-3.94s3.94,1.76,3.94,3.94s-1.76,3.94-3.94,3.94S22.14,16.82,22.14,14.64
		L22.14,14.64z"/>
</g>
<g id="LWPOLYLINE">
	<rect x="0.35" y="0.35" class="st0" width="635.04" height="467.28"/>
</g>
<g id="CIRCLE_2_">
	<path class="st0" d="M607.09,453.23c0-2.11,1.71-3.83,3.83-3.83s3.83,1.71,3.83,3.83s-1.71,3.83-3.83,3.83
		S607.09,455.35,607.09,453.23L607.09,453.23z"/>
</g>
<g id="CIRCLE_3_">
	<path class="st0" d="M607.09,14.7c0-2.11,1.71-3.83,3.83-3.83s3.83,1.71,3.83,3.83s-1.71,3.83-3.83,3.83S607.09,16.81,607.09,14.7
		L607.09,14.7z"/>
</g>
<g id="CIRCLE_4_">
	<path class="st0" d="M22.45,14.7c0-2.11,1.71-3.83,3.83-3.83s3.83,1.71,3.83,3.83s-1.71,3.83-3.83,3.83S22.45,16.81,22.45,14.7
		L22.45,14.7z"/>
</g>
<g id="CIRCLE_5_">
	<path class="st0" d="M22.45,453.23c0-2.11,1.71-3.83,3.83-3.83s3.83,1.71,3.83,3.83s-1.71,3.83-3.83,3.83
		S22.45,455.35,22.45,453.23L22.45,453.23z"/>
</g>
</svg>
