<?xml version="1.0" encoding="utf-8"?>
<!-- Generator: Adobe Illustrator 24.1.1, SVG Export Plug-In . SVG Version: 6.00 Build 0)  -->
<svg version="1.1" id="_x30_" xmlns="http://www.w3.org/2000/svg" xmlns:xlink="http://www.w3.org/1999/xlink" x="0px" y="0px"
	 viewBox="0 0 549.24 467.99" style="enable-background:new 0 0 549.24 467.99;" xml:space="preserve">
<style type="text/css">
	.st0{fill:none;stroke:#000000;stroke-width:0.7087;stroke-linecap:round;stroke-linejoin:round;stroke-miterlimit:10;}
</style>
<g id="CIRCLE">
	<path class="st0" d="M132.55,285.42c0-2.11,1.71-3.83,3.83-3.83s3.83,1.71,3.83,3.83c0,2.11-1.71,3.83-3.83,3.83
		S132.55,287.53,132.55,285.42L132.55,285.42z"/>
</g>
<g id="CIRCLE_1_">
	<path class="st0" d="M132.55,14.7c0-2.11,1.71-3.83,3.83-3.83s3.83,1.71,3.83,3.83s-1.71,3.83-3.83,3.83S132.55,16.81,132.55,14.7
		L132.55,14.7z"/>
</g>
<g id="CIRCLE_2_">
	<path class="st0" d="M530.71,14.7c0-2.11,1.71-3.83,3.83-3.83c2.11,0,3.83,1.71,3.83,3.83s-1.71,3.83-3.83,3.83
		C532.42,18.52,530.71,16.81,530.71,14.7L530.71,14.7z"/>
</g>
<g id="CIRCLE_3_">
	<path class="st0" d="M530.71,453.29c0-2.11,1.71-3.83,3.83-3.83c2.11,0,3.83,1.71,3.83,3.83s-1.71,3.83-3.83,3.83
		C532.42,457.12,530.71,455.4,530.71,453.29L530.71,453.29z"/>
</g>
<g id="CIRCLE_4_">
	<path class="st0" d="M10.87,453.29c0-2.11,1.71-3.83,3.83-3.83s3.83,1.71,3.83,3.83s-1.71,3.83-3.83,3.83S10.87,455.4,10.87,453.29
		L10.87,453.29z"/>
</g>
<g id="LINE">
	<line class="st0" x1="40.75" y1="336.42" x2="14.7" y2="336.42"/>
</g>
<g id="ARC">
	<path class="st0" d="M14.7,336.42c-7.92,0-14.34,6.42-14.34,14.34"/>
</g>
<g id="LINE_1_">
	<line class="st0" x1="0.35" y1="350.76" x2="0.35" y2="453.29"/>
</g>
<g id="ARC_1_">
	<path class="st0" d="M0.35,453.29c0,7.92,6.42,14.34,14.34,14.34"/>
</g>
<g id="ARC_2_">
	<path class="st0" d="M534.54,467.63c7.92,0,14.34-6.42,14.34-14.34"/>
</g>
<g id="ARC_3_">
	<path class="st0" d="M548.88,14.7c0-7.92-6.42-14.34-14.34-14.34c0,0,0,0-0.01,0"/>
</g>
<g id="LINE_2_">
	<line class="st0" x1="534.53" y1="0.35" x2="136.38" y2="0.35"/>
</g>
<g id="ARC_4_">
	<path class="st0" d="M136.38,0.35c-7.92,0-14.34,6.42-14.34,14.34"/>
</g>
<g id="LINE_3_">
	<line class="st0" x1="122.03" y1="14.7" x2="122.03" y2="242.27"/>
</g>
<g id="ARC_5_">
	<path class="st0" d="M106.42,257.89c8.63,0,15.62-6.99,15.62-15.62"/>
</g>
<g id="LINE_4_">
	<line class="st0" x1="106.42" y1="257.89" x2="71.99" y2="257.89"/>
</g>
<g id="ARC_6_">
	<path class="st0" d="M71.99,257.89c-8.63,0-15.62,6.99-15.62,15.62"/>
</g>
<g id="LINE_5_">
	<line class="st0" x1="56.37" y1="273.51" x2="56.37" y2="320.8"/>
</g>
<g id="ARC_7_">
	<path class="st0" d="M40.75,336.42c8.63,0,15.62-6.99,15.62-15.62"/>
</g>
<g id="LINE_7_">
	<line class="st0" x1="499.78" y1="418" x2="404.06" y2="418"/>
</g>
<g id="LINE_8_">
	<line class="st0" x1="388.44" y1="433.62" x2="388.44" y2="452.02"/>
</g>
<g id="LINE_9_">
	<line class="st0" x1="515.4" y1="433.62" x2="515.4" y2="452.02"/>
</g>
<g id="LINE_10_">
	<line class="st0" x1="14.7" y1="467.63" x2="372.82" y2="467.63"/>
</g>
<g id="LINE_11_">
	<line class="st0" x1="531.02" y1="467.63" x2="534.54" y2="467.63"/>
</g>
<g id="ARC_8_">
	<path class="st0" d="M404.06,418c-8.63,0-15.62,6.99-15.62,15.62"/>
</g>
<g id="ARC_9_">
	<path class="st0" d="M515.4,433.62c0-8.63-6.99-15.62-15.62-15.62"/>
</g>
<g id="ARC_10_">
	<path class="st0" d="M515.4,452.02c0,8.63,6.99,15.62,15.62,15.62"/>
</g>
<g id="ARC_11_">
	<path class="st0" d="M372.82,467.63c8.63,0,15.62-6.99,15.62-15.62"/>
</g>
<g id="ARC_12_">
	<path class="st0" d="M461.1,218.63c-28.96,0-52.44,23.48-52.44,52.44s23.48,52.44,52.44,52.44"/>
</g>
<g id="LINE_12_">
	<line class="st0" x1="461.1" y1="218.63" x2="533.26" y2="218.63"/>
</g>
<g id="LINE_13_">
	<line class="st0" x1="461.1" y1="323.52" x2="533.26" y2="323.52"/>
</g>
<g id="LINE_14_">
	<line class="st0" x1="548.88" y1="453.29" x2="548.88" y2="339.13"/>
</g>
<g id="LINE_15_">
	<line class="st0" x1="548.88" y1="203.01" x2="548.88" y2="14.7"/>
</g>
<g id="ARC_13_">
	<path class="st0" d="M548.88,339.13c0-8.63-6.99-15.62-15.62-15.62"/>
</g>
<g id="ARC_14_">
	<path class="st0" d="M533.26,218.63c8.63,0,15.62-6.99,15.62-15.62"/>
</g>
</svg>
